<ttFont>
<head>
    <!-- Most of this table will be recalculated by the compiler -->
    <tableVersion value="1.0"/>
    <fontRevision value="1.29999"/>
    <checkSumAdjustment value="0xed4c43e"/>
    <magicNumber value="0x5f0f3cf5"/>
    <flags value="00000000 00001001"/>
    <unitsPerEm value="1000"/>
    <created value="Mon Oct 19 13:12:45 2015"/>
    <modified value="Mon Aug  1 23:07:40 2016"/>
    <xMin value="-84"/>
    <yMin value="-395"/>
    <xMax value="863"/>
    <yMax value="1271"/>
    <macStyle value="00000000 00000010"/>
    <lowestRecPPEM value="9"/>
    <fontDirectionHint value="2"/>
    <indexToLocFormat value="0"/>
    <glyphDataFormat value="0"/>
  </head>
    <TTGlyph name=".notdef" xMin="-7" yMin="-200" xMax="548" yMax="800">
      <contour>
        <pt x="-7" y="800" on="1"/>
        <pt x="533" y="800" on="1"/>
        <pt x="548" y="-200" on="1"/>
        <pt x="8" y="-200" on="1"/>
      </contour>
      <contour>
        <pt x="269" y="360" on="1"/>
        <pt x="457" y="750" on="1"/>
        <pt x="70" y="750" on="1"/>
      </contour>
      <contour>
        <pt x="301" y="300" on="1"/>
        <pt x="492" y="-76" on="1"/>
        <pt x="481" y="676" on="1"/>
      </contour>
      <contour>
        <pt x="240" y="300" on="1"/>
        <pt x="49" y="676" on="1"/>
        <pt x="60" y="-76" on="1"/>
      </contour>
      <contour>
        <pt x="84" y="-150" on="1"/>
        <pt x="471" y="-150" on="1"/>
        <pt x="271" y="240" on="1"/>
      </contour>
    </TTGlyph>
    <TTGlyph name="A" xMin="-15" yMin="-6" xMax="548" yMax="688">
      <contour>
        <pt x="389" y="-6" on="1"/>
        <pt x="387" y="37" on="0"/>
        <pt x="386" y="123" on="0"/>
        <pt x="385" y="167" on="1"/>
        <pt x="209" y="167" on="1"/>
        <pt x="193" y="125" on="0"/>
        <pt x="161" y="42" on="0"/>
        <pt x="146" y="0" on="1"/>
        <pt x="-15" y="0" on="1"/>
        <pt x="56" y="173" on="0"/>
        <pt x="208" y="516" on="0"/>
        <pt x="288" y="688" on="1"/>
        <pt x="507" y="688" on="1"/>
        <pt x="518" y="518" on="0"/>
        <pt x="539" y="180" on="0"/>
        <pt x="548" y="6" on="1"/>
      </contour>
      <contour>
        <pt x="366" y="553" on="1"/>
        <pt x="339" y="486" on="0"/>
        <pt x="284" y="353" on="0"/>
        <pt x="256" y="285" on="1"/>
        <pt x="382" y="285" on="1"/>
        <pt x="380" y="353" on="0"/>
        <pt x="376" y="487" on="0"/>
        <pt x="374" y="553" on="1"/>
      </contour>
    </TTGlyph>
    <TTGlyph name="AE" xMin="-39" yMin="0" xMax="679" yMax="688">
      <contour>
        <pt x="351" y="559" on="1"/>
        <pt x="322" y="490" on="0"/>
        <pt x="264" y="350" on="0"/>
        <pt x="234" y="279" on="1"/>
        <pt x="309" y="279" on="1"/>
        <pt x="363" y="559" on="1"/>
      </contour>
      <contour>
        <pt x="287" y="167" on="1"/>
        <pt x="187" y="167" on="1"/>
        <pt x="169" y="125" on="0"/>
        <pt x="133" y="42" on="0"/>
        <pt x="115" y="0" on="1"/>
        <pt x="-39" y="0" on="1"/>
        <pt x="41" y="173" on="0"/>
        <pt x="205" y="516" on="0"/>
        <pt x="287" y="688" on="1"/>
        <pt x="679" y="688" on="1"/>
        <pt x="653" y="559" on="1"/>
        <pt x="494" y="559" on="1"/>
        <pt x="463" y="398" on="1"/>
        <pt x="588" y="398" on="1"/>
        <pt x="566" y="292" on="1"/>
        <pt x="442" y="292" on="1"/>
        <pt x="410" y="129" on="1"/>
        <pt x="575" y="129" on="1"/>
        <pt x="543" y="0" on="1"/>
        <pt x="255" y="0" on="1"/>
      </contour>
    </TTGlyph>
    <TTGlyph name="AEacute" xMin="-39" yMin="0" xMax="679" yMax="999">
      <component glyphName="acute.cap" x="149" y="125" flags="0x204"/>
      <component glyphName="AE" x="0" y="0" flags="0x4"/>
    </TTGlyph>
    <TTGlyph name="Aacute" xMin="-15" yMin="-6" xMax="612" yMax="999">
      <component glyphName="A" x="0" y="0" flags="0x204"/>
      <component glyphName="acute.cap" x="94" y="125" flags="0x4"/>
    </TTGlyph>
    <TTGlyph name="Abreve" xMin="-15" yMin="-6" xMax="674" yMax="976">
      <component glyphName="A" x="0" y="0" flags="0x204"/>
      <component glyphName="breve.cap" x="100" y="125" flags="0x4"/>
    </TTGlyph>
    <TTGlyph name="Acircumflex" xMin="-15" yMin="-6" xMax="643" yMax="986">
      <component glyphName="A" x="0" y="0" flags="0x204"/>
      <component glyphName="circumflex.cap" x="97" y="125" flags="0x4"/>
    </TTGlyph>
    <TTGlyph name="Adieresis" xMin="-15" yMin="-6" xMax="663" yMax="924">
      <component glyphName="A" x="0" y="0" flags="0x204"/>
      <component glyphName="dieresis.cap" x="92" y="125" flags="0x4"/>
    </TTGlyph>
    <TTGlyph name="Agrave" xMin="-15" yMin="-6" xMax="603" yMax="1002">
      <component glyphName="A" x="0" y="0" flags="0x204"/>
      <component glyphName="grave.cap" x="113" y="125" flags="0x4"/>
    </TTGlyph>
    <TTGlyph name="Amacron" xMin="-15" yMin="-6" xMax="643" yMax="910">
      <component glyphName="A" x="0" y="0" flags="0x204"/>
      <component glyphName="macron.cap" x="103" y="125" flags="0x4"/>
    </TTGlyph>
    <TTGlyph name="Aogonek" xMin="-15" yMin="-237" xMax="548" yMax="688">
      <contour>
        <pt x="366" y="553" on="1"/>
        <pt x="339" y="486" on="0"/>
        <pt x="284" y="353" on="0"/>
        <pt x="256" y="285" on="1"/>
        <pt x="382" y="285" on="1"/>
        <pt x="380" y="353" on="0"/>
        <pt x="376" y="487" on="0"/>
        <pt x="374" y="553" on="1"/>
      </contour>
      <contour>
        <pt x="548" y="6" on="1"/>
        <pt x="442" y="-18" on="0"/>
        <pt x="352" y="-76" on="0"/>
        <pt x="352" y="-101" on="1"/>
        <pt x="352" y="-116" on="0"/>
        <pt x="377" y="-134" on="0"/>
        <pt x="405" y="-134" on="1"/>
        <pt x="422" y="-134" on="0"/>
        <pt x="465" y="-127" on="0"/>
        <pt x="494" y="-119" on="1"/>
        <pt x="509" y="-188" on="1"/>
        <pt x="454" y="-214" on="0"/>
        <pt x="365" y="-237" on="0"/>
        <pt x="330" y="-237" on="1"/>
        <pt x="271" y="-237" on="0"/>
        <pt x="213" y="-184" on="0"/>
        <pt x="213" y="-146" on="1"/>
        <pt x="213" y="-104" on="0"/>
        <pt x="293" y="-17" on="0"/>
        <pt x="388" y="23" on="1"/>
        <pt x="385" y="167" on="1"/>
        <pt x="209" y="167" on="1"/>
        <pt x="193" y="125" on="0"/>
        <pt x="161" y="42" on="0"/>
        <pt x="146" y="0" on="1"/>
        <pt x="-15" y="0" on="1"/>
        <pt x="56" y="173" on="0"/>
        <pt x="208" y="516" on="0"/>
        <pt x="288" y="688" on="1"/>
        <pt x="507" y="688" on="1"/>
        <pt x="518" y="518" on="0"/>
        <pt x="539" y="180" on="0"/>
      </contour>
    </TTGlyph>
    <TTGlyph name="Aring" xMin="-15" yMin="-6" xMax="585" yMax="984">
      <component glyphName="A" x="0" y="0" flags="0x204"/>
      <component glyphName="ring.cap" x="97" y="125" flags="0x4"/>
    </TTGlyph>
    <TTGlyph name="Aringacute" xMin="-15" yMin="-6" xMax="665" yMax="1271">
      <contour>
        <pt x="389" y="-6" on="1"/>
        <pt x="387" y="37" on="0"/>
        <pt x="386" y="123" on="0"/>
        <pt x="385" y="167" on="1"/>
        <pt x="209" y="167" on="1"/>
        <pt x="193" y="125" on="0"/>
        <pt x="161" y="42" on="0"/>
        <pt x="146" y="0" on="1"/>
        <pt x="-15" y="0" on="1"/>
        <pt x="56" y="173" on="0"/>
        <pt x="208" y="516" on="0"/>
        <pt x="288" y="688" on="1"/>
        <pt x="507" y="688" on="1"/>
        <pt x="518" y="518" on="0"/>
        <pt x="539" y="180" on="0"/>
        <pt x="548" y="6" on="1"/>
      </contour>
      <contour>
        <pt x="366" y="553" on="1"/>
        <pt x="339" y="486" on="0"/>
        <pt x="284" y="353" on="0"/>
        <pt x="256" y="285" on="1"/>
        <pt x="382" y="285" on="1"/>
        <pt x="380" y="353" on="0"/>
        <pt x="376" y="487" on="0"/>
        <pt x="374" y="553" on="1"/>
      </contour>
      <contour>
        <pt x="302" y="1085" on="1"/>
        <pt x="329" y="1099" on="0"/>
        <pt x="398" y="1143" on="0"/>
        <pt x="471" y="1193" on="0"/>
        <pt x="541" y="1247" on="0"/>
        <pt x="568" y="1271" on="1"/>
        <pt x="665" y="1153" on="1"/>
        <pt x="632" y="1132" on="0"/>
        <pt x="543" y="1090" on="0"/>
        <pt x="450" y="1055" on="0"/>
        <pt x="361" y="1027" on="0"/>
        <pt x="328" y="1020" on="1"/>
        <pt x="302" y="1085" on="1"/>
      </contour>
      <contour>
        <pt x="446" y="984" on="1"/>
        <pt x="478" y="984" on="0"/>
        <pt x="529" y="966" on="0"/>
        <pt x="565" y="936" on="0"/>
        <pt x="585" y="895" on="0"/>
        <pt x="585" y="872" on="1"/>
        <pt x="585" y="846" on="0"/>
        <pt x="561" y="798" on="0"/>
        <pt x="517" y="762" on="0"/>
        <pt x="456" y="741" on="0"/>
        <pt x="420" y="741" on="1"/>
        <pt x="388" y="741" on="0"/>
        <pt x="337" y="759" on="0"/>
        <pt x="302" y="790" on="0"/>
        <pt x="283" y="831" on="0"/>
        <pt x="283" y="854" on="1"/>
        <pt x="283" y="880" on="0"/>
        <pt x="307" y="927" on="0"/>
        <pt x="350" y="963" on="0"/>
        <pt x="410" y="984" on="0"/>
      </contour>
    </TTGlyph>
    <TTGlyph name="Atilde" xMin="-15" yMin="-6" xMax="678" yMax="962">
      <component glyphName="A" x="0" y="0" flags="0x204"/>
      <component glyphName="tilde.cap" x="103" y="125" flags="0x4"/>
    </TTGlyph>
    <TTGlyph name="B" xMin="37" yMin="-10" xMax="598" yMax="697">
      <contour>
        <pt x="561" y="219" on="1"/>
        <pt x="561" y="175" on="0"/>
        <pt x="520" y="93" on="0"/>
        <pt x="431" y="29" on="0"/>
        <pt x="290" y="-10" on="0"/>
        <pt x="190" y="-10" on="1"/>
        <pt x="155" y="-10" on="0"/>
        <pt x="79" y="-4" on="0"/>
        <pt x="37" y="1" on="1"/>
        <pt x="169" y="683" on="1"/>
        <pt x="216" y="690" on="0"/>
        <pt x="297" y="697" on="0"/>
        <pt x="332" y="697" on="1"/>
        <pt x="403" y="697" on="0"/>
        <pt x="504" y="672" on="0"/>
        <pt x="568" y="629" on="0"/>
        <pt x="598" y="570" on="0"/>
        <pt x="598" y="536" on="1"/>
        <pt x="598" y="480" on="0"/>
        <pt x="527" y="388" on="0"/>
        <pt x="461" y="358" on="1"/>
        <pt x="509" y="340" on="0"/>
        <pt x="561" y="267" on="0"/>
      </contour>
      <contour>
        <pt x="442" y="501" on="1"/>
        <pt x="442" y="534" on="0"/>
        <pt x="389" y="571" on="0"/>
        <pt x="338" y="571" on="1"/>
        <pt x="330" y="571" on="0"/>
        <pt x="314" y="570" on="0"/>
        <pt x="306" y="569" on="1"/>
        <pt x="270" y="382" on="1"/>
        <pt x="360" y="392" on="0"/>
        <pt x="442" y="459" on="0"/>
      </contour>
      <contour>
        <pt x="407" y="213" on="1"/>
        <pt x="407" y="251" on="0"/>
        <pt x="353" y="297" on="0"/>
        <pt x="295" y="297" on="1"/>
        <pt x="275" y="297" on="0"/>
        <pt x="253" y="294" on="1"/>
        <pt x="220" y="123" on="1"/>
        <pt x="234" y="121" on="0"/>
        <pt x="261" y="119" on="0"/>
        <pt x="273" y="119" on="1"/>
        <pt x="339" y="119" on="0"/>
        <pt x="407" y="172" on="0"/>
      </contour>
    </TTGlyph>
    <TTGlyph name="C" xMin="63" yMin="-15" xMax="600" yMax="703">
      <contour>
        <pt x="422" y="703" on="1"/>
        <pt x="518" y="703" on="0"/>
        <pt x="600" y="586" on="0"/>
        <pt x="600" y="465" on="1"/>
        <pt x="600" y="455" on="0"/>
        <pt x="600" y="435" on="0"/>
        <pt x="599" y="424" on="1"/>
        <pt x="449" y="422" on="1"/>
        <pt x="449" y="443" on="1"/>
        <pt x="449" y="508" on="0"/>
        <pt x="424" y="562" on="0"/>
        <pt x="389" y="562" on="1"/>
        <pt x="351" y="562" on="0"/>
        <pt x="290" y="509" on="0"/>
        <pt x="246" y="426" on="0"/>
        <pt x="222" y="325" on="0"/>
        <pt x="222" y="278" on="1"/>
        <pt x="222" y="203" on="0"/>
        <pt x="287" y="129" on="0"/>
        <pt x="360" y="129" on="1"/>
        <pt x="430" y="129" on="0"/>
        <pt x="536" y="163" on="1"/>
        <pt x="520" y="23" on="1"/>
        <pt x="461" y="3" on="0"/>
        <pt x="359" y="-15" on="0"/>
        <pt x="314" y="-15" on="1"/>
        <pt x="189" y="-15" on="0"/>
        <pt x="63" y="125" on="0"/>
        <pt x="63" y="254" on="1"/>
        <pt x="63" y="342" on="0"/>
        <pt x="120" y="505" on="0"/>
        <pt x="217" y="629" on="0"/>
        <pt x="348" y="703" on="0"/>
      </contour>
    </TTGlyph>
    <TTGlyph name="Cacute" xMin="63" yMin="-15" xMax="630" yMax="1014">
      <component glyphName="C" x="0" y="0" flags="0x204"/>
      <component glyphName="acute.cap" x="112" y="140" flags="0x4"/>
    </TTGlyph>
    <TTGlyph name="Ccaron" xMin="63" yMin="-15" xMax="676" yMax="998">
      <component glyphName="C" x="0" y="0" flags="0x204"/>
      <component glyphName="caron.cap" x="107" y="140" flags="0x4"/>
    </TTGlyph>
    <TTGlyph name="Ccedilla" xMin="63" yMin="-214" xMax="600" yMax="703">
      <contour>
        <pt x="299" y="-214" on="1"/>
        <pt x="300" y="-205" on="0"/>
        <pt x="300" y="-189" on="0"/>
        <pt x="300" y="-181" on="1"/>
        <pt x="300" y="-132" on="0"/>
        <pt x="284" y="-92" on="0"/>
        <pt x="268" y="-92" on="1"/>
        <pt x="248" y="-92" on="0"/>
        <pt x="204" y="-143" on="0"/>
        <pt x="181" y="-189" on="1"/>
        <pt x="105" y="-165" on="1"/>
        <pt x="157" y="-41" on="0"/>
        <pt x="221" y="-2" on="1"/>
        <pt x="143" y="21" on="0"/>
        <pt x="63" y="152" on="0"/>
        <pt x="63" y="254" on="1"/>
        <pt x="63" y="342" on="0"/>
        <pt x="120" y="505" on="0"/>
        <pt x="217" y="629" on="0"/>
        <pt x="348" y="703" on="0"/>
        <pt x="422" y="703" on="1"/>
        <pt x="518" y="703" on="0"/>
        <pt x="600" y="586" on="0"/>
        <pt x="600" y="465" on="1"/>
        <pt x="600" y="455" on="0"/>
        <pt x="600" y="435" on="0"/>
        <pt x="599" y="424" on="1"/>
        <pt x="449" y="422" on="1"/>
        <pt x="449" y="443" on="1"/>
        <pt x="449" y="508" on="0"/>
        <pt x="424" y="562" on="0"/>
        <pt x="389" y="562" on="1"/>
        <pt x="351" y="562" on="0"/>
        <pt x="290" y="509" on="0"/>
        <pt x="246" y="426" on="0"/>
        <pt x="222" y="325" on="0"/>
        <pt x="222" y="278" on="1"/>
        <pt x="222" y="203" on="0"/>
        <pt x="287" y="129" on="0"/>
        <pt x="360" y="129" on="1"/>
        <pt x="430" y="129" on="0"/>
        <pt x="536" y="163" on="1"/>
        <pt x="520" y="23" on="1"/>
        <pt x="434" y="-5" on="0"/>
        <pt x="366" y="-12" on="1"/>
        <pt x="395" y="-35" on="0"/>
        <pt x="431" y="-120" on="0"/>
        <pt x="431" y="-184" on="1"/>
        <pt x="431" y="-191" on="0"/>
        <pt x="431" y="-204" on="0"/>
        <pt x="430" y="-211" on="1"/>
      </contour>
    </TTGlyph>
    <TTGlyph name="Cdotaccent" xMin="63" yMin="-15" xMax="600" yMax="937">
      <component glyphName="dotaccent.cap" x="123" y="140" flags="0x204"/>
      <component glyphName="C" x="0" y="0" flags="0x4"/>
    </TTGlyph>
    <TTGlyph name="D" xMin="33" yMin="-7" xMax="600" yMax="696">
      <contour>
        <pt x="600" y="433" on="1"/>
        <pt x="600" y="348" on="0"/>
        <pt x="552" y="190" on="0"/>
        <pt x="444" y="67" on="0"/>
        <pt x="271" y="-7" on="0"/>
        <pt x="147" y="-7" on="1"/>
        <pt x="120" y="-7" on="0"/>
        <pt x="63" y="-3" on="0"/>
        <pt x="33" y="1" on="1"/>
        <pt x="165" y="684" on="1"/>
        <pt x="243" y="696" on="0"/>
        <pt x="308" y="696" on="1"/>
        <pt x="459" y="696" on="0"/>
        <pt x="600" y="564" on="0"/>
      </contour>
      <contour>
        <pt x="441" y="417" on="1"/>
        <pt x="441" y="489" on="0"/>
        <pt x="382" y="565" on="0"/>
        <pt x="317" y="565" on="1"/>
        <pt x="312" y="565" on="0"/>
        <pt x="305" y="564" on="0"/>
        <pt x="300" y="564" on="1"/>
        <pt x="215" y="126" on="1"/>
        <pt x="224" y="126" on="1"/>
        <pt x="278" y="126" on="0"/>
        <pt x="359" y="174" on="0"/>
        <pt x="413" y="255" on="0"/>
        <pt x="441" y="360" on="0"/>
      </contour>
    </TTGlyph>
    <TTGlyph name="Dcaron" xMin="33" yMin="-7" xMax="645" yMax="992">
      <component glyphName="caron.cap" x="76" y="134" flags="0x204"/>
      <component glyphName="D" x="0" y="0" flags="0x4"/>
    </TTGlyph>
    <TTGlyph name="Dcroat" xMin="28" yMin="-7" xMax="600" yMax="696">
      <contour>
        <pt x="600" y="433" on="1"/>
        <pt x="600" y="348" on="0"/>
        <pt x="552" y="190" on="0"/>
        <pt x="444" y="67" on="0"/>
        <pt x="271" y="-7" on="0"/>
        <pt x="147" y="-7" on="1"/>
        <pt x="120" y="-7" on="0"/>
        <pt x="63" y="-3" on="0"/>
        <pt x="33" y="1" on="1"/>
        <pt x="89" y="292" on="1"/>
        <pt x="28" y="292" on="1"/>
        <pt x="49" y="401" on="1"/>
        <pt x="110" y="401" on="1"/>
        <pt x="165" y="684" on="1"/>
        <pt x="243" y="696" on="0"/>
        <pt x="308" y="696" on="1"/>
        <pt x="459" y="696" on="0"/>
        <pt x="600" y="564" on="0"/>
      </contour>
      <contour>
        <pt x="247" y="292" on="1"/>
        <pt x="215" y="126" on="1"/>
        <pt x="224" y="126" on="1"/>
        <pt x="278" y="126" on="0"/>
        <pt x="359" y="174" on="0"/>
        <pt x="413" y="255" on="0"/>
        <pt x="441" y="360" on="0"/>
        <pt x="441" y="417" on="1"/>
        <pt x="441" y="489" on="0"/>
        <pt x="382" y="565" on="0"/>
        <pt x="317" y="565" on="1"/>
        <pt x="312" y="565" on="0"/>
        <pt x="305" y="564" on="0"/>
        <pt x="300" y="564" on="1"/>
        <pt x="268" y="401" on="1"/>
        <pt x="368" y="401" on="1"/>
        <pt x="340" y="292" on="1"/>
      </contour>
    </TTGlyph>
    <TTGlyph name="E" xMin="47" yMin="0" xMax="616" yMax="688">
      <contour>
        <pt x="479" y="0" on="1"/>
        <pt x="47" y="0" on="1"/>
        <pt x="180" y="688" on="1"/>
        <pt x="616" y="688" on="1"/>
        <pt x="591" y="555" on="1"/>
        <pt x="314" y="555" on="1"/>
        <pt x="284" y="402" on="1"/>
        <pt x="518" y="402" on="1"/>
        <pt x="494" y="286" on="1"/>
        <pt x="261" y="286" on="1"/>
        <pt x="231" y="133" on="1"/>
        <pt x="515" y="133" on="1"/>
      </contour>
    </TTGlyph>
    <TTGlyph name="Eacute" xMin="47" yMin="0" xMax="616" yMax="999">
      <component glyphName="acute.cap" x="97" y="125" flags="0x204"/>
      <component glyphName="E" x="0" y="0" flags="0x4"/>
    </TTGlyph>
    <TTGlyph name="Ebreve" xMin="47" yMin="0" xMax="676" yMax="976">
      <component glyphName="breve.cap" x="102" y="125" flags="0x204"/>
      <component glyphName="E" x="0" y="0" flags="0x4"/>
    </TTGlyph>
    <TTGlyph name="Ecaron" xMin="47" yMin="0" xMax="661" yMax="983">
      <component glyphName="caron.cap" x="92" y="125" flags="0x204"/>
      <component glyphName="E" x="0" y="0" flags="0x4"/>
    </TTGlyph>
    <TTGlyph name="Ecircumflex" xMin="47" yMin="0" xMax="645" yMax="986">
      <component glyphName="E" x="0" y="0" flags="0x204"/>
      <component glyphName="circumflex.cap" x="99" y="125" flags="0x4"/>
    </TTGlyph>
    <TTGlyph name="Edieresis" xMin="47" yMin="0" xMax="665" yMax="924">
      <component glyphName="dieresis.cap" x="94" y="125" flags="0x204"/>
      <component glyphName="E" x="0" y="0" flags="0x4"/>
    </TTGlyph>
    <TTGlyph name="Edotaccent" xMin="47" yMin="0" xMax="616" yMax="922">
      <component glyphName="dotaccent.cap" x="108" y="125" flags="0x204"/>
      <component glyphName="E" x="0" y="0" flags="0x4"/>
    </TTGlyph>
    <TTGlyph name="Egrave" xMin="47" yMin="0" xMax="616" yMax="1002">
      <component glyphName="grave.cap" x="115" y="125" flags="0x204"/>
      <component glyphName="E" x="0" y="0" flags="0x4"/>
    </TTGlyph>
    <TTGlyph name="Emacron" xMin="47" yMin="0" xMax="645" yMax="910">
      <component glyphName="macron.cap" x="105" y="125" flags="0x204"/>
      <component glyphName="E" x="0" y="0" flags="0x4"/>
    </TTGlyph>
    <TTGlyph name="Eogonek" xMin="47" yMin="-237" xMax="616" yMax="688">
      <contour>
        <pt x="479" y="0" on="1"/>
        <pt x="426" y="-11" on="0"/>
        <pt x="351" y="-37" on="0"/>
        <pt x="305" y="-64" on="0"/>
        <pt x="284" y="-90" on="0"/>
        <pt x="284" y="-102" on="1"/>
        <pt x="284" y="-117" on="0"/>
        <pt x="309" y="-135" on="0"/>
        <pt x="337" y="-135" on="1"/>
        <pt x="354" y="-135" on="0"/>
        <pt x="397" y="-128" on="0"/>
        <pt x="426" y="-120" on="1"/>
        <pt x="441" y="-189" on="1"/>
        <pt x="386" y="-215" on="0"/>
        <pt x="297" y="-237" on="0"/>
        <pt x="262" y="-237" on="1"/>
        <pt x="204" y="-237" on="0"/>
        <pt x="145" y="-186" on="0"/>
        <pt x="145" y="-148" on="1"/>
        <pt x="145" y="-112" on="0"/>
        <pt x="207" y="-36" on="0"/>
        <pt x="279" y="0" on="1"/>
        <pt x="47" y="0" on="1"/>
        <pt x="180" y="688" on="1"/>
        <pt x="616" y="688" on="1"/>
        <pt x="591" y="555" on="1"/>
        <pt x="314" y="555" on="1"/>
        <pt x="284" y="402" on="1"/>
        <pt x="518" y="402" on="1"/>
        <pt x="494" y="286" on="1"/>
        <pt x="261" y="286" on="1"/>
        <pt x="231" y="133" on="1"/>
        <pt x="515" y="133" on="1"/>
        <pt x="479" y="0" on="1"/>
      </contour>
    </TTGlyph>
    <TTGlyph name="Eth" xMin="28" yMin="-7" xMax="600" yMax="696">
      <contour>
        <pt x="600" y="433" on="1"/>
        <pt x="600" y="348" on="0"/>
        <pt x="552" y="190" on="0"/>
        <pt x="444" y="67" on="0"/>
        <pt x="271" y="-7" on="0"/>
        <pt x="147" y="-7" on="1"/>
        <pt x="120" y="-7" on="0"/>
        <pt x="63" y="-3" on="0"/>
        <pt x="33" y="1" on="1"/>
        <pt x="89" y="292" on="1"/>
        <pt x="28" y="292" on="1"/>
        <pt x="49" y="401" on="1"/>
        <pt x="110" y="401" on="1"/>
        <pt x="165" y="684" on="1"/>
        <pt x="243" y="696" on="0"/>
        <pt x="308" y="696" on="1"/>
        <pt x="459" y="696" on="0"/>
        <pt x="600" y="564" on="0"/>
      </contour>
      <contour>
        <pt x="247" y="292" on="1"/>
        <pt x="215" y="126" on="1"/>
        <pt x="224" y="126" on="1"/>
        <pt x="278" y="126" on="0"/>
        <pt x="359" y="174" on="0"/>
        <pt x="413" y="255" on="0"/>
        <pt x="441" y="360" on="0"/>
        <pt x="441" y="417" on="1"/>
        <pt x="441" y="489" on="0"/>
        <pt x="382" y="565" on="0"/>
        <pt x="317" y="565" on="1"/>
        <pt x="312" y="565" on="0"/>
        <pt x="305" y="564" on="0"/>
        <pt x="300" y="564" on="1"/>
        <pt x="268" y="401" on="1"/>
        <pt x="368" y="401" on="1"/>
        <pt x="340" y="292" on="1"/>
      </contour>
    </TTGlyph>
    <TTGlyph name="Euro" xMin="38" yMin="-14" xMax="641" yMax="704">
      <contour>
        <pt x="554" y="44" on="1"/>
        <pt x="488" y="14" on="0"/>
        <pt x="380" y="-14" on="0"/>
        <pt x="335" y="-14" on="1"/>
        <pt x="287" y="-14" on="0"/>
        <pt x="213" y="16" on="0"/>
        <pt x="162" y="70" on="0"/>
        <pt x="131" y="145" on="0"/>
        <pt x="125" y="189" on="1"/>
        <pt x="38" y="189" on="1"/>
        <pt x="60" y="297" on="1"/>
        <pt x="123" y="297" on="1"/>
        <pt x="125" y="314" on="0"/>
        <pt x="129" y="345" on="0"/>
        <pt x="133" y="361" on="1"/>
        <pt x="69" y="361" on="1"/>
        <pt x="91" y="470" on="1"/>
        <pt x="168" y="470" on="1"/>
        <pt x="191" y="521" on="0"/>
        <pt x="256" y="607" on="0"/>
        <pt x="335" y="669" on="0"/>
        <pt x="425" y="704" on="0"/>
        <pt x="474" y="704" on="1"/>
        <pt x="548" y="704" on="0"/>
        <pt x="630" y="622" on="0"/>
        <pt x="641" y="528" on="1"/>
        <pt x="504" y="505" on="1"/>
        <pt x="496" y="542" on="0"/>
        <pt x="467" y="575" on="0"/>
        <pt x="438" y="575" on="1"/>
        <pt x="396" y="575" on="0"/>
        <pt x="329" y="508" on="0"/>
        <pt x="306" y="457" on="1"/>
        <pt x="540" y="457" on="1"/>
        <pt x="515" y="361" on="1"/>
        <pt x="276" y="361" on="1"/>
        <pt x="272" y="346" on="0"/>
        <pt x="269" y="316" on="0"/>
        <pt x="267" y="301" on="1"/>
        <pt x="500" y="301" on="1"/>
        <pt x="477" y="204" on="1"/>
        <pt x="271" y="204" on="1"/>
        <pt x="281" y="158" on="0"/>
        <pt x="338" y="113" on="0"/>
        <pt x="397" y="113" on="1"/>
        <pt x="452" y="113" on="0"/>
        <pt x="542" y="134" on="1"/>
        <pt x="554" y="44" on="1"/>
      </contour>
    </TTGlyph>
    <TTGlyph name="F" xMin="51" yMin="0" xMax="630" yMax="688">
      <contour>
        <pt x="264" y="268" on="1"/>
        <pt x="212" y="0" on="1"/>
        <pt x="51" y="0" on="1"/>
        <pt x="185" y="688" on="1"/>
        <pt x="630" y="688" on="1"/>
        <pt x="605" y="553" on="1"/>
        <pt x="320" y="553" on="1"/>
        <pt x="288" y="390" on="1"/>
        <pt x="529" y="390" on="1"/>
        <pt x="504" y="268" on="1"/>
      </contour>
    </TTGlyph>
    <TTGlyph name="G" xMin="61" yMin="-120" xMax="591" yMax="703">
      <contour>
        <pt x="330" y="-120" on="1"/>
        <pt x="356" y="-3" on="1"/>
        <pt x="336" y="-7" on="0"/>
        <pt x="299" y="-10" on="0"/>
        <pt x="282" y="-10" on="1"/>
        <pt x="173" y="-10" on="0"/>
        <pt x="61" y="123" on="0"/>
        <pt x="61" y="243" on="1"/>
        <pt x="61" y="334" on="0"/>
        <pt x="116" y="500" on="0"/>
        <pt x="212" y="627" on="0"/>
        <pt x="341" y="703" on="0"/>
        <pt x="415" y="703" on="1"/>
        <pt x="508" y="703" on="0"/>
        <pt x="591" y="589" on="0"/>
        <pt x="591" y="471" on="1"/>
        <pt x="591" y="460" on="0"/>
        <pt x="591" y="437" on="0"/>
        <pt x="590" y="424" on="1"/>
        <pt x="440" y="422" on="1"/>
        <pt x="440" y="441" on="1"/>
        <pt x="440" y="504" on="0"/>
        <pt x="416" y="561" on="0"/>
        <pt x="383" y="561" on="1"/>
        <pt x="347" y="561" on="0"/>
        <pt x="288" y="507" on="0"/>
        <pt x="246" y="421" on="0"/>
        <pt x="222" y="316" on="0"/>
        <pt x="222" y="264" on="1"/>
        <pt x="222" y="196" on="0"/>
        <pt x="273" y="126" on="0"/>
        <pt x="327" y="126" on="1"/>
        <pt x="353" y="126" on="0"/>
        <pt x="388" y="135" on="1"/>
        <pt x="419" y="273" on="1"/>
        <pt x="569" y="278" on="1"/>
        <pt x="474" y="-118" on="1"/>
      </contour>
    </TTGlyph>
    <TTGlyph name="Gbreve" xMin="61" yMin="-120" xMax="686" yMax="991">
      <component glyphName="breve.cap" x="112" y="140" flags="0x204"/>
      <component glyphName="G" x="0" y="0" flags="0x4"/>
    </TTGlyph>
    <TTGlyph name="Gcommaaccent" xMin="61" yMin="-395" xMax="591" yMax="703">
      <component glyphName="G" x="0" y="0" flags="0x204"/>
      <component glyphName="commaaccent.cap" x="-60" y="-78" flags="0x4"/>
    </TTGlyph>
    <TTGlyph name="Gdotaccent" xMin="61" yMin="-120" xMax="591" yMax="937">
      <component glyphName="dotaccent.cap" x="118" y="140" flags="0x204"/>
      <component glyphName="G" x="0" y="0" flags="0x4"/>
    </TTGlyph>
    <TTGlyph name="H" xMin="27" yMin="0" xMax="640" yMax="688">
      <contour>
        <pt x="399" y="284" on="1"/>
        <pt x="244" y="284" on="1"/>
        <pt x="189" y="0" on="1"/>
        <pt x="27" y="0" on="1"/>
        <pt x="160" y="688" on="1"/>
        <pt x="322" y="688" on="1"/>
        <pt x="268" y="408" on="1"/>
        <pt x="423" y="408" on="1"/>
        <pt x="478" y="688" on="1"/>
        <pt x="640" y="688" on="1"/>
        <pt x="507" y="0" on="1"/>
        <pt x="344" y="0" on="1"/>
      </contour>
    </TTGlyph>
    <TTGlyph name="Hbar" xMin="27" yMin="0" xMax="682" yMax="688">
      <contour>
        <pt x="438" y="481" on="1"/>
        <pt x="282" y="481" on="1"/>
        <pt x="264" y="386" on="1"/>
        <pt x="419" y="386" on="1"/>
      </contour>
      <contour>
        <pt x="395" y="262" on="1"/>
        <pt x="240" y="262" on="1"/>
        <pt x="189" y="0" on="1"/>
        <pt x="27" y="0" on="1"/>
        <pt x="119" y="475" on="1"/>
        <pt x="56" y="475" on="1"/>
        <pt x="77" y="584" on="1"/>
        <pt x="140" y="584" on="1"/>
        <pt x="160" y="688" on="1"/>
        <pt x="322" y="688" on="1"/>
        <pt x="301" y="578" on="1"/>
        <pt x="457" y="578" on="1"/>
        <pt x="478" y="688" on="1"/>
        <pt x="640" y="688" on="1"/>
        <pt x="620" y="584" on="1"/>
        <pt x="682" y="584" on="1"/>
        <pt x="661" y="475" on="1"/>
        <pt x="599" y="475" on="1"/>
        <pt x="507" y="0" on="1"/>
        <pt x="344" y="0" on="1"/>
      </contour>
    </TTGlyph>
    <TTGlyph name="I" xMin="28" yMin="0" xMax="611" yMax="688">
      <contour>
        <pt x="510" y="125" on="1"/>
        <pt x="479" y="0" on="1"/>
        <pt x="28" y="0" on="1"/>
        <pt x="53" y="125" on="1"/>
        <pt x="198" y="125" on="1"/>
        <pt x="282" y="563" on="1"/>
        <pt x="136" y="563" on="1"/>
        <pt x="160" y="688" on="1"/>
        <pt x="611" y="688" on="1"/>
        <pt x="588" y="563" on="1"/>
        <pt x="442" y="563" on="1"/>
        <pt x="358" y="125" on="1"/>
      </contour>
    </TTGlyph>
    <TTGlyph name="Iacute" xMin="28" yMin="0" xMax="611" yMax="999">
      <component glyphName="I" x="0" y="0" flags="0x204"/>
      <component glyphName="acute.cap" x="84" y="125" flags="0x4"/>
    </TTGlyph>
    <TTGlyph name="Ibreve" xMin="28" yMin="0" xMax="664" yMax="976">
      <component glyphName="I" x="0" y="0" flags="0x204"/>
      <component glyphName="breve.cap" x="90" y="125" flags="0x4"/>
    </TTGlyph>
    <TTGlyph name="Icircumflex" xMin="28" yMin="0" xMax="633" yMax="986">
      <component glyphName="I" x="0" y="0" flags="0x204"/>
      <component glyphName="circumflex.cap" x="87" y="125" flags="0x4"/>
    </TTGlyph>
    <TTGlyph name="Idieresis" xMin="28" yMin="0" xMax="653" yMax="924">
      <component glyphName="I" x="0" y="0" flags="0x204"/>
      <component glyphName="dieresis.cap" x="82" y="125" flags="0x4"/>
    </TTGlyph>
    <TTGlyph name="Idotaccent" xMin="28" yMin="0" xMax="611" yMax="922">
      <component glyphName="I" x="0" y="0" flags="0x204"/>
      <component glyphName="dotaccent.cap" x="95" y="125" flags="0x4"/>
    </TTGlyph>
    <TTGlyph name="Igrave" xMin="28" yMin="0" xMax="611" yMax="1002">
      <component glyphName="I" x="0" y="0" flags="0x204"/>
      <component glyphName="grave.cap" x="103" y="125" flags="0x4"/>
    </TTGlyph>
    <TTGlyph name="Imacron" xMin="28" yMin="0" xMax="633" yMax="910">
      <component glyphName="I" x="0" y="0" flags="0x204"/>
      <component glyphName="macron.cap" x="93" y="125" flags="0x4"/>
    </TTGlyph>
    <TTGlyph name="Iogonek" xMin="28" yMin="-237" xMax="611" yMax="688">
      <contour>
        <pt x="370" y="-188" on="1"/>
        <pt x="315" y="-214" on="0"/>
        <pt x="227" y="-237" on="0"/>
        <pt x="192" y="-237" on="1"/>
        <pt x="134" y="-237" on="0"/>
        <pt x="75" y="-184" on="0"/>
        <pt x="75" y="-145" on="1"/>
        <pt x="75" y="-110" on="0"/>
        <pt x="126" y="-35" on="0"/>
        <pt x="183" y="0" on="1"/>
        <pt x="28" y="0" on="1"/>
        <pt x="53" y="125" on="1"/>
        <pt x="198" y="125" on="1"/>
        <pt x="282" y="563" on="1"/>
        <pt x="136" y="563" on="1"/>
        <pt x="160" y="688" on="1"/>
        <pt x="611" y="688" on="1"/>
        <pt x="588" y="563" on="1"/>
        <pt x="442" y="563" on="1"/>
        <pt x="358" y="125" on="1"/>
        <pt x="510" y="125" on="1"/>
        <pt x="479" y="0" on="1"/>
        <pt x="341" y="0" on="1"/>
        <pt x="272" y="-24" on="0"/>
        <pt x="213" y="-78" on="0"/>
        <pt x="213" y="-101" on="1"/>
        <pt x="213" y="-116" on="0"/>
        <pt x="238" y="-134" on="0"/>
        <pt x="266" y="-134" on="1"/>
        <pt x="283" y="-134" on="0"/>
        <pt x="327" y="-127" on="0"/>
        <pt x="356" y="-119" on="1"/>
        <pt x="370" y="-188" on="1"/>
      </contour>
    </TTGlyph>
    <TTGlyph name="J" xMin="28" yMin="-11" xMax="583" yMax="688">
      <contour>
        <pt x="425" y="61" on="1"/>
        <pt x="408" y="44" on="0"/>
        <pt x="355" y="17" on="0"/>
        <pt x="269" y="-1" on="0"/>
        <pt x="148" y="-11" on="0"/>
        <pt x="64" y="-11" on="1"/>
        <pt x="28" y="-11" on="1"/>
        <pt x="51" y="133" on="1"/>
        <pt x="82" y="132" on="0"/>
        <pt x="133" y="132" on="0"/>
        <pt x="155" y="132" on="1"/>
        <pt x="195" y="132" on="0"/>
        <pt x="246" y="134" on="0"/>
        <pt x="278" y="139" on="0"/>
        <pt x="295" y="147" on="0"/>
        <pt x="301" y="153" on="1"/>
        <pt x="307" y="159" on="0"/>
        <pt x="316" y="176" on="0"/>
        <pt x="326" y="212" on="0"/>
        <pt x="340" y="273" on="0"/>
        <pt x="350" y="323" on="1"/>
        <pt x="398" y="563" on="1"/>
        <pt x="191" y="563" on="1"/>
        <pt x="217" y="688" on="1"/>
        <pt x="583" y="688" on="1"/>
        <pt x="514" y="339" on="1"/>
        <pt x="499" y="259" on="0"/>
        <pt x="476" y="161" on="0"/>
        <pt x="456" y="102" on="0"/>
        <pt x="437" y="73" on="0"/>
      </contour>
    </TTGlyph>
    <TTGlyph name="K" xMin="31" yMin="-10" xMax="674" yMax="688">
      <contour>
        <pt x="263" y="343" on="1"/>
        <pt x="505" y="688" on="1"/>
        <pt x="674" y="688" on="1"/>
        <pt x="428" y="340" on="1"/>
        <pt x="562" y="10" on="1"/>
        <pt x="394" y="-10" on="1"/>
      </contour>
      <contour>
        <pt x="323" y="688" on="1"/>
        <pt x="190" y="0" on="1"/>
        <pt x="31" y="0" on="1"/>
        <pt x="165" y="688" on="1"/>
      </contour>
    </TTGlyph>
    <TTGlyph name="Kcommaaccent" xMin="31" yMin="-327" xMax="674" yMax="688">
      <component glyphName="K" x="0" y="0" flags="0x204"/>
      <component glyphName="commaaccent.cap" x="-26" y="-10" flags="0x4"/>
    </TTGlyph>
    <TTGlyph name="L" xMin="55" yMin="0" xMax="535" yMax="688">
      <contour>
        <pt x="55" y="0" on="1"/>
        <pt x="188" y="688" on="1"/>
        <pt x="350" y="688" on="1"/>
        <pt x="243" y="135" on="1"/>
        <pt x="535" y="135" on="1"/>
        <pt x="509" y="0" on="1"/>
      </contour>
    </TTGlyph>
    <TTGlyph name="Lacute" xMin="55" yMin="0" xMax="628" yMax="999">
      <component glyphName="acute.cap" x="110" y="125" flags="0x204"/>
      <component glyphName="L" x="0" y="0" flags="0x4"/>
    </TTGlyph>
    <TTGlyph name="Lcaron" xMin="55" yMin="0" xMax="672" yMax="780">
      <component glyphName="L" x="0" y="0" flags="0x204"/>
      <component glyphName="caron.alt" x="189" y="-115" flags="0x4"/>
    </TTGlyph>
    <TTGlyph name="Lcommaaccent" xMin="55" yMin="-317" xMax="535" yMax="688">
      <component glyphName="L" x="0" y="0" flags="0x204"/>
      <component glyphName="commaaccent.cap" x="-39" y="0" flags="0x4"/>
    </TTGlyph>
    <TTGlyph name="Ldot" xMin="55" yMin="0" xMax="604" yMax="688">
      <contour>
        <pt x="55" y="0" on="1"/>
        <pt x="188" y="688" on="1"/>
        <pt x="350" y="688" on="1"/>
        <pt x="243" y="135" on="1"/>
        <pt x="535" y="135" on="1"/>
        <pt x="509" y="0" on="1"/>
      </contour>
      <contour>
        <pt x="418" y="283" on="1"/>
        <pt x="459" y="447" on="1"/>
        <pt x="604" y="447" on="1"/>
        <pt x="564" y="283" on="1"/>
      </contour>
    </TTGlyph>
    <TTGlyph name="Lslash" xMin="67" yMin="0" xMax="557" yMax="688">
      <contour>
        <pt x="77" y="0" on="1"/>
        <pt x="133" y="291" on="1"/>
        <pt x="70" y="262" on="1"/>
        <pt x="67" y="366" on="1"/>
        <pt x="156" y="406" on="1"/>
        <pt x="210" y="688" on="1"/>
        <pt x="372" y="688" on="1"/>
        <pt x="333" y="487" on="1"/>
        <pt x="445" y="538" on="1"/>
        <pt x="449" y="434" on="1"/>
        <pt x="311" y="371" on="1"/>
        <pt x="265" y="135" on="1"/>
        <pt x="557" y="135" on="1"/>
        <pt x="531" y="0" on="1"/>
      </contour>
    </TTGlyph>
    <TTGlyph name="M" xMin="25" yMin="0" xMax="651" yMax="692">
      <contour>
        <pt x="333" y="343" on="1"/>
        <pt x="337" y="343" on="1"/>
        <pt x="492" y="688" on="1"/>
        <pt x="651" y="688" on="1"/>
        <pt x="519" y="0" on="1"/>
        <pt x="369" y="0" on="1"/>
        <pt x="449" y="395" on="1"/>
        <pt x="445" y="395" on="1"/>
        <pt x="337" y="154" on="1"/>
        <pt x="260" y="154" on="1"/>
        <pt x="241" y="395" on="1"/>
        <pt x="238" y="395" on="1"/>
        <pt x="171" y="0" on="1"/>
        <pt x="25" y="0" on="1"/>
        <pt x="157" y="685" on="1"/>
        <pt x="307" y="692" on="1"/>
      </contour>
    </TTGlyph>
    <TTGlyph name="N" xMin="28" yMin="0" xMax="643" yMax="690">
      <contour>
        <pt x="255" y="394" on="1"/>
        <pt x="249" y="394" on="1"/>
        <pt x="178" y="0" on="1"/>
        <pt x="28" y="0" on="1"/>
        <pt x="162" y="686" on="1"/>
        <pt x="306" y="690" on="1"/>
        <pt x="417" y="294" on="1"/>
        <pt x="421" y="294" on="1"/>
        <pt x="493" y="688" on="1"/>
        <pt x="643" y="688" on="1"/>
        <pt x="509" y="0" on="1"/>
        <pt x="377" y="0" on="1"/>
      </contour>
    </TTGlyph>
    <TTGlyph name="Nacute" xMin="28" yMin="0" xMax="643" yMax="1002">
      <component glyphName="acute.cap" x="98" y="128" flags="0x204"/>
      <component glyphName="N" x="0" y="0" flags="0x4"/>
    </TTGlyph>
    <TTGlyph name="Ncaron" xMin="28" yMin="0" xMax="663" yMax="986">
      <component glyphName="caron.cap" x="94" y="128" flags="0x204"/>
      <component glyphName="N" x="0" y="0" flags="0x4"/>
    </TTGlyph>
    <TTGlyph name="Ncommaaccent" xMin="28" yMin="-317" xMax="643" yMax="690">
      <component glyphName="commaaccent.cap" x="-51" y="0" flags="0x204"/>
      <component glyphName="N" x="0" y="0" flags="0x4"/>
    </TTGlyph>
    <TTGlyph name="Ntilde" xMin="28" yMin="0" xMax="682" yMax="965">
      <component glyphName="tilde.cap" x="107" y="128" flags="0x204"/>
      <component glyphName="N" x="0" y="0" flags="0x4"/>
    </TTGlyph>
    <TTGlyph name="O" xMin="55" yMin="-14" xMax="611" yMax="702">
      <contour>
        <pt x="611" y="438" on="1"/>
        <pt x="611" y="348" on="0"/>
        <pt x="562" y="184" on="0"/>
        <pt x="474" y="60" on="0"/>
        <pt x="352" y="-14" on="0"/>
        <pt x="279" y="-14" on="1"/>
        <pt x="231" y="-14" on="0"/>
        <pt x="149" y="15" on="0"/>
        <pt x="89" y="79" on="0"/>
        <pt x="55" y="178" on="0"/>
        <pt x="55" y="249" on="1"/>
        <pt x="55" y="339" on="0"/>
        <pt x="104" y="504" on="0"/>
        <pt x="191" y="628" on="0"/>
        <pt x="313" y="702" on="0"/>
        <pt x="387" y="702" on="1"/>
        <pt x="435" y="702" on="0"/>
        <pt x="517" y="672" on="0"/>
        <pt x="577" y="609" on="0"/>
        <pt x="611" y="508" on="0"/>
      </contour>
      <contour>
        <pt x="222" y="254" on="1"/>
        <pt x="222" y="183" on="0"/>
        <pt x="262" y="122" on="0"/>
        <pt x="296" y="122" on="1"/>
        <pt x="330" y="122" on="0"/>
        <pt x="384" y="177" on="0"/>
        <pt x="422" y="265" on="0"/>
        <pt x="443" y="377" on="0"/>
        <pt x="443" y="433" on="1"/>
        <pt x="443" y="504" on="0"/>
        <pt x="403" y="565" on="0"/>
        <pt x="370" y="565" on="1"/>
        <pt x="336" y="565" on="0"/>
        <pt x="282" y="510" on="0"/>
        <pt x="243" y="421" on="0"/>
        <pt x="222" y="310" on="0"/>
      </contour>
    </TTGlyph>
    <TTGlyph name="OE" xMin="44" yMin="0" xMax="675" yMax="688">
      <contour>
        <pt x="203" y="245" on="1"/>
        <pt x="203" y="222" on="0"/>
        <pt x="209" y="181" on="0"/>
        <pt x="224" y="148" on="0"/>
        <pt x="250" y="129" on="0"/>
        <pt x="271" y="129" on="1"/>
        <pt x="353" y="559" on="1"/>
        <pt x="327" y="557" on="0"/>
        <pt x="284" y="524" on="0"/>
        <pt x="251" y="471" on="0"/>
        <pt x="226" y="404" on="0"/>
        <pt x="211" y="336" on="0"/>
        <pt x="203" y="270" on="0"/>
      </contour>
      <contour>
        <pt x="540" y="0" on="1"/>
        <pt x="294" y="0" on="1"/>
        <pt x="236" y="0" on="0"/>
        <pt x="143" y="26" on="0"/>
        <pt x="79" y="83" on="0"/>
        <pt x="44" y="175" on="0"/>
        <pt x="44" y="241" on="1"/>
        <pt x="44" y="289" on="0"/>
        <pt x="61" y="393" on="0"/>
        <pt x="99" y="493" on="0"/>
        <pt x="161" y="582" on="0"/>
        <pt x="249" y="649" on="0"/>
        <pt x="367" y="688" on="0"/>
        <pt x="443" y="688" on="1"/>
        <pt x="675" y="688" on="1"/>
        <pt x="651" y="559" on="1"/>
        <pt x="487" y="559" on="1"/>
        <pt x="456" y="398" on="1"/>
        <pt x="584" y="398" on="1"/>
        <pt x="563" y="292" on="1"/>
        <pt x="436" y="292" on="1"/>
        <pt x="405" y="129" on="1"/>
        <pt x="573" y="129" on="1"/>
      </contour>
    </TTGlyph>
    <TTGlyph name="Oacute" xMin="55" yMin="-14" xMax="615" yMax="1015">
      <component glyphName="acute.cap" x="97" y="141" flags="0x204"/>
      <component glyphName="O" x="0" y="0" flags="0x4"/>
    </TTGlyph>
    <TTGlyph name="Obreve" xMin="55" yMin="-14" xMax="677" yMax="992">
      <component glyphName="breve.cap" x="103" y="141" flags="0x204"/>
      <component glyphName="O" x="0" y="0" flags="0x4"/>
    </TTGlyph>
    <TTGlyph name="Ocircumflex" xMin="55" yMin="-14" xMax="646" yMax="1002">
      <component glyphName="O" x="0" y="0" flags="0x204"/>
      <component glyphName="circumflex.cap" x="100" y="141" flags="0x4"/>
    </TTGlyph>
    <TTGlyph name="Odieresis" xMin="55" yMin="-14" xMax="666" yMax="940">
      <component glyphName="dieresis.cap" x="95" y="141" flags="0x204"/>
      <component glyphName="O" x="0" y="0" flags="0x4"/>
    </TTGlyph>
    <TTGlyph name="Ograve" xMin="55" yMin="-14" xMax="611" yMax="1018">
      <component glyphName="grave.cap" x="116" y="141" flags="0x204"/>
      <component glyphName="O" x="0" y="0" flags="0x4"/>
    </TTGlyph>
    <TTGlyph name="Ohungarumlaut" xMin="55" yMin="-14" xMax="746" yMax="1041">
      <component glyphName="O" x="0" y="0" flags="0x204"/>
      <component glyphName="hungarumlaut.cap" x="72" y="141" flags="0x4"/>
    </TTGlyph>
    <TTGlyph name="Omacron" xMin="55" yMin="-14" xMax="646" yMax="926">
      <component glyphName="macron.cap" x="106" y="141" flags="0x204"/>
      <component glyphName="O" x="0" y="0" flags="0x4"/>
    </TTGlyph>
    <TTGlyph name="Omega" xMin="7" yMin="0" xMax="594" yMax="705">
      <contour>
        <pt x="229" y="0" on="1"/>
        <pt x="7" y="0" on="1"/>
        <pt x="31" y="125" on="1"/>
        <pt x="108" y="125" on="1"/>
        <pt x="100" y="166" on="0"/>
        <pt x="91" y="251" on="0"/>
        <pt x="91" y="303" on="1"/>
        <pt x="91" y="383" on="0"/>
        <pt x="124" y="529" on="0"/>
        <pt x="195" y="640" on="0"/>
        <pt x="307" y="705" on="0"/>
        <pt x="386" y="705" on="1"/>
        <pt x="488" y="705" on="0"/>
        <pt x="594" y="584" on="0"/>
        <pt x="594" y="481" on="1"/>
        <pt x="594" y="400" on="0"/>
        <pt x="532" y="229" on="0"/>
        <pt x="472" y="125" on="1"/>
        <pt x="545" y="125" on="1"/>
        <pt x="521" y="0" on="1"/>
        <pt x="299" y="0" on="1"/>
        <pt x="298" y="9" on="1"/>
        <pt x="334" y="90" on="0"/>
        <pt x="386" y="222" on="0"/>
        <pt x="421" y="331" on="0"/>
        <pt x="437" y="420" on="0"/>
        <pt x="437" y="458" on="1"/>
        <pt x="437" y="569" on="0"/>
        <pt x="358" y="569" on="1"/>
        <pt x="322" y="569" on="0"/>
        <pt x="272" y="516" on="0"/>
        <pt x="241" y="429" on="0"/>
        <pt x="227" y="314" on="0"/>
        <pt x="227" y="253" on="1"/>
        <pt x="227" y="192" on="0"/>
        <pt x="228" y="114" on="0"/>
        <pt x="230" y="62" on="0"/>
        <pt x="232" y="27" on="0"/>
        <pt x="233" y="9" on="1"/>
      </contour>
    </TTGlyph>
    <TTGlyph name="Oslash" xMin="21" yMin="-57" xMax="641" yMax="745">
      <contour>
        <pt x="364" y="571" on="1"/>
        <pt x="332" y="571" on="0"/>
        <pt x="280" y="519" on="0"/>
        <pt x="243" y="433" on="0"/>
        <pt x="223" y="323" on="0"/>
        <pt x="223" y="265" on="1"/>
        <pt x="223" y="259" on="1"/>
        <pt x="420" y="539" on="1"/>
        <pt x="400" y="571" on="0"/>
      </contour>
      <contour>
        <pt x="301" y="118" on="1"/>
        <pt x="334" y="118" on="0"/>
        <pt x="386" y="171" on="0"/>
        <pt x="423" y="259" on="0"/>
        <pt x="442" y="373" on="0"/>
        <pt x="442" y="433" on="1"/>
        <pt x="442" y="434" on="1"/>
        <pt x="243" y="153" on="1"/>
        <pt x="262" y="118" on="0"/>
      </contour>
      <contour>
        <pt x="283" y="-16" on="1"/>
        <pt x="212" y="-16" on="0"/>
        <pt x="162" y="15" on="1"/>
        <pt x="110" y="-57" on="1"/>
        <pt x="21" y="0" on="1"/>
        <pt x="90" y="96" on="1"/>
        <pt x="58" y="160" on="0"/>
        <pt x="58" y="260" on="1"/>
        <pt x="58" y="351" on="0"/>
        <pt x="106" y="513" on="0"/>
        <pt x="192" y="634" on="0"/>
        <pt x="311" y="704" on="0"/>
        <pt x="382" y="704" on="1"/>
        <pt x="451" y="704" on="0"/>
        <pt x="502" y="674" on="1"/>
        <pt x="551" y="745" on="1"/>
        <pt x="641" y="688" on="1"/>
        <pt x="574" y="595" on="1"/>
        <pt x="608" y="529" on="0"/>
        <pt x="608" y="428" on="1"/>
        <pt x="608" y="337" on="0"/>
        <pt x="560" y="175" on="0"/>
        <pt x="473" y="54" on="0"/>
        <pt x="354" y="-16" on="0"/>
      </contour>
    </TTGlyph>
    <TTGlyph name="Oslashacute" xMin="21" yMin="-57" xMax="641" yMax="1015">
      <component glyphName="Oslash" x="0" y="0" flags="0x204"/>
      <component glyphName="acute.cap" x="97" y="141" flags="0x4"/>
    </TTGlyph>
    <TTGlyph name="Otilde" xMin="55" yMin="-14" xMax="681" yMax="978">
      <component glyphName="tilde.cap" x="106" y="141" flags="0x204"/>
      <component glyphName="O" x="0" y="0" flags="0x4"/>
    </TTGlyph>
    <TTGlyph name="P" xMin="40" yMin="0" xMax="616" yMax="696">
      <contour>
        <pt x="40" y="0" on="1"/>
        <pt x="172" y="684" on="1"/>
        <pt x="256" y="696" on="0"/>
        <pt x="323" y="696" on="1"/>
        <pt x="401" y="696" on="0"/>
        <pt x="512" y="666" on="0"/>
        <pt x="583" y="613" on="0"/>
        <pt x="616" y="539" on="0"/>
        <pt x="616" y="496" on="1"/>
        <pt x="616" y="435" on="0"/>
        <pt x="564" y="332" on="0"/>
        <pt x="466" y="253" on="0"/>
        <pt x="325" y="199" on="0"/>
        <pt x="235" y="187" on="1"/>
        <pt x="199" y="0" on="1"/>
      </contour>
      <contour>
        <pt x="461" y="468" on="1"/>
        <pt x="461" y="514" on="0"/>
        <pt x="402" y="566" on="0"/>
        <pt x="347" y="566" on="1"/>
        <pt x="329" y="566" on="0"/>
        <pt x="308" y="563" on="1"/>
        <pt x="262" y="326" on="1"/>
        <pt x="281" y="323" on="0"/>
        <pt x="299" y="323" on="1"/>
        <pt x="338" y="323" on="0"/>
        <pt x="399" y="346" on="0"/>
        <pt x="440" y="386" on="0"/>
        <pt x="461" y="438" on="0"/>
      </contour>
    </TTGlyph>
    <TTGlyph name="Q" xMin="70" yMin="-175" xMax="610" yMax="704">
      <contour>
        <pt x="108" y="-29" on="1"/>
        <pt x="147" y="88" on="1"/>
        <pt x="216" y="112" on="0"/>
        <pt x="326" y="194" on="0"/>
        <pt x="403" y="294" on="0"/>
        <pt x="444" y="407" on="0"/>
        <pt x="444" y="462" on="1"/>
        <pt x="444" y="520" on="0"/>
        <pt x="399" y="567" on="0"/>
        <pt x="362" y="567" on="1"/>
        <pt x="331" y="567" on="0"/>
        <pt x="282" y="533" on="0"/>
        <pt x="248" y="470" on="0"/>
        <pt x="230" y="381" on="0"/>
        <pt x="230" y="326" on="1"/>
        <pt x="230" y="273" on="0"/>
        <pt x="239" y="213" on="1"/>
        <pt x="100" y="163" on="1"/>
        <pt x="85" y="205" on="0"/>
        <pt x="70" y="290" on="0"/>
        <pt x="70" y="332" on="1"/>
        <pt x="70" y="405" on="0"/>
        <pt x="112" y="539" on="0"/>
        <pt x="192" y="642" on="0"/>
        <pt x="308" y="704" on="0"/>
        <pt x="381" y="704" on="1"/>
        <pt x="439" y="704" on="0"/>
        <pt x="525" y="669" on="0"/>
        <pt x="582" y="606" on="0"/>
        <pt x="610" y="519" on="0"/>
        <pt x="610" y="466" on="1"/>
        <pt x="610" y="400" on="0"/>
        <pt x="563" y="274" on="0"/>
        <pt x="482" y="163" on="0"/>
        <pt x="372" y="71" on="0"/>
        <pt x="309" y="38" on="1"/>
        <pt x="518" y="-48" on="1"/>
        <pt x="454" y="-175" on="1"/>
      </contour>
    </TTGlyph>
    <TTGlyph name="R" xMin="35" yMin="-11" xMax="595" yMax="696">
      <contour>
        <pt x="272" y="311" on="1"/>
        <pt x="272" y="312" on="1"/>
        <pt x="319" y="334" on="0"/>
        <pt x="382" y="378" on="0"/>
        <pt x="419" y="421" on="0"/>
        <pt x="435" y="464" on="0"/>
        <pt x="435" y="487" on="1"/>
        <pt x="435" y="564" on="0"/>
        <pt x="336" y="564" on="1"/>
        <pt x="328" y="564" on="0"/>
        <pt x="310" y="564" on="0"/>
        <pt x="300" y="562" on="1"/>
        <pt x="192" y="0" on="1"/>
        <pt x="35" y="0" on="1"/>
        <pt x="167" y="684" on="1"/>
        <pt x="255" y="696" on="0"/>
        <pt x="323" y="696" on="1"/>
        <pt x="400" y="696" on="0"/>
        <pt x="504" y="669" on="0"/>
        <pt x="568" y="621" on="0"/>
        <pt x="595" y="557" on="0"/>
        <pt x="595" y="521" on="1"/>
        <pt x="595" y="449" on="0"/>
        <pt x="510" y="334" on="0"/>
        <pt x="443" y="291" on="1"/>
        <pt x="558" y="11" on="1"/>
        <pt x="384" y="-11" on="1"/>
      </contour>
    </TTGlyph>
    <TTGlyph name="R_p" xMin="-6" yMin="-193" xMax="654" yMax="695">
      <contour>
        <pt x="157" y="232" on="1"/>
        <pt x="152" y="232" on="1"/>
        <pt x="105" y="0" on="1"/>
        <pt x="-6" y="0" on="1"/>
        <pt x="128" y="689" on="1"/>
        <pt x="173" y="695" on="0"/>
        <pt x="209" y="695" on="1"/>
        <pt x="297" y="695" on="0"/>
        <pt x="372" y="624" on="0"/>
        <pt x="372" y="558" on="1"/>
        <pt x="372" y="486" on="0"/>
        <pt x="307" y="351" on="0"/>
        <pt x="261" y="301" on="1"/>
        <pt x="283" y="8" on="1"/>
        <pt x="166" y="-7" on="1"/>
      </contour>
      <contour>
        <pt x="280" y="-193" on="1"/>
        <pt x="423" y="557" on="1"/>
        <pt x="525" y="565" on="1"/>
        <pt x="519" y="521" on="1"/>
        <pt x="536" y="544" on="0"/>
        <pt x="582" y="577" on="0"/>
        <pt x="603" y="577" on="1"/>
        <pt x="630" y="577" on="0"/>
        <pt x="654" y="516" on="0"/>
        <pt x="654" y="451" on="1"/>
        <pt x="654" y="406" on="0"/>
        <pt x="641" y="302" on="0"/>
        <pt x="615" y="199" on="0"/>
        <pt x="579" y="104" on="0"/>
        <pt x="532" y="31" on="0"/>
        <pt x="476" y="-13" on="0"/>
        <pt x="444" y="-13" on="1"/>
        <pt x="439" y="-13" on="0"/>
        <pt x="429" y="-12" on="0"/>
        <pt x="424" y="-11" on="1"/>
        <pt x="391" y="-182" on="1"/>
      </contour>
    </TTGlyph>
    <TTGlyph name="Racute" xMin="35" yMin="-11" xMax="596" yMax="1007">
      <component glyphName="R" x="0" y="0" flags="0x204"/>
      <component glyphName="acute.cap" x="78" y="133" flags="0x4"/>
    </TTGlyph>
    <TTGlyph name="Rcaron" xMin="35" yMin="-11" xMax="643" yMax="991">
      <component glyphName="caron.cap" x="74" y="133" flags="0x204"/>
      <component glyphName="R" x="0" y="0" flags="0x4"/>
    </TTGlyph>
    <TTGlyph name="Rcommaaccent" xMin="35" yMin="-328" xMax="595" yMax="696">
      <component glyphName="R" x="0" y="0" flags="0x204"/>
      <component glyphName="commaaccent.cap" x="-43" y="-11" flags="0x4"/>
    </TTGlyph>
    <TTGlyph name="S" xMin="36" yMin="-11" xMax="598" yMax="702">
      <contour>
        <pt x="461" y="472" on="1"/>
        <pt x="446" y="526" on="0"/>
        <pt x="395" y="568" on="0"/>
        <pt x="357" y="568" on="1"/>
        <pt x="322" y="568" on="0"/>
        <pt x="277" y="532" on="0"/>
        <pt x="277" y="503" on="1"/>
        <pt x="277" y="478" on="0"/>
        <pt x="316" y="431" on="0"/>
        <pt x="374" y="384" on="0"/>
        <pt x="443" y="335" on="0"/>
        <pt x="501" y="279" on="0"/>
        <pt x="540" y="214" on="0"/>
        <pt x="540" y="176" on="1"/>
        <pt x="540" y="141" on="0"/>
        <pt x="505" y="74" on="0"/>
        <pt x="430" y="22" on="0"/>
        <pt x="314" y="-11" on="0"/>
        <pt x="232" y="-11" on="1"/>
        <pt x="147" y="-11" on="0"/>
        <pt x="36" y="10" on="1"/>
        <pt x="67" y="164" on="1"/>
        <pt x="140" y="143" on="0"/>
        <pt x="246" y="125" on="0"/>
        <pt x="282" y="125" on="1"/>
        <pt x="330" y="125" on="0"/>
        <pt x="372" y="151" on="0"/>
        <pt x="372" y="171" on="1"/>
        <pt x="372" y="192" on="0"/>
        <pt x="334" y="232" on="0"/>
        <pt x="277" y="275" on="0"/>
        <pt x="210" y="322" on="0"/>
        <pt x="153" y="378" on="0"/>
        <pt x="115" y="444" on="0"/>
        <pt x="115" y="484" on="1"/>
        <pt x="115" y="527" on="0"/>
        <pt x="154" y="606" on="0"/>
        <pt x="224" y="666" on="0"/>
        <pt x="324" y="702" on="0"/>
        <pt x="386" y="702" on="1"/>
        <pt x="483" y="702" on="0"/>
        <pt x="580" y="597" on="0"/>
        <pt x="598" y="500" on="1"/>
      </contour>
    </TTGlyph>
    <TTGlyph name="Sacute" xMin="36" yMin="-11" xMax="634" yMax="1013">
      <component glyphName="S" x="0" y="0" flags="0x204"/>
      <component glyphName="acute.cap" x="116" y="139" flags="0x4"/>
    </TTGlyph>
    <TTGlyph name="Scaron" xMin="36" yMin="-11" xMax="681" yMax="997">
      <component glyphName="S" x="0" y="0" flags="0x204"/>
      <component glyphName="caron.cap" x="112" y="139" flags="0x4"/>
    </TTGlyph>
    <TTGlyph name="Scedilla" xMin="36" yMin="-213" xMax="598" yMax="702">
      <contour>
        <pt x="266" y="-213" on="1"/>
        <pt x="267" y="-204" on="0"/>
        <pt x="267" y="-188" on="0"/>
        <pt x="267" y="-180" on="1"/>
        <pt x="267" y="-131" on="0"/>
        <pt x="251" y="-91" on="0"/>
        <pt x="235" y="-91" on="1"/>
        <pt x="215" y="-91" on="0"/>
        <pt x="171" y="-142" on="0"/>
        <pt x="148" y="-188" on="1"/>
        <pt x="72" y="-164" on="1"/>
        <pt x="120" y="-48" on="0"/>
        <pt x="177" y="-9" on="1"/>
        <pt x="145" y="-7" on="0"/>
        <pt x="74" y="2" on="0"/>
        <pt x="36" y="10" on="1"/>
        <pt x="67" y="164" on="1"/>
        <pt x="140" y="143" on="0"/>
        <pt x="246" y="125" on="0"/>
        <pt x="282" y="125" on="1"/>
        <pt x="330" y="125" on="0"/>
        <pt x="372" y="151" on="0"/>
        <pt x="372" y="171" on="1"/>
        <pt x="372" y="192" on="0"/>
        <pt x="334" y="232" on="0"/>
        <pt x="277" y="275" on="0"/>
        <pt x="210" y="322" on="0"/>
        <pt x="153" y="378" on="0"/>
        <pt x="115" y="444" on="0"/>
        <pt x="115" y="484" on="1"/>
        <pt x="115" y="527" on="0"/>
        <pt x="154" y="606" on="0"/>
        <pt x="224" y="666" on="0"/>
        <pt x="324" y="702" on="0"/>
        <pt x="386" y="702" on="1"/>
        <pt x="483" y="702" on="0"/>
        <pt x="580" y="597" on="0"/>
        <pt x="598" y="500" on="1"/>
        <pt x="461" y="472" on="1"/>
        <pt x="446" y="526" on="0"/>
        <pt x="395" y="568" on="0"/>
        <pt x="357" y="568" on="1"/>
        <pt x="322" y="568" on="0"/>
        <pt x="277" y="532" on="0"/>
        <pt x="277" y="503" on="1"/>
        <pt x="277" y="478" on="0"/>
        <pt x="316" y="431" on="0"/>
        <pt x="374" y="384" on="0"/>
        <pt x="443" y="335" on="0"/>
        <pt x="501" y="279" on="0"/>
        <pt x="540" y="214" on="0"/>
        <pt x="540" y="176" on="1"/>
        <pt x="540" y="147" on="0"/>
        <pt x="515" y="89" on="0"/>
        <pt x="462" y="41" on="0"/>
        <pt x="381" y="4" on="0"/>
        <pt x="324" y="-4" on="1"/>
        <pt x="357" y="-26" on="0"/>
        <pt x="398" y="-115" on="0"/>
        <pt x="398" y="-184" on="1"/>
        <pt x="398" y="-191" on="0"/>
        <pt x="397" y="-203" on="0"/>
        <pt x="397" y="-210" on="1"/>
        <pt x="266" y="-213" on="1"/>
      </contour>
    </TTGlyph>
    <TTGlyph name="Scommaaccent" xMin="36" yMin="-328" xMax="598" yMax="702">
      <component glyphName="S" x="0" y="0" flags="0x204"/>
      <component glyphName="commaaccent.cap" x="-55" y="-11" flags="0x4"/>
    </TTGlyph>
    <TTGlyph name="T" xMin="102" yMin="0" xMax="654" yMax="688">
      <contour>
        <pt x="339" y="0" on="1"/>
        <pt x="177" y="0" on="1"/>
        <pt x="283" y="553" on="1"/>
        <pt x="102" y="553" on="1"/>
        <pt x="129" y="688" on="1"/>
        <pt x="654" y="688" on="1"/>
        <pt x="627" y="553" on="1"/>
        <pt x="445" y="553" on="1"/>
      </contour>
    </TTGlyph>
    <TTGlyph name="Tcaron" xMin="102" yMin="0" xMax="654" yMax="983">
      <component glyphName="caron.cap" x="82" y="125" flags="0x204"/>
      <component glyphName="T" x="0" y="0" flags="0x4"/>
    </TTGlyph>
    <TTGlyph name="Tcommaaccent" xMin="102" yMin="-317" xMax="654" yMax="688">
      <component glyphName="T" x="0" y="0" flags="0x204"/>
      <component glyphName="commaaccent.cap" x="-62" y="0" flags="0x4"/>
    </TTGlyph>
    <TTGlyph name="Thorn" xMin="40" yMin="0" xMax="598" yMax="688">
      <contour>
        <pt x="40" y="0" on="1"/>
        <pt x="175" y="688" on="1"/>
        <pt x="334" y="688" on="1"/>
        <pt x="317" y="602" on="1"/>
        <pt x="324" y="602" on="1"/>
        <pt x="394" y="602" on="0"/>
        <pt x="497" y="571" on="0"/>
        <pt x="565" y="517" on="0"/>
        <pt x="598" y="444" on="0"/>
        <pt x="598" y="402" on="1"/>
        <pt x="598" y="341" on="0"/>
        <pt x="546" y="238" on="0"/>
        <pt x="448" y="159" on="0"/>
        <pt x="306" y="105" on="0"/>
        <pt x="217" y="93" on="1"/>
        <pt x="199" y="0" on="1"/>
      </contour>
      <contour>
        <pt x="442" y="374" on="1"/>
        <pt x="442" y="420" on="0"/>
        <pt x="383" y="473" on="0"/>
        <pt x="327" y="473" on="1"/>
        <pt x="310" y="473" on="0"/>
        <pt x="291" y="470" on="1"/>
        <pt x="245" y="232" on="1"/>
        <pt x="254" y="230" on="0"/>
        <pt x="272" y="230" on="0"/>
        <pt x="280" y="230" on="1"/>
        <pt x="320" y="230" on="0"/>
        <pt x="380" y="253" on="0"/>
        <pt x="421" y="292" on="0"/>
        <pt x="442" y="344" on="0"/>
      </contour>
    </TTGlyph>
    <TTGlyph name="U" xMin="68" yMin="-14" xMax="640" yMax="688">
      <contour>
        <pt x="275" y="-14" on="1"/>
        <pt x="228" y="-14" on="0"/>
        <pt x="152" y="7" on="0"/>
        <pt x="98" y="53" on="0"/>
        <pt x="68" y="127" on="0"/>
        <pt x="68" y="181" on="1"/>
        <pt x="68" y="204" on="0"/>
        <pt x="74" y="253" on="0"/>
        <pt x="79" y="281" on="1"/>
        <pt x="158" y="688" on="1"/>
        <pt x="317" y="688" on="1"/>
        <pt x="236" y="266" on="1"/>
        <pt x="232" y="247" on="0"/>
        <pt x="229" y="215" on="0"/>
        <pt x="229" y="202" on="1"/>
        <pt x="229" y="178" on="0"/>
        <pt x="239" y="147" on="0"/>
        <pt x="257" y="129" on="0"/>
        <pt x="281" y="122" on="0"/>
        <pt x="294" y="122" on="1"/>
        <pt x="331" y="122" on="0"/>
        <pt x="381" y="173" on="0"/>
        <pt x="392" y="233" on="1"/>
        <pt x="480" y="688" on="1"/>
        <pt x="640" y="688" on="1"/>
        <pt x="552" y="236" on="1"/>
        <pt x="538" y="166" on="0"/>
        <pt x="488" y="71" on="0"/>
        <pt x="418" y="12" on="0"/>
        <pt x="328" y="-14" on="0"/>
      </contour>
    </TTGlyph>
    <TTGlyph name="Uacute" xMin="68" yMin="-14" xMax="640" yMax="999">
      <component glyphName="acute.cap" x="94" y="125" flags="0x204"/>
      <component glyphName="U" x="0" y="0" flags="0x4"/>
    </TTGlyph>
    <TTGlyph name="Ubreve" xMin="68" yMin="-14" xMax="674" yMax="976">
      <component glyphName="breve.cap" x="100" y="125" flags="0x204"/>
      <component glyphName="U" x="0" y="0" flags="0x4"/>
    </TTGlyph>
    <TTGlyph name="Ucircumflex" xMin="68" yMin="-14" xMax="643" yMax="986">
      <component glyphName="U" x="0" y="0" flags="0x204"/>
      <component glyphName="circumflex.cap" x="97" y="125" flags="0x4"/>
    </TTGlyph>
    <TTGlyph name="Udieresis" xMin="68" yMin="-14" xMax="663" yMax="924">
      <component glyphName="dieresis.cap" x="92" y="125" flags="0x204"/>
      <component glyphName="U" x="0" y="0" flags="0x4"/>
    </TTGlyph>
    <TTGlyph name="Ugrave" xMin="68" yMin="-14" xMax="640" yMax="1002">
      <component glyphName="grave.cap" x="113" y="125" flags="0x204"/>
      <component glyphName="U" x="0" y="0" flags="0x4"/>
    </TTGlyph>
    <TTGlyph name="Uhungarumlaut" xMin="68" yMin="-14" xMax="743" yMax="1025">
      <component glyphName="U" x="0" y="0" flags="0x204"/>
      <component glyphName="hungarumlaut.cap" x="69" y="125" flags="0x4"/>
    </TTGlyph>
    <TTGlyph name="Umacron" xMin="68" yMin="-14" xMax="643" yMax="910">
      <component glyphName="macron.cap" x="103" y="125" flags="0x204"/>
      <component glyphName="U" x="0" y="0" flags="0x4"/>
    </TTGlyph>
    <TTGlyph name="Uogonek" xMin="68" yMin="-237" xMax="640" yMax="688">
      <contour>
        <pt x="414" y="-188" on="1"/>
        <pt x="359" y="-214" on="0"/>
        <pt x="270" y="-237" on="0"/>
        <pt x="235" y="-237" on="1"/>
        <pt x="177" y="-237" on="0"/>
        <pt x="119" y="-185" on="0"/>
        <pt x="119" y="-147" on="1"/>
        <pt x="119" y="-114" on="0"/>
        <pt x="174" y="-45" on="0"/>
        <pt x="231" y="-12" on="1"/>
        <pt x="194" y="-8" on="0"/>
        <pt x="134" y="18" on="0"/>
        <pt x="91" y="65" on="0"/>
        <pt x="68" y="134" on="0"/>
        <pt x="68" y="181" on="1"/>
        <pt x="68" y="203" on="0"/>
        <pt x="74" y="252" on="0"/>
        <pt x="79" y="281" on="1"/>
        <pt x="158" y="688" on="1"/>
        <pt x="317" y="688" on="1"/>
        <pt x="236" y="266" on="1"/>
        <pt x="232" y="247" on="0"/>
        <pt x="229" y="215" on="0"/>
        <pt x="229" y="202" on="1"/>
        <pt x="229" y="178" on="0"/>
        <pt x="239" y="147" on="0"/>
        <pt x="257" y="129" on="0"/>
        <pt x="281" y="122" on="0"/>
        <pt x="294" y="122" on="1"/>
        <pt x="331" y="122" on="0"/>
        <pt x="381" y="173" on="0"/>
        <pt x="392" y="233" on="1"/>
        <pt x="480" y="688" on="1"/>
        <pt x="640" y="688" on="1"/>
        <pt x="552" y="236" on="1"/>
        <pt x="535" y="151" on="0"/>
        <pt x="472" y="48" on="0"/>
        <pt x="422" y="21" on="1"/>
        <pt x="375" y="-3" on="0"/>
        <pt x="313" y="-38" on="0"/>
        <pt x="274" y="-66" on="0"/>
        <pt x="258" y="-89" on="0"/>
        <pt x="258" y="-101" on="1"/>
        <pt x="258" y="-116" on="0"/>
        <pt x="283" y="-134" on="0"/>
        <pt x="311" y="-134" on="1"/>
        <pt x="328" y="-134" on="0"/>
        <pt x="371" y="-127" on="0"/>
        <pt x="400" y="-119" on="1"/>
        <pt x="414" y="-188" on="1"/>
      </contour>
    </TTGlyph>
    <TTGlyph name="Uring" xMin="68" yMin="-14" xMax="640" yMax="984">
      <component glyphName="U" x="0" y="0" flags="0x204"/>
      <component glyphName="ring.cap" x="97" y="125" flags="0x4"/>
    </TTGlyph>
    <TTGlyph name="V" xMin="106" yMin="0" xMax="677" yMax="694">
      <contour>
        <pt x="148" y="0" on="1"/>
        <pt x="132" y="173" on="0"/>
        <pt x="111" y="510" on="0"/>
        <pt x="106" y="683" on="1"/>
        <pt x="267" y="694" on="1"/>
        <pt x="268" y="558" on="0"/>
        <pt x="276" y="282" on="0"/>
        <pt x="281" y="145" on="1"/>
        <pt x="292" y="145" on="1"/>
        <pt x="350" y="281" on="0"/>
        <pt x="464" y="552" on="0"/>
        <pt x="515" y="688" on="1"/>
        <pt x="677" y="688" on="1"/>
        <pt x="605" y="516" on="0"/>
        <pt x="452" y="173" on="0"/>
        <pt x="368" y="0" on="1"/>
      </contour>
    </TTGlyph>
    <TTGlyph name="W" xMin="54" yMin="0" xMax="677" yMax="688">
      <contour>
        <pt x="327" y="296" on="1"/>
        <pt x="200" y="0" on="1"/>
        <pt x="54" y="0" on="1"/>
        <pt x="55" y="49" on="0"/>
        <pt x="66" y="194" on="0"/>
        <pt x="84" y="373" on="0"/>
        <pt x="109" y="578" on="0"/>
        <pt x="126" y="688" on="1"/>
        <pt x="285" y="688" on="1"/>
        <pt x="208" y="220" on="1"/>
        <pt x="213" y="220" on="1"/>
        <pt x="322" y="480" on="1"/>
        <pt x="408" y="480" on="1"/>
        <pt x="415" y="220" on="1"/>
        <pt x="420" y="220" on="1"/>
        <pt x="522" y="688" on="1"/>
        <pt x="677" y="688" on="1"/>
        <pt x="650" y="577" on="0"/>
        <pt x="597" y="371" on="0"/>
        <pt x="548" y="193" on="0"/>
        <pt x="505" y="49" on="0"/>
        <pt x="489" y="0" on="1"/>
        <pt x="337" y="0" on="1"/>
      </contour>
    </TTGlyph>
    <TTGlyph name="Wacute" xMin="54" yMin="0" xMax="677" yMax="999">
      <component glyphName="acute.cap" x="97" y="125" flags="0x204"/>
      <component glyphName="W" x="0" y="0" flags="0x4"/>
    </TTGlyph>
    <TTGlyph name="Wcircumflex" xMin="54" yMin="0" xMax="677" yMax="986">
      <component glyphName="W" x="0" y="0" flags="0x204"/>
      <component glyphName="circumflex.cap" x="99" y="125" flags="0x4"/>
    </TTGlyph>
    <TTGlyph name="Wdieresis" xMin="54" yMin="0" xMax="677" yMax="924">
      <component glyphName="dieresis.cap" x="94" y="125" flags="0x204"/>
      <component glyphName="W" x="0" y="0" flags="0x4"/>
    </TTGlyph>
    <TTGlyph name="Wgrave" xMin="54" yMin="0" xMax="677" yMax="1002">
      <component glyphName="grave.cap" x="115" y="125" flags="0x204"/>
      <component glyphName="W" x="0" y="0" flags="0x4"/>
    </TTGlyph>
    <TTGlyph name="X" xMin="-21" yMin="-3" xMax="681" yMax="692">
      <contour>
        <pt x="301" y="232" on="1"/>
        <pt x="150" y="0" on="1"/>
        <pt x="-21" y="0" on="1"/>
        <pt x="236" y="354" on="1"/>
        <pt x="110" y="685" on="1"/>
        <pt x="277" y="692" on="1"/>
        <pt x="357" y="455" on="1"/>
        <pt x="509" y="688" on="1"/>
        <pt x="681" y="688" on="1"/>
        <pt x="423" y="333" on="1"/>
        <pt x="548" y="3" on="1"/>
        <pt x="380" y="-3" on="1"/>
      </contour>
    </TTGlyph>
    <TTGlyph name="Y" xMin="104" yMin="0" xMax="686" yMax="692">
      <contour>
        <pt x="182" y="0" on="1"/>
        <pt x="227" y="231" on="1"/>
        <pt x="104" y="685" on="1"/>
        <pt x="269" y="692" on="1"/>
        <pt x="338" y="379" on="1"/>
        <pt x="515" y="688" on="1"/>
        <pt x="686" y="688" on="1"/>
        <pt x="386" y="221" on="1"/>
        <pt x="343" y="0" on="1"/>
      </contour>
    </TTGlyph>
    <TTGlyph name="Yacute" xMin="104" yMin="0" xMax="686" yMax="1003">
      <component glyphName="Y" x="0" y="0" flags="0x204"/>
      <component glyphName="acute.cap" x="91" y="129" flags="0x4"/>
    </TTGlyph>
    <TTGlyph name="Ycircumflex" xMin="104" yMin="0" xMax="686" yMax="990">
      <component glyphName="Y" x="0" y="0" flags="0x204"/>
      <component glyphName="circumflex.cap" x="93" y="129" flags="0x4"/>
    </TTGlyph>
    <TTGlyph name="Ydieresis" xMin="104" yMin="0" xMax="686" yMax="928">
      <component glyphName="Y" x="0" y="0" flags="0x204"/>
      <component glyphName="dieresis.cap" x="88" y="129" flags="0x4"/>
    </TTGlyph>
    <TTGlyph name="Ygrave" xMin="104" yMin="0" xMax="686" yMax="1006">
      <component glyphName="Y" x="0" y="0" flags="0x204"/>
      <component glyphName="grave.cap" x="109" y="129" flags="0x4"/>
    </TTGlyph>
    <TTGlyph name="Z" xMin="19" yMin="0" xMax="627" yMax="688">
      <contour>
        <pt x="19" y="0" on="1"/>
        <pt x="44" y="134" on="1"/>
        <pt x="425" y="552" on="1"/>
        <pt x="127" y="548" on="1"/>
        <pt x="154" y="688" on="1"/>
        <pt x="627" y="688" on="1"/>
        <pt x="605" y="554" on="1"/>
        <pt x="229" y="137" on="1"/>
        <pt x="530" y="140" on="1"/>
        <pt x="503" y="0" on="1"/>
      </contour>
    </TTGlyph>
    <TTGlyph name="Zacute" xMin="19" yMin="0" xMax="627" yMax="999">
      <component glyphName="Z" x="0" y="0" flags="0x204"/>
      <component glyphName="acute.cap" x="89" y="125" flags="0x4"/>
    </TTGlyph>
    <TTGlyph name="Zcaron" xMin="19" yMin="0" xMax="653" yMax="983">
      <component glyphName="caron.cap" x="84" y="125" flags="0x204"/>
      <component glyphName="Z" x="0" y="0" flags="0x4"/>
    </TTGlyph>
    <TTGlyph name="Zdotaccent" xMin="19" yMin="0" xMax="627" yMax="922">
      <component glyphName="dotaccent.cap" x="100" y="125" flags="0x204"/>
      <component glyphName="Z" x="0" y="0" flags="0x4"/>
    </TTGlyph>
    <TTGlyph name="a" xMin="40" yMin="-14" xMax="583" yMax="575">
      <contour>
        <pt x="583" y="51" on="1"/>
        <pt x="526" y="17" on="0"/>
        <pt x="445" y="-14" on="0"/>
        <pt x="418" y="-14" on="1"/>
        <pt x="380" y="-14" on="0"/>
        <pt x="349" y="37" on="0"/>
        <pt x="349" y="84" on="1"/>
        <pt x="349" y="95" on="1"/>
        <pt x="301" y="49" on="0"/>
        <pt x="200" y="-14" on="0"/>
        <pt x="156" y="-14" on="1"/>
        <pt x="106" y="-14" on="0"/>
        <pt x="40" y="70" on="0"/>
        <pt x="40" y="159" on="1"/>
        <pt x="40" y="236" on="0"/>
        <pt x="88" y="386" on="0"/>
        <pt x="180" y="503" on="0"/>
        <pt x="313" y="575" on="0"/>
        <pt x="399" y="575" on="1"/>
        <pt x="439" y="575" on="0"/>
        <pt x="530" y="562" on="0"/>
        <pt x="575" y="548" on="1"/>
        <pt x="500" y="158" on="1"/>
        <pt x="498" y="150" on="0"/>
        <pt x="496" y="138" on="0"/>
        <pt x="496" y="133" on="1"/>
        <pt x="496" y="118" on="0"/>
        <pt x="514" y="118" on="1"/>
        <pt x="522" y="118" on="0"/>
        <pt x="551" y="123" on="0"/>
        <pt x="571" y="127" on="1"/>
      </contour>
      <contour>
        <pt x="242" y="131" on="1"/>
        <pt x="264" y="131" on="0"/>
        <pt x="325" y="164" on="0"/>
        <pt x="357" y="190" on="1"/>
        <pt x="361" y="209" on="0"/>
        <pt x="372" y="266" on="0"/>
        <pt x="384" y="331" on="0"/>
        <pt x="397" y="399" on="0"/>
        <pt x="403" y="429" on="1"/>
        <pt x="350" y="446" on="0"/>
        <pt x="319" y="446" on="1"/>
        <pt x="294" y="446" on="0"/>
        <pt x="250" y="399" on="0"/>
        <pt x="216" y="326" on="0"/>
        <pt x="196" y="238" on="0"/>
        <pt x="196" y="196" on="1"/>
        <pt x="196" y="160" on="0"/>
        <pt x="223" y="131" on="0"/>
      </contour>
    </TTGlyph>
    <TTGlyph name="aacute" xMin="40" yMin="-14" xMax="611" yMax="886">
      <component glyphName="a" x="0" y="0" flags="0x204"/>
      <component glyphName="acute" x="93" y="12" flags="0x4"/>
    </TTGlyph>
    <TTGlyph name="abreve" xMin="40" yMin="-14" xMax="673" yMax="863">
      <component glyphName="a" x="0" y="0" flags="0x204"/>
      <component glyphName="breve" x="99" y="12" flags="0x4"/>
    </TTGlyph>
    <TTGlyph name="acircumflex" xMin="40" yMin="-14" xMax="642" yMax="873">
      <component glyphName="a" x="0" y="0" flags="0x204"/>
      <component glyphName="circumflex" x="96" y="12" flags="0x4"/>
    </TTGlyph>
    <TTGlyph name="acute" xMin="155" yMin="623" xMax="518" yMax="874">
      <contour>
        <pt x="155" y="688" on="1"/>
        <pt x="182" y="702" on="0"/>
        <pt x="251" y="746" on="0"/>
        <pt x="324" y="796" on="0"/>
        <pt x="394" y="850" on="0"/>
        <pt x="421" y="874" on="1"/>
        <pt x="518" y="756" on="1"/>
        <pt x="485" y="735" on="0"/>
        <pt x="396" y="693" on="0"/>
        <pt x="303" y="658" on="0"/>
        <pt x="214" y="630" on="0"/>
        <pt x="181" y="623" on="1"/>
        <pt x="155" y="688" on="1"/>
      </contour>
    </TTGlyph>
    <TTGlyph name="acute.cap" xMin="155" yMin="623" xMax="518" yMax="874">
      <contour>
        <pt x="155" y="688" on="1"/>
        <pt x="182" y="702" on="0"/>
        <pt x="251" y="746" on="0"/>
        <pt x="324" y="796" on="0"/>
        <pt x="394" y="850" on="0"/>
        <pt x="421" y="874" on="1"/>
        <pt x="518" y="756" on="1"/>
        <pt x="485" y="735" on="0"/>
        <pt x="396" y="693" on="0"/>
        <pt x="303" y="658" on="0"/>
        <pt x="214" y="630" on="0"/>
        <pt x="181" y="623" on="1"/>
        <pt x="155" y="688" on="1"/>
      </contour>
    </TTGlyph>
    <TTGlyph name="adieresis" xMin="40" yMin="-14" xMax="662" yMax="811">
      <component glyphName="a" x="0" y="0" flags="0x204"/>
      <component glyphName="dieresis" x="91" y="12" flags="0x4"/>
    </TTGlyph>
    <TTGlyph name="ae" xMin="16" yMin="-7" xMax="649" yMax="574">
      <contour>
        <pt x="596" y="70" on="1"/>
        <pt x="530" y="29" on="0"/>
        <pt x="427" y="-7" on="0"/>
        <pt x="387" y="-7" on="1"/>
        <pt x="339" y="-7" on="0"/>
        <pt x="280" y="37" on="0"/>
        <pt x="265" y="75" on="1"/>
        <pt x="230" y="38" on="0"/>
        <pt x="154" y="-7" on="0"/>
        <pt x="112" y="-7" on="1"/>
        <pt x="65" y="-7" on="0"/>
        <pt x="16" y="65" on="0"/>
        <pt x="16" y="143" on="1"/>
        <pt x="16" y="221" on="0"/>
        <pt x="57" y="374" on="0"/>
        <pt x="130" y="495" on="0"/>
        <pt x="231" y="569" on="0"/>
        <pt x="291" y="569" on="1"/>
        <pt x="323" y="569" on="0"/>
        <pt x="388" y="555" on="0"/>
        <pt x="417" y="541" on="1"/>
        <pt x="442" y="557" on="0"/>
        <pt x="495" y="574" on="0"/>
        <pt x="524" y="574" on="1"/>
        <pt x="584" y="574" on="0"/>
        <pt x="649" y="501" on="0"/>
        <pt x="649" y="445" on="1"/>
        <pt x="649" y="407" on="0"/>
        <pt x="622" y="334" on="0"/>
        <pt x="561" y="272" on="0"/>
        <pt x="464" y="225" on="0"/>
        <pt x="394" y="214" on="1"/>
        <pt x="394" y="195" on="1"/>
        <pt x="394" y="157" on="0"/>
        <pt x="422" y="120" on="0"/>
        <pt x="460" y="120" on="1"/>
        <pt x="482" y="120" on="0"/>
        <pt x="542" y="132" on="0"/>
        <pt x="583" y="143" on="1"/>
      </contour>
      <contour>
        <pt x="484" y="452" on="1"/>
        <pt x="471" y="452" on="0"/>
        <pt x="447" y="427" on="0"/>
        <pt x="426" y="383" on="0"/>
        <pt x="409" y="326" on="0"/>
        <pt x="403" y="294" on="1"/>
        <pt x="436" y="304" on="0"/>
        <pt x="477" y="338" on="0"/>
        <pt x="500" y="374" on="0"/>
        <pt x="508" y="408" on="0"/>
        <pt x="508" y="418" on="1"/>
        <pt x="508" y="433" on="0"/>
        <pt x="498" y="452" on="0"/>
      </contour>
      <contour>
        <pt x="205" y="129" on="1"/>
        <pt x="228" y="129" on="0"/>
        <pt x="250" y="157" on="1"/>
        <pt x="250" y="247" on="0"/>
        <pt x="287" y="381" on="0"/>
        <pt x="319" y="436" on="1"/>
        <pt x="305" y="446" on="0"/>
        <pt x="281" y="451" on="0"/>
        <pt x="271" y="451" on="1"/>
        <pt x="251" y="451" on="0"/>
        <pt x="216" y="405" on="0"/>
        <pt x="190" y="332" on="0"/>
        <pt x="174" y="243" on="0"/>
        <pt x="174" y="200" on="1"/>
        <pt x="174" y="165" on="0"/>
        <pt x="188" y="129" on="0"/>
      </contour>
    </TTGlyph>
    <TTGlyph name="aeacute" xMin="16" yMin="-7" xMax="649" yMax="885">
      <component glyphName="acute" x="84" y="11" flags="0x204"/>
      <component glyphName="ae" x="0" y="0" flags="0x4"/>
    </TTGlyph>
    <TTGlyph name="agrave" xMin="40" yMin="-14" xMax="602" yMax="889">
      <component glyphName="a" x="0" y="0" flags="0x204"/>
      <component glyphName="grave" x="112" y="12" flags="0x4"/>
    </TTGlyph>
    <TTGlyph name="amacron" xMin="40" yMin="-14" xMax="642" yMax="797">
      <component glyphName="a" x="0" y="0" flags="0x204"/>
      <component glyphName="macron" x="102" y="12" flags="0x4"/>
    </TTGlyph>
    <TTGlyph name="ampersand" xMin="17" yMin="-23" xMax="620" yMax="710">
      <contour>
        <pt x="464" y="-23" on="1"/>
        <pt x="441" y="5" on="0"/>
        <pt x="401" y="59" on="0"/>
        <pt x="382" y="87" on="1"/>
        <pt x="270" y="-10" on="0"/>
        <pt x="164" y="-10" on="1"/>
        <pt x="91" y="-10" on="0"/>
        <pt x="17" y="73" on="0"/>
        <pt x="17" y="142" on="1"/>
        <pt x="17" y="176" on="0"/>
        <pt x="37" y="251" on="0"/>
        <pt x="83" y="331" on="0"/>
        <pt x="160" y="416" on="0"/>
        <pt x="217" y="460" on="1"/>
        <pt x="215" y="474" on="0"/>
        <pt x="213" y="501" on="0"/>
        <pt x="213" y="514" on="1"/>
        <pt x="213" y="564" on="0"/>
        <pt x="242" y="638" on="0"/>
        <pt x="290" y="686" on="0"/>
        <pt x="350" y="710" on="0"/>
        <pt x="381" y="710" on="1"/>
        <pt x="428" y="710" on="0"/>
        <pt x="487" y="664" on="0"/>
        <pt x="487" y="625" on="1"/>
        <pt x="487" y="587" on="0"/>
        <pt x="429" y="489" on="0"/>
        <pt x="375" y="438" on="1"/>
        <pt x="383" y="408" on="0"/>
        <pt x="410" y="345" on="0"/>
        <pt x="427" y="311" on="1"/>
        <pt x="444" y="337" on="0"/>
        <pt x="479" y="399" on="0"/>
        <pt x="497" y="435" on="1"/>
        <pt x="620" y="391" on="1"/>
        <pt x="555" y="283" on="0"/>
        <pt x="491" y="204" on="1"/>
        <pt x="537" y="137" on="0"/>
        <pt x="595" y="67" on="1"/>
      </contour>
      <contour>
        <pt x="212" y="127" on="1"/>
        <pt x="233" y="127" on="0"/>
        <pt x="289" y="152" on="0"/>
        <pt x="322" y="182" on="1"/>
        <pt x="278" y="261" on="0"/>
        <pt x="250" y="334" on="1"/>
        <pt x="205" y="289" on="0"/>
        <pt x="166" y="211" on="0"/>
        <pt x="166" y="181" on="1"/>
        <pt x="166" y="152" on="0"/>
        <pt x="190" y="127" on="0"/>
      </contour>
    </TTGlyph>
    <TTGlyph name="aogonek" xMin="40" yMin="-236" xMax="583" yMax="575">
      <contour>
        <pt x="514" y="-190" on="1"/>
        <pt x="460" y="-215" on="0"/>
        <pt x="374" y="-236" on="0"/>
        <pt x="339" y="-236" on="1"/>
        <pt x="280" y="-236" on="0"/>
        <pt x="221" y="-186" on="0"/>
        <pt x="221" y="-150" on="1"/>
        <pt x="221" y="-110" on="0"/>
        <pt x="288" y="-26" on="0"/>
        <pt x="372" y="19" on="1"/>
        <pt x="350" y="37" on="0"/>
        <pt x="350" y="87" on="1"/>
        <pt x="350" y="95" on="1"/>
        <pt x="302" y="49" on="0"/>
        <pt x="200" y="-14" on="0"/>
        <pt x="156" y="-14" on="1"/>
        <pt x="106" y="-14" on="0"/>
        <pt x="40" y="70" on="0"/>
        <pt x="40" y="159" on="1"/>
        <pt x="40" y="236" on="0"/>
        <pt x="88" y="386" on="0"/>
        <pt x="180" y="503" on="0"/>
        <pt x="313" y="575" on="0"/>
        <pt x="399" y="575" on="1"/>
        <pt x="439" y="575" on="0"/>
        <pt x="530" y="562" on="0"/>
        <pt x="575" y="548" on="1"/>
        <pt x="500" y="158" on="1"/>
        <pt x="498" y="150" on="0"/>
        <pt x="496" y="138" on="0"/>
        <pt x="496" y="133" on="1"/>
        <pt x="496" y="118" on="0"/>
        <pt x="514" y="118" on="1"/>
        <pt x="522" y="118" on="0"/>
        <pt x="551" y="123" on="0"/>
        <pt x="571" y="127" on="1"/>
        <pt x="583" y="51" on="1"/>
        <pt x="520" y="28" on="0"/>
        <pt x="434" y="-14" on="0"/>
        <pt x="382" y="-53" on="0"/>
        <pt x="360" y="-87" on="0"/>
        <pt x="360" y="-100" on="1"/>
        <pt x="360" y="-116" on="0"/>
        <pt x="384" y="-134" on="0"/>
        <pt x="412" y="-134" on="1"/>
        <pt x="446" y="-134" on="0"/>
        <pt x="503" y="-118" on="1"/>
      </contour>
      <contour>
        <pt x="242" y="131" on="1"/>
        <pt x="264" y="131" on="0"/>
        <pt x="325" y="164" on="0"/>
        <pt x="357" y="190" on="1"/>
        <pt x="361" y="209" on="0"/>
        <pt x="372" y="266" on="0"/>
        <pt x="384" y="331" on="0"/>
        <pt x="397" y="399" on="0"/>
        <pt x="403" y="429" on="1"/>
        <pt x="350" y="446" on="0"/>
        <pt x="319" y="446" on="1"/>
        <pt x="294" y="446" on="0"/>
        <pt x="250" y="399" on="0"/>
        <pt x="216" y="326" on="0"/>
        <pt x="196" y="238" on="0"/>
        <pt x="196" y="196" on="1"/>
        <pt x="196" y="160" on="0"/>
        <pt x="223" y="131" on="0"/>
      </contour>
    </TTGlyph>
    <TTGlyph name="approxequal" xMin="26" yMin="95" xMax="611" yMax="579">
      <contour>
        <pt x="420" y="353" on="1"/>
        <pt x="387" y="353" on="0"/>
        <pt x="337" y="382" on="0"/>
        <pt x="297" y="416" on="0"/>
        <pt x="264" y="445" on="0"/>
        <pt x="248" y="445" on="1"/>
        <pt x="231" y="445" on="0"/>
        <pt x="187" y="392" on="0"/>
        <pt x="158" y="347" on="1"/>
        <pt x="76" y="392" on="1"/>
        <pt x="126" y="485" on="0"/>
        <pt x="222" y="579" on="0"/>
        <pt x="282" y="579" on="1"/>
        <pt x="315" y="579" on="0"/>
        <pt x="362" y="550" on="0"/>
        <pt x="400" y="515" on="0"/>
        <pt x="430" y="486" on="0"/>
        <pt x="445" y="486" on="1"/>
        <pt x="462" y="486" on="0"/>
        <pt x="499" y="534" on="0"/>
        <pt x="526" y="575" on="1"/>
        <pt x="611" y="531" on="1"/>
        <pt x="561" y="440" on="0"/>
        <pt x="476" y="353" on="0"/>
      </contour>
      <contour>
        <pt x="370" y="99" on="1"/>
        <pt x="337" y="99" on="0"/>
        <pt x="287" y="128" on="0"/>
        <pt x="248" y="163" on="0"/>
        <pt x="216" y="192" on="0"/>
        <pt x="200" y="192" on="1"/>
        <pt x="183" y="192" on="0"/>
        <pt x="140" y="140" on="0"/>
        <pt x="111" y="95" on="1"/>
        <pt x="26" y="139" on="1"/>
        <pt x="77" y="231" on="0"/>
        <pt x="175" y="325" on="0"/>
        <pt x="235" y="325" on="1"/>
        <pt x="267" y="325" on="0"/>
        <pt x="314" y="296" on="0"/>
        <pt x="352" y="262" on="0"/>
        <pt x="382" y="233" on="0"/>
        <pt x="397" y="233" on="1"/>
        <pt x="414" y="233" on="0"/>
        <pt x="451" y="281" on="0"/>
        <pt x="479" y="322" on="1"/>
        <pt x="562" y="278" on="1"/>
        <pt x="536" y="233" on="0"/>
        <pt x="491" y="165" on="0"/>
        <pt x="446" y="121" on="0"/>
        <pt x="398" y="99" on="0"/>
      </contour>
    </TTGlyph>
    <TTGlyph name="aring" xMin="40" yMin="-14" xMax="584" yMax="871">
      <component glyphName="a" x="0" y="0" flags="0x204"/>
      <component glyphName="ring" x="96" y="12" flags="0x4"/>
    </TTGlyph>
    <TTGlyph name="aringacute" xMin="40" yMin="-14" xMax="664" yMax="1158">
      <contour>
        <pt x="583" y="51" on="1"/>
        <pt x="526" y="17" on="0"/>
        <pt x="445" y="-14" on="0"/>
        <pt x="418" y="-14" on="1"/>
        <pt x="380" y="-14" on="0"/>
        <pt x="349" y="37" on="0"/>
        <pt x="349" y="84" on="1"/>
        <pt x="349" y="95" on="1"/>
        <pt x="301" y="49" on="0"/>
        <pt x="200" y="-14" on="0"/>
        <pt x="156" y="-14" on="1"/>
        <pt x="106" y="-14" on="0"/>
        <pt x="40" y="70" on="0"/>
        <pt x="40" y="159" on="1"/>
        <pt x="40" y="236" on="0"/>
        <pt x="88" y="386" on="0"/>
        <pt x="180" y="503" on="0"/>
        <pt x="313" y="575" on="0"/>
        <pt x="399" y="575" on="1"/>
        <pt x="439" y="575" on="0"/>
        <pt x="530" y="562" on="0"/>
        <pt x="575" y="548" on="1"/>
        <pt x="500" y="158" on="1"/>
        <pt x="498" y="150" on="0"/>
        <pt x="496" y="138" on="0"/>
        <pt x="496" y="133" on="1"/>
        <pt x="496" y="118" on="0"/>
        <pt x="514" y="118" on="1"/>
        <pt x="522" y="118" on="0"/>
        <pt x="551" y="123" on="0"/>
        <pt x="571" y="127" on="1"/>
      </contour>
      <contour>
        <pt x="242" y="131" on="1"/>
        <pt x="264" y="131" on="0"/>
        <pt x="325" y="164" on="0"/>
        <pt x="357" y="190" on="1"/>
        <pt x="361" y="209" on="0"/>
        <pt x="372" y="266" on="0"/>
        <pt x="384" y="331" on="0"/>
        <pt x="397" y="399" on="0"/>
        <pt x="403" y="429" on="1"/>
        <pt x="350" y="446" on="0"/>
        <pt x="319" y="446" on="1"/>
        <pt x="294" y="446" on="0"/>
        <pt x="250" y="399" on="0"/>
        <pt x="216" y="326" on="0"/>
        <pt x="196" y="238" on="0"/>
        <pt x="196" y="196" on="1"/>
        <pt x="196" y="160" on="0"/>
        <pt x="223" y="131" on="0"/>
      </contour>
      <contour>
        <pt x="301" y="972" on="1"/>
        <pt x="328" y="986" on="0"/>
        <pt x="397" y="1030" on="0"/>
        <pt x="470" y="1080" on="0"/>
        <pt x="540" y="1134" on="0"/>
        <pt x="567" y="1158" on="1"/>
        <pt x="664" y="1040" on="1"/>
        <pt x="631" y="1019" on="0"/>
        <pt x="542" y="977" on="0"/>
        <pt x="449" y="942" on="0"/>
        <pt x="360" y="914" on="0"/>
        <pt x="327" y="907" on="1"/>
        <pt x="301" y="972" on="1"/>
      </contour>
      <contour>
        <pt x="445" y="871" on="1"/>
        <pt x="477" y="871" on="0"/>
        <pt x="528" y="853" on="0"/>
        <pt x="564" y="823" on="0"/>
        <pt x="584" y="782" on="0"/>
        <pt x="584" y="759" on="1"/>
        <pt x="584" y="733" on="0"/>
        <pt x="560" y="685" on="0"/>
        <pt x="516" y="649" on="0"/>
        <pt x="455" y="628" on="0"/>
        <pt x="419" y="628" on="1"/>
        <pt x="387" y="628" on="0"/>
        <pt x="336" y="646" on="0"/>
        <pt x="301" y="677" on="0"/>
        <pt x="282" y="718" on="0"/>
        <pt x="282" y="741" on="1"/>
        <pt x="282" y="767" on="0"/>
        <pt x="306" y="814" on="0"/>
        <pt x="349" y="850" on="0"/>
        <pt x="409" y="871" on="0"/>
      </contour>
    </TTGlyph>
    <TTGlyph name="asciicircum" xMin="51" yMin="152" xMax="584" yMax="567">
      <contour>
        <pt x="323" y="366" on="1"/>
        <pt x="147" y="152" on="1"/>
        <pt x="51" y="233" on="1"/>
        <pt x="334" y="564" on="1"/>
        <pt x="361" y="567" on="1"/>
        <pt x="584" y="230" on="1"/>
        <pt x="462" y="152" on="1"/>
      </contour>
    </TTGlyph>
    <TTGlyph name="asciitilde" xMin="31" yMin="204" xMax="621" yMax="473">
      <contour>
        <pt x="422" y="204" on="1"/>
        <pt x="388" y="204" on="0"/>
        <pt x="325" y="243" on="0"/>
        <pt x="271" y="291" on="0"/>
        <pt x="227" y="330" on="0"/>
        <pt x="212" y="330" on="1"/>
        <pt x="195" y="330" on="0"/>
        <pt x="151" y="263" on="0"/>
        <pt x="125" y="206" on="1"/>
        <pt x="31" y="248" on="1"/>
        <pt x="75" y="350" on="0"/>
        <pt x="179" y="473" on="0"/>
        <pt x="238" y="473" on="1"/>
        <pt x="271" y="473" on="0"/>
        <pt x="331" y="434" on="0"/>
        <pt x="383" y="386" on="0"/>
        <pt x="425" y="347" on="0"/>
        <pt x="440" y="347" on="1"/>
        <pt x="457" y="347" on="0"/>
        <pt x="501" y="414" on="0"/>
        <pt x="529" y="471" on="1"/>
        <pt x="621" y="428" on="1"/>
        <pt x="574" y="321" on="0"/>
        <pt x="480" y="204" on="0"/>
      </contour>
    </TTGlyph>
    <TTGlyph name="asterisk" xMin="92" yMin="221" xMax="631" yMax="779">
      <contour>
        <pt x="316" y="366" on="1"/>
        <pt x="167" y="289" on="1"/>
        <pt x="104" y="369" on="1"/>
        <pt x="215" y="491" on="1"/>
        <pt x="92" y="611" on="1"/>
        <pt x="150" y="696" on="1"/>
        <pt x="301" y="626" on="1"/>
        <pt x="376" y="779" on="1"/>
        <pt x="475" y="751" on="1"/>
        <pt x="460" y="583" on="1"/>
        <pt x="625" y="561" on="1"/>
        <pt x="631" y="461" on="1"/>
        <pt x="464" y="422" on="1"/>
        <pt x="493" y="258" on="1"/>
        <pt x="399" y="221" on="1"/>
      </contour>
    </TTGlyph>
    <TTGlyph name="asterisk.alt" xMin="74" yMin="214" xMax="636" yMax="784">
      <contour>
        <pt x="342" y="603" on="1"/>
        <pt x="354" y="784" on="1"/>
        <pt x="488" y="749" on="1"/>
        <pt x="418" y="585" on="1"/>
      </contour>
      <contour>
        <pt x="260" y="539" on="1"/>
        <pt x="109" y="640" on="1"/>
        <pt x="206" y="738" on="1"/>
        <pt x="313" y="597" on="1"/>
      </contour>
      <contour>
        <pt x="437" y="563" on="1"/>
        <pt x="601" y="643" on="1"/>
        <pt x="636" y="511" on="1"/>
        <pt x="460" y="486" on="1"/>
      </contour>
      <contour>
        <pt x="273" y="436" on="1"/>
        <pt x="110" y="356" on="1"/>
        <pt x="74" y="488" on="1"/>
        <pt x="250" y="513" on="1"/>
      </contour>
      <contour>
        <pt x="452" y="460" on="1"/>
        <pt x="603" y="359" on="1"/>
        <pt x="507" y="261" on="1"/>
        <pt x="398" y="402" on="1"/>
      </contour>
      <contour>
        <pt x="368" y="396" on="1"/>
        <pt x="358" y="214" on="1"/>
        <pt x="223" y="250" on="1"/>
        <pt x="293" y="414" on="1"/>
      </contour>
    </TTGlyph>
    <TTGlyph name="at" xMin="35" yMin="-175" xMax="643" yMax="763">
      <contour>
        <pt x="478" y="-165" on="1"/>
        <pt x="445" y="-170" on="0"/>
        <pt x="384" y="-175" on="0"/>
        <pt x="356" y="-175" on="1"/>
        <pt x="270" y="-175" on="0"/>
        <pt x="149" y="-129" on="0"/>
        <pt x="71" y="-42" on="0"/>
        <pt x="35" y="82" on="0"/>
        <pt x="35" y="160" on="1"/>
        <pt x="35" y="236" on="0"/>
        <pt x="65" y="385" on="0"/>
        <pt x="119" y="519" on="0"/>
        <pt x="196" y="633" on="0"/>
        <pt x="290" y="716" on="0"/>
        <pt x="399" y="763" on="0"/>
        <pt x="459" y="763" on="1"/>
        <pt x="550" y="763" on="0"/>
        <pt x="643" y="663" on="0"/>
        <pt x="643" y="566" on="1"/>
        <pt x="643" y="543" on="0"/>
        <pt x="637" y="492" on="0"/>
        <pt x="632" y="463" on="1"/>
        <pt x="594" y="271" on="1"/>
        <pt x="586" y="228" on="0"/>
        <pt x="568" y="129" on="0"/>
        <pt x="560" y="72" on="1"/>
        <pt x="432" y="73" on="1"/>
        <pt x="439" y="130" on="1"/>
        <pt x="408" y="100" on="0"/>
        <pt x="345" y="62" on="0"/>
        <pt x="316" y="62" on="1"/>
        <pt x="279" y="62" on="0"/>
        <pt x="233" y="128" on="0"/>
        <pt x="233" y="200" on="1"/>
        <pt x="233" y="259" on="0"/>
        <pt x="265" y="379" on="0"/>
        <pt x="326" y="477" on="0"/>
        <pt x="416" y="538" on="0"/>
        <pt x="475" y="538" on="1"/>
        <pt x="483" y="538" on="0"/>
        <pt x="500" y="538" on="0"/>
        <pt x="509" y="537" on="1"/>
        <pt x="510" y="545" on="0"/>
        <pt x="511" y="558" on="0"/>
        <pt x="511" y="565" on="1"/>
        <pt x="511" y="604" on="0"/>
        <pt x="476" y="648" on="0"/>
        <pt x="439" y="648" on="1"/>
        <pt x="390" y="648" on="0"/>
        <pt x="290" y="570" on="0"/>
        <pt x="210" y="438" on="0"/>
        <pt x="159" y="265" on="0"/>
        <pt x="159" y="170" on="1"/>
        <pt x="159" y="112" on="0"/>
        <pt x="184" y="26" on="0"/>
        <pt x="238" y="-30" on="0"/>
        <pt x="323" y="-58" on="0"/>
        <pt x="384" y="-58" on="1"/>
        <pt x="433" y="-58" on="0"/>
        <pt x="495" y="-49" on="1"/>
      </contour>
      <contour>
        <pt x="388" y="189" on="1"/>
        <pt x="398" y="189" on="0"/>
        <pt x="432" y="200" on="0"/>
        <pt x="449" y="213" on="1"/>
        <pt x="487" y="414" on="1"/>
        <pt x="471" y="420" on="0"/>
        <pt x="441" y="426" on="0"/>
        <pt x="433" y="426" on="1"/>
        <pt x="422" y="426" on="0"/>
        <pt x="397" y="387" on="0"/>
        <pt x="376" y="330" on="0"/>
        <pt x="362" y="265" on="0"/>
        <pt x="362" y="239" on="1"/>
        <pt x="362" y="212" on="0"/>
        <pt x="377" y="189" on="0"/>
      </contour>
    </TTGlyph>
    <TTGlyph name="atilde" xMin="40" yMin="-14" xMax="677" yMax="849">
      <component glyphName="a" x="0" y="0" flags="0x204"/>
      <component glyphName="tilde" x="102" y="12" flags="0x4"/>
    </TTGlyph>
    <TTGlyph name="b" xMin="41" yMin="-14" xMax="584" yMax="784">
      <contour>
        <pt x="227" y="-14" on="1"/>
        <pt x="204" y="-14" on="0"/>
        <pt x="155" y="-8" on="0"/>
        <pt x="106" y="1" on="0"/>
        <pt x="60" y="13" on="0"/>
        <pt x="41" y="20" on="1"/>
        <pt x="188" y="773" on="1"/>
        <pt x="341" y="784" on="1"/>
        <pt x="283" y="486" on="1"/>
        <pt x="328" y="526" on="0"/>
        <pt x="420" y="579" on="0"/>
        <pt x="462" y="579" on="1"/>
        <pt x="516" y="579" on="0"/>
        <pt x="584" y="486" on="0"/>
        <pt x="584" y="390" on="1"/>
        <pt x="584" y="315" on="0"/>
        <pt x="535" y="170" on="0"/>
        <pt x="444" y="56" on="0"/>
        <pt x="311" y="-14" on="0"/>
      </contour>
      <contour>
        <pt x="303" y="115" on="1"/>
        <pt x="328" y="115" on="0"/>
        <pt x="374" y="159" on="0"/>
        <pt x="410" y="227" on="0"/>
        <pt x="431" y="310" on="0"/>
        <pt x="431" y="350" on="1"/>
        <pt x="431" y="398" on="0"/>
        <pt x="400" y="437" on="0"/>
        <pt x="378" y="437" on="1"/>
        <pt x="354" y="437" on="0"/>
        <pt x="292" y="401" on="0"/>
        <pt x="262" y="374" on="1"/>
        <pt x="215" y="132" on="1"/>
        <pt x="241" y="123" on="0"/>
        <pt x="288" y="115" on="0"/>
      </contour>
    </TTGlyph>
    <TTGlyph name="backslash" xMin="98" yMin="-223" xMax="520" yMax="819">
      <contour>
        <pt x="520" y="-181" on="1"/>
        <pt x="391" y="-223" on="1"/>
        <pt x="98" y="778" on="1"/>
        <pt x="227" y="819" on="1"/>
      </contour>
    </TTGlyph>
    <TTGlyph name="bar" xMin="140" yMin="-203" xMax="482" yMax="798">
      <contour>
        <pt x="482" y="798" on="1"/>
        <pt x="287" y="-203" on="1"/>
        <pt x="140" y="-203" on="1"/>
        <pt x="334" y="795" on="1"/>
      </contour>
    </TTGlyph>
    <TTGlyph name="braceleft" xMin="100" yMin="-239" xMax="621" yMax="817">
      <contour>
        <pt x="393" y="-239" on="1"/>
        <pt x="312" y="-203" on="0"/>
        <pt x="200" y="-144" on="0"/>
        <pt x="131" y="-90" on="0"/>
        <pt x="100" y="-38" on="0"/>
        <pt x="100" y="-9" on="1"/>
        <pt x="100" y="17" on="0"/>
        <pt x="119" y="57" on="0"/>
        <pt x="148" y="89" on="0"/>
        <pt x="182" y="116" on="0"/>
        <pt x="211" y="140" on="0"/>
        <pt x="230" y="163" on="0"/>
        <pt x="230" y="176" on="1"/>
        <pt x="230" y="225" on="0"/>
        <pt x="105" y="248" on="1"/>
        <pt x="129" y="356" on="1"/>
        <pt x="174" y="358" on="0"/>
        <pt x="232" y="366" on="0"/>
        <pt x="266" y="379" on="0"/>
        <pt x="279" y="395" on="0"/>
        <pt x="279" y="405" on="1"/>
        <pt x="279" y="420" on="0"/>
        <pt x="258" y="455" on="0"/>
        <pt x="232" y="497" on="0"/>
        <pt x="211" y="544" on="0"/>
        <pt x="211" y="571" on="1"/>
        <pt x="211" y="602" on="0"/>
        <pt x="248" y="668" on="0"/>
        <pt x="336" y="731" on="0"/>
        <pt x="483" y="791" on="0"/>
        <pt x="593" y="817" on="1"/>
        <pt x="621" y="690" on="1"/>
        <pt x="483" y="667" on="0"/>
        <pt x="358" y="617" on="0"/>
        <pt x="358" y="583" on="1"/>
        <pt x="358" y="569" on="0"/>
        <pt x="377" y="532" on="0"/>
        <pt x="401" y="491" on="0"/>
        <pt x="420" y="448" on="0"/>
        <pt x="420" y="427" on="1"/>
        <pt x="420" y="392" on="0"/>
        <pt x="357" y="322" on="0"/>
        <pt x="282" y="302" on="1"/>
        <pt x="337" y="282" on="0"/>
        <pt x="380" y="229" on="0"/>
        <pt x="380" y="200" on="1"/>
        <pt x="380" y="169" on="0"/>
        <pt x="342" y="122" on="0"/>
        <pt x="295" y="81" on="0"/>
        <pt x="257" y="42" on="0"/>
        <pt x="257" y="19" on="1"/>
        <pt x="257" y="-16" on="0"/>
        <pt x="354" y="-83" on="0"/>
        <pt x="457" y="-127" on="1"/>
        <pt x="393" y="-239" on="1"/>
      </contour>
    </TTGlyph>
    <TTGlyph name="braceleft.cap" xMin="111" yMin="-185" xMax="632" yMax="871">
      <component glyphName="braceleft" x="11" y="54" flags="0x204"/>
    </TTGlyph>
    <TTGlyph name="braceright" xMin="0" yMin="-239" xMax="521" yMax="817">
      <contour>
        <pt x="0" y="-112" on="1"/>
        <pt x="139" y="-89" on="0"/>
        <pt x="263" y="-39" on="0"/>
        <pt x="263" y="-4" on="1"/>
        <pt x="263" y="10" on="0"/>
        <pt x="244" y="47" on="0"/>
        <pt x="220" y="88" on="0"/>
        <pt x="201" y="131" on="0"/>
        <pt x="201" y="151" on="1"/>
        <pt x="201" y="186" on="0"/>
        <pt x="264" y="256" on="0"/>
        <pt x="339" y="276" on="1"/>
        <pt x="284" y="296" on="0"/>
        <pt x="241" y="350" on="0"/>
        <pt x="241" y="379" on="1"/>
        <pt x="241" y="410" on="0"/>
        <pt x="279" y="457" on="0"/>
        <pt x="326" y="497" on="0"/>
        <pt x="364" y="536" on="0"/>
        <pt x="364" y="559" on="1"/>
        <pt x="364" y="594" on="0"/>
        <pt x="268" y="661" on="0"/>
        <pt x="165" y="705" on="1"/>
        <pt x="228" y="817" on="1"/>
        <pt x="309" y="781" on="0"/>
        <pt x="421" y="722" on="0"/>
        <pt x="490" y="668" on="0"/>
        <pt x="521" y="616" on="0"/>
        <pt x="521" y="587" on="1"/>
        <pt x="521" y="561" on="0"/>
        <pt x="502" y="521" on="0"/>
        <pt x="473" y="489" on="0"/>
        <pt x="439" y="462" on="0"/>
        <pt x="410" y="438" on="0"/>
        <pt x="391" y="415" on="0"/>
        <pt x="391" y="402" on="1"/>
        <pt x="391" y="352" on="0"/>
        <pt x="516" y="331" on="1"/>
        <pt x="492" y="222" on="1"/>
        <pt x="447" y="220" on="0"/>
        <pt x="389" y="212" on="0"/>
        <pt x="355" y="200" on="0"/>
        <pt x="342" y="183" on="0"/>
        <pt x="342" y="173" on="1"/>
        <pt x="342" y="158" on="0"/>
        <pt x="363" y="123" on="0"/>
        <pt x="389" y="82" on="0"/>
        <pt x="410" y="35" on="0"/>
        <pt x="410" y="8" on="1"/>
        <pt x="410" y="-24" on="0"/>
        <pt x="373" y="-89" on="0"/>
        <pt x="285" y="-153" on="0"/>
        <pt x="138" y="-213" on="0"/>
        <pt x="28" y="-239" on="1"/>
      </contour>
    </TTGlyph>
    <TTGlyph name="braceright.cap" xMin="11" yMin="-185" xMax="532" yMax="871">
      <component glyphName="braceright" x="11" y="54" flags="0x204"/>
    </TTGlyph>
    <TTGlyph name="bracketleft" xMin="60" yMin="-200" xMax="612" yMax="777">
      <contour>
        <pt x="251" y="777" on="1"/>
        <pt x="612" y="777" on="1"/>
        <pt x="588" y="655" on="1"/>
        <pt x="381" y="655" on="1"/>
        <pt x="240" y="-78" on="1"/>
        <pt x="447" y="-78" on="1"/>
        <pt x="422" y="-200" on="1"/>
        <pt x="60" y="-200" on="1"/>
      </contour>
    </TTGlyph>
    <TTGlyph name="bracketleft.cap" xMin="71" yMin="-146" xMax="623" yMax="831">
      <component glyphName="bracketleft" x="11" y="54" flags="0x204"/>
    </TTGlyph>
    <TTGlyph name="bracketright" xMin="7" yMin="-199" xMax="559" yMax="778">
      <contour>
        <pt x="368" y="-199" on="1"/>
        <pt x="7" y="-199" on="1"/>
        <pt x="31" y="-77" on="1"/>
        <pt x="238" y="-77" on="1"/>
        <pt x="379" y="656" on="1"/>
        <pt x="172" y="656" on="1"/>
        <pt x="197" y="778" on="1"/>
        <pt x="559" y="778" on="1"/>
      </contour>
    </TTGlyph>
    <TTGlyph name="bracketright.cap" xMin="18" yMin="-145" xMax="570" yMax="832">
      <component glyphName="bracketright" x="11" y="54" flags="0x204"/>
    </TTGlyph>
    <TTGlyph name="breve" xMin="114" yMin="626" xMax="574" yMax="851">
      <contour>
        <pt x="574" y="791" on="1"/>
        <pt x="511" y="713" on="0"/>
        <pt x="377" y="626" on="0"/>
        <pt x="311" y="626" on="1"/>
        <pt x="248" y="626" on="0"/>
        <pt x="145" y="709" on="0"/>
        <pt x="114" y="790" on="1"/>
        <pt x="227" y="851" on="1"/>
        <pt x="252" y="796" on="0"/>
        <pt x="305" y="745" on="0"/>
        <pt x="343" y="745" on="1"/>
        <pt x="378" y="745" on="0"/>
        <pt x="445" y="796" on="0"/>
        <pt x="487" y="844" on="1"/>
      </contour>
    </TTGlyph>
    <TTGlyph name="breve.cap" xMin="114" yMin="626" xMax="574" yMax="851">
      <contour>
        <pt x="574" y="791" on="1"/>
        <pt x="511" y="713" on="0"/>
        <pt x="377" y="626" on="0"/>
        <pt x="311" y="626" on="1"/>
        <pt x="248" y="626" on="0"/>
        <pt x="145" y="709" on="0"/>
        <pt x="114" y="790" on="1"/>
        <pt x="227" y="851" on="1"/>
        <pt x="252" y="796" on="0"/>
        <pt x="305" y="745" on="0"/>
        <pt x="343" y="745" on="1"/>
        <pt x="378" y="745" on="0"/>
        <pt x="445" y="796" on="0"/>
        <pt x="487" y="844" on="1"/>
      </contour>
    </TTGlyph>
    <TTGlyph name="bullet" xMin="151" yMin="158" xMax="485" yMax="504">
      <contour>
        <pt x="485" y="353" on="1"/>
        <pt x="485" y="308" on="0"/>
        <pt x="455" y="236" on="0"/>
        <pt x="404" y="185" on="0"/>
        <pt x="338" y="158" on="0"/>
        <pt x="303" y="158" on="1"/>
        <pt x="271" y="158" on="0"/>
        <pt x="216" y="181" on="0"/>
        <pt x="175" y="221" on="0"/>
        <pt x="151" y="278" on="0"/>
        <pt x="151" y="311" on="1"/>
        <pt x="151" y="355" on="0"/>
        <pt x="181" y="426" on="0"/>
        <pt x="232" y="477" on="0"/>
        <pt x="296" y="504" on="0"/>
        <pt x="331" y="504" on="1"/>
        <pt x="365" y="504" on="0"/>
        <pt x="422" y="482" on="0"/>
        <pt x="463" y="442" on="0"/>
        <pt x="485" y="386" on="0"/>
      </contour>
    </TTGlyph>
    <TTGlyph name="bullet.alt" xMin="141" yMin="183" xMax="504" yMax="483">
      <contour>
        <pt x="141" y="183" on="1"/>
        <pt x="202" y="483" on="1"/>
        <pt x="504" y="483" on="1"/>
        <pt x="443" y="183" on="1"/>
      </contour>
    </TTGlyph>
    <TTGlyph name="c" xMin="59" yMin="-13" xMax="572" yMax="578">
      <contour>
        <pt x="430" y="354" on="1"/>
        <pt x="431" y="404" on="0"/>
        <pt x="402" y="447" on="0"/>
        <pt x="367" y="447" on="1"/>
        <pt x="334" y="447" on="0"/>
        <pt x="278" y="412" on="0"/>
        <pt x="237" y="353" on="0"/>
        <pt x="213" y="276" on="0"/>
        <pt x="213" y="234" on="1"/>
        <pt x="213" y="204" on="0"/>
        <pt x="225" y="160" on="0"/>
        <pt x="256" y="132" on="0"/>
        <pt x="309" y="118" on="0"/>
        <pt x="351" y="118" on="1"/>
        <pt x="413" y="118" on="0"/>
        <pt x="518" y="133" on="1"/>
        <pt x="529" y="53" on="1"/>
        <pt x="451" y="18" on="0"/>
        <pt x="324" y="-13" on="0"/>
        <pt x="273" y="-13" on="1"/>
        <pt x="217" y="-13" on="0"/>
        <pt x="137" y="20" on="0"/>
        <pt x="84" y="79" on="0"/>
        <pt x="59" y="157" on="0"/>
        <pt x="59" y="202" on="1"/>
        <pt x="59" y="278" on="0"/>
        <pt x="115" y="415" on="0"/>
        <pt x="211" y="518" on="0"/>
        <pt x="339" y="578" on="0"/>
        <pt x="411" y="578" on="1"/>
        <pt x="491" y="578" on="0"/>
        <pt x="572" y="496" on="0"/>
        <pt x="572" y="400" on="1"/>
        <pt x="572" y="390" on="0"/>
        <pt x="571" y="368" on="0"/>
        <pt x="570" y="356" on="1"/>
      </contour>
    </TTGlyph>
    <TTGlyph name="cacute" xMin="59" yMin="-13" xMax="591" yMax="890">
      <component glyphName="acute" x="73" y="16" flags="0x204"/>
      <component glyphName="c" x="0" y="0" flags="0x4"/>
    </TTGlyph>
    <TTGlyph name="caron" xMin="134" yMin="615" xMax="569" yMax="858">
      <contour>
        <pt x="311" y="615" on="1"/>
        <pt x="134" y="779" on="1"/>
        <pt x="238" y="858" on="1"/>
        <pt x="344" y="752" on="1"/>
        <pt x="501" y="854" on="1"/>
        <pt x="569" y="777" on="1"/>
        <pt x="321" y="615" on="1"/>
      </contour>
    </TTGlyph>
    <TTGlyph name="caron.alt" xMin="279" yMin="604" xMax="483" yMax="895">
      <contour>
        <pt x="483" y="895" on="1"/>
        <pt x="469" y="806" on="0"/>
        <pt x="397" y="669" on="0"/>
        <pt x="343" y="604" on="1"/>
        <pt x="279" y="627" on="1"/>
        <pt x="299" y="694" on="0"/>
        <pt x="317" y="821" on="0"/>
        <pt x="319" y="889" on="1"/>
      </contour>
    </TTGlyph>
    <TTGlyph name="caron.cap" xMin="134" yMin="615" xMax="569" yMax="858">
      <contour>
        <pt x="311" y="615" on="1"/>
        <pt x="134" y="779" on="1"/>
        <pt x="238" y="858" on="1"/>
        <pt x="344" y="752" on="1"/>
        <pt x="501" y="854" on="1"/>
        <pt x="569" y="777" on="1"/>
        <pt x="321" y="615" on="1"/>
      </contour>
    </TTGlyph>
    <TTGlyph name="ccaron" xMin="59" yMin="-13" xMax="638" yMax="874">
      <component glyphName="caron" x="69" y="16" flags="0x204"/>
      <component glyphName="c" x="0" y="0" flags="0x4"/>
    </TTGlyph>
    <TTGlyph name="ccedilla" xMin="59" yMin="-212" xMax="572" yMax="578">
      <contour>
        <pt x="288" y="-212" on="1"/>
        <pt x="289" y="-203" on="0"/>
        <pt x="289" y="-187" on="0"/>
        <pt x="289" y="-179" on="1"/>
        <pt x="289" y="-130" on="0"/>
        <pt x="273" y="-90" on="0"/>
        <pt x="257" y="-90" on="1"/>
        <pt x="237" y="-90" on="0"/>
        <pt x="193" y="-141" on="0"/>
        <pt x="170" y="-187" on="1"/>
        <pt x="94" y="-163" on="1"/>
        <pt x="143" y="-44" on="0"/>
        <pt x="203" y="-5" on="1"/>
        <pt x="128" y="15" on="0"/>
        <pt x="59" y="127" on="0"/>
        <pt x="59" y="202" on="1"/>
        <pt x="59" y="278" on="0"/>
        <pt x="115" y="415" on="0"/>
        <pt x="211" y="518" on="0"/>
        <pt x="339" y="578" on="0"/>
        <pt x="411" y="578" on="1"/>
        <pt x="491" y="578" on="0"/>
        <pt x="572" y="496" on="0"/>
        <pt x="572" y="400" on="1"/>
        <pt x="572" y="390" on="0"/>
        <pt x="571" y="368" on="0"/>
        <pt x="570" y="356" on="1"/>
        <pt x="430" y="354" on="1"/>
        <pt x="430" y="406" on="0"/>
        <pt x="402" y="447" on="0"/>
        <pt x="367" y="447" on="1"/>
        <pt x="334" y="447" on="0"/>
        <pt x="278" y="412" on="0"/>
        <pt x="237" y="353" on="0"/>
        <pt x="213" y="276" on="0"/>
        <pt x="213" y="234" on="1"/>
        <pt x="213" y="204" on="0"/>
        <pt x="225" y="160" on="0"/>
        <pt x="256" y="132" on="0"/>
        <pt x="309" y="118" on="0"/>
        <pt x="351" y="118" on="1"/>
        <pt x="413" y="118" on="0"/>
        <pt x="518" y="133" on="1"/>
        <pt x="529" y="53" on="1"/>
        <pt x="478" y="30" on="0"/>
        <pt x="388" y="2" on="0"/>
        <pt x="349" y="-6" on="1"/>
        <pt x="381" y="-28" on="0"/>
        <pt x="420" y="-116" on="0"/>
        <pt x="420" y="-183" on="1"/>
        <pt x="420" y="-190" on="0"/>
        <pt x="420" y="-202" on="0"/>
        <pt x="419" y="-209" on="1"/>
      </contour>
    </TTGlyph>
    <TTGlyph name="cdotaccent" xMin="59" yMin="-13" xMax="572" yMax="813">
      <component glyphName="c" x="0" y="0" flags="0x204"/>
      <component glyphName="dotaccent" x="84" y="16" flags="0x4"/>
    </TTGlyph>
    <TTGlyph name="cedilla" xMin="125" yMin="-199" xMax="451" yMax="30">
      <contour>
        <pt x="125" y="-150" on="1"/>
        <pt x="163" y="-57" on="0"/>
        <pt x="251" y="30" on="0"/>
        <pt x="306" y="30" on="1"/>
        <pt x="336" y="30" on="0"/>
        <pt x="388" y="5" on="0"/>
        <pt x="428" y="-44" on="0"/>
        <pt x="451" y="-119" on="0"/>
        <pt x="451" y="-170" on="1"/>
        <pt x="451" y="-176" on="0"/>
        <pt x="451" y="-189" on="0"/>
        <pt x="450" y="-196" on="1"/>
        <pt x="319" y="-199" on="1"/>
        <pt x="320" y="-190" on="0"/>
        <pt x="320" y="-174" on="0"/>
        <pt x="320" y="-166" on="1"/>
        <pt x="320" y="-117" on="0"/>
        <pt x="304" y="-77" on="0"/>
        <pt x="288" y="-77" on="1"/>
        <pt x="268" y="-77" on="0"/>
        <pt x="224" y="-128" on="0"/>
        <pt x="201" y="-174" on="1"/>
      </contour>
    </TTGlyph>
    <TTGlyph name="cedilla.cap" xMin="125" yMin="-199" xMax="451" yMax="30">
      <contour>
        <pt x="125" y="-150" on="1"/>
        <pt x="163" y="-57" on="0"/>
        <pt x="251" y="30" on="0"/>
        <pt x="306" y="30" on="1"/>
        <pt x="336" y="30" on="0"/>
        <pt x="388" y="5" on="0"/>
        <pt x="428" y="-44" on="0"/>
        <pt x="451" y="-119" on="0"/>
        <pt x="451" y="-170" on="1"/>
        <pt x="451" y="-176" on="0"/>
        <pt x="451" y="-189" on="0"/>
        <pt x="450" y="-196" on="1"/>
        <pt x="319" y="-199" on="1"/>
        <pt x="320" y="-190" on="0"/>
        <pt x="320" y="-174" on="0"/>
        <pt x="320" y="-166" on="1"/>
        <pt x="320" y="-117" on="0"/>
        <pt x="304" y="-77" on="0"/>
        <pt x="288" y="-77" on="1"/>
        <pt x="268" y="-77" on="0"/>
        <pt x="224" y="-128" on="0"/>
        <pt x="201" y="-174" on="1"/>
      </contour>
    </TTGlyph>
    <TTGlyph name="cent" xMin="68" yMin="-92" xMax="573" yMax="688">
      <contour>
        <pt x="215" y="294" on="1"/>
        <pt x="215" y="264" on="0"/>
        <pt x="247" y="217" on="0"/>
        <pt x="285" y="200" on="1"/>
        <pt x="328" y="396" on="1"/>
        <pt x="294" y="390" on="0"/>
        <pt x="250" y="370" on="0"/>
        <pt x="225" y="343" on="0"/>
        <pt x="215" y="312" on="0"/>
      </contour>
      <contour>
        <pt x="483" y="23" on="1"/>
        <pt x="450" y="25" on="0"/>
        <pt x="390" y="29" on="0"/>
        <pt x="361" y="34" on="1"/>
        <pt x="336" y="-92" on="1"/>
        <pt x="200" y="-92" on="1"/>
        <pt x="237" y="66" on="1"/>
        <pt x="154" y="98" on="0"/>
        <pt x="68" y="200" on="0"/>
        <pt x="68" y="269" on="1"/>
        <pt x="68" y="308" on="0"/>
        <pt x="97" y="390" on="0"/>
        <pt x="161" y="464" on="0"/>
        <pt x="266" y="523" on="0"/>
        <pt x="342" y="538" on="1"/>
        <pt x="371" y="688" on="1"/>
        <pt x="507" y="688" on="1"/>
        <pt x="476" y="550" on="1"/>
        <pt x="499" y="550" on="0"/>
        <pt x="547" y="548" on="0"/>
        <pt x="573" y="546" on="1"/>
        <pt x="545" y="398" on="1"/>
        <pt x="514" y="400" on="0"/>
        <pt x="460" y="403" on="0"/>
        <pt x="436" y="403" on="1"/>
        <pt x="386" y="171" on="1"/>
        <pt x="412" y="166" on="0"/>
        <pt x="473" y="160" on="0"/>
        <pt x="508" y="158" on="1"/>
      </contour>
    </TTGlyph>
    <TTGlyph name="check.1" xMin="57" yMin="-14" xMax="666" yMax="761">
      <contour>
        <pt x="666" y="699" on="1"/>
        <pt x="559" y="536" on="0"/>
        <pt x="373" y="188" on="0"/>
        <pt x="294" y="-14" on="1"/>
        <pt x="159" y="-12" on="1"/>
        <pt x="57" y="393" on="1"/>
        <pt x="198" y="435" on="1"/>
        <pt x="251" y="184" on="1"/>
        <pt x="259" y="183" on="1"/>
        <pt x="310" y="341" on="0"/>
        <pt x="437" y="636" on="0"/>
        <pt x="515" y="761" on="1"/>
        <pt x="666" y="699" on="1"/>
      </contour>
    </TTGlyph>
    <TTGlyph name="check.2" xMin="9" yMin="-16" xMax="654" yMax="765">
      <contour>
        <pt x="253" y="601" on="1"/>
        <pt x="302" y="428" on="1"/>
        <pt x="513" y="765" on="1"/>
        <pt x="654" y="697" on="1"/>
        <pt x="353" y="292" on="1"/>
        <pt x="452" y="10" on="1"/>
        <pt x="300" y="-10" on="1"/>
        <pt x="244" y="174" on="1"/>
        <pt x="106" y="-16" on="1"/>
        <pt x="9" y="27" on="1"/>
        <pt x="197" y="298" on="1"/>
        <pt x="105" y="562" on="1"/>
      </contour>
    </TTGlyph>
    <TTGlyph name="circumflex" xMin="111" yMin="618" xMax="546" yMax="861">
      <contour>
        <pt x="336" y="725" on="1"/>
        <pt x="179" y="623" on="1"/>
        <pt x="111" y="699" on="1"/>
        <pt x="359" y="861" on="1"/>
        <pt x="369" y="861" on="1"/>
        <pt x="546" y="697" on="1"/>
        <pt x="442" y="618" on="1"/>
      </contour>
    </TTGlyph>
    <TTGlyph name="circumflex.cap" xMin="111" yMin="618" xMax="546" yMax="861">
      <contour>
        <pt x="336" y="725" on="1"/>
        <pt x="179" y="623" on="1"/>
        <pt x="111" y="699" on="1"/>
        <pt x="359" y="861" on="1"/>
        <pt x="369" y="861" on="1"/>
        <pt x="546" y="697" on="1"/>
        <pt x="442" y="618" on="1"/>
      </contour>
    </TTGlyph>
    <TTGlyph name="colon" xMin="159" yMin="0" xMax="452" yMax="533">
      <contour>
        <pt x="229" y="346" on="1"/>
        <pt x="263" y="533" on="1"/>
        <pt x="452" y="533" on="1"/>
        <pt x="418" y="346" on="1"/>
      </contour>
      <contour>
        <pt x="159" y="0" on="1"/>
        <pt x="195" y="186" on="1"/>
        <pt x="383" y="186" on="1"/>
        <pt x="349" y="0" on="1"/>
      </contour>
    </TTGlyph>
    <TTGlyph name="colon.alt" xMin="174" yMin="75" xMax="467" yMax="608">
      <contour>
        <pt x="243" y="422" on="1"/>
        <pt x="278" y="608" on="1"/>
        <pt x="467" y="608" on="1"/>
        <pt x="432" y="422" on="1"/>
      </contour>
      <contour>
        <pt x="174" y="75" on="1"/>
        <pt x="209" y="262" on="1"/>
        <pt x="398" y="262" on="1"/>
        <pt x="363" y="75" on="1"/>
      </contour>
    </TTGlyph>
    <TTGlyph name="colonmonetary" xMin="58" yMin="-82" xMax="637" yMax="769">
      <contour>
        <pt x="206" y="317" on="1"/>
        <pt x="206" y="269" on="0"/>
        <pt x="259" y="214" on="0"/>
        <pt x="314" y="197" on="1"/>
        <pt x="395" y="504" on="1"/>
        <pt x="338" y="490" on="0"/>
        <pt x="264" y="449" on="0"/>
        <pt x="222" y="400" on="0"/>
        <pt x="206" y="345" on="0"/>
      </contour>
      <contour>
        <pt x="277" y="61" on="1"/>
        <pt x="251" y="68" on="0"/>
        <pt x="225" y="78" on="1"/>
        <pt x="182" y="-82" on="1"/>
        <pt x="66" y="-82" on="1"/>
        <pt x="127" y="134" on="1"/>
        <pt x="93" y="163" on="0"/>
        <pt x="58" y="242" on="0"/>
        <pt x="58" y="293" on="1"/>
        <pt x="58" y="332" on="0"/>
        <pt x="76" y="412" on="0"/>
        <pt x="119" y="488" on="0"/>
        <pt x="191" y="557" on="0"/>
        <pt x="246" y="585" on="1"/>
        <pt x="293" y="769" on="1"/>
        <pt x="410" y="769" on="1"/>
        <pt x="405" y="749" on="0"/>
        <pt x="399" y="726" on="1"/>
        <pt x="394" y="706" on="0"/>
        <pt x="381" y="658" on="0"/>
        <pt x="374" y="632" on="1"/>
        <pt x="388" y="636" on="0"/>
        <pt x="416" y="642" on="0"/>
        <pt x="432" y="645" on="1"/>
        <pt x="464" y="769" on="1"/>
        <pt x="581" y="769" on="1"/>
        <pt x="551" y="662" on="1"/>
        <pt x="571" y="664" on="0"/>
        <pt x="614" y="666" on="0"/>
        <pt x="637" y="667" on="1"/>
        <pt x="622" y="528" on="1"/>
        <pt x="591" y="528" on="0"/>
        <pt x="536" y="525" on="0"/>
        <pt x="510" y="523" on="1"/>
        <pt x="417" y="172" on="1"/>
        <pt x="442" y="167" on="0"/>
        <pt x="497" y="158" on="0"/>
        <pt x="528" y="153" on="1"/>
        <pt x="471" y="23" on="1"/>
        <pt x="448" y="26" on="0"/>
        <pt x="404" y="32" on="0"/>
        <pt x="384" y="36" on="1"/>
        <pt x="353" y="-82" on="1"/>
        <pt x="237" y="-82" on="1"/>
      </contour>
    </TTGlyph>
    <TTGlyph name="comma" xMin="121" yMin="-158" xMax="384" yMax="193">
      <contour>
        <pt x="121" y="-124" on="1"/>
        <pt x="167" y="-56" on="0"/>
        <pt x="198" y="84" on="0"/>
        <pt x="198" y="167" on="1"/>
        <pt x="198" y="189" on="1"/>
        <pt x="384" y="193" on="1"/>
        <pt x="384" y="140" on="0"/>
        <pt x="356" y="46" on="0"/>
        <pt x="304" y="-40" on="0"/>
        <pt x="230" y="-119" on="0"/>
        <pt x="183" y="-158" on="1"/>
        <pt x="121" y="-124" on="1"/>
      </contour>
    </TTGlyph>
    <TTGlyph name="commaaccent" xMin="176" yMin="-317" xMax="401" yMax="-72">
      <contour>
        <pt x="176" y="-291" on="1"/>
        <pt x="193" y="-249" on="0"/>
        <pt x="211" y="-153" on="0"/>
        <pt x="211" y="-108" on="1"/>
        <pt x="211" y="-99" on="0"/>
        <pt x="211" y="-82" on="0"/>
        <pt x="210" y="-74" on="1"/>
        <pt x="401" y="-72" on="1"/>
        <pt x="388" y="-146" on="0"/>
        <pt x="302" y="-276" on="0"/>
        <pt x="239" y="-317" on="1"/>
        <pt x="176" y="-291" on="1"/>
      </contour>
    </TTGlyph>
    <TTGlyph name="commaaccent.cap" xMin="176" yMin="-317" xMax="401" yMax="-72">
      <contour>
        <pt x="176" y="-291" on="1"/>
        <pt x="193" y="-249" on="0"/>
        <pt x="211" y="-153" on="0"/>
        <pt x="211" y="-108" on="1"/>
        <pt x="211" y="-99" on="0"/>
        <pt x="211" y="-82" on="0"/>
        <pt x="210" y="-74" on="1"/>
        <pt x="401" y="-72" on="1"/>
        <pt x="388" y="-146" on="0"/>
        <pt x="302" y="-276" on="0"/>
        <pt x="239" y="-317" on="1"/>
        <pt x="176" y="-291" on="1"/>
      </contour>
    </TTGlyph>
    <TTGlyph name="commaaccent.rot" xMin="207" yMin="638" xMax="432" yMax="884">
      <contour>
        <pt x="432" y="857" on="1"/>
        <pt x="411" y="807" on="0"/>
        <pt x="393" y="691" on="0"/>
        <pt x="398" y="640" on="1"/>
        <pt x="207" y="638" on="1"/>
        <pt x="219" y="712" on="0"/>
        <pt x="306" y="842" on="0"/>
        <pt x="369" y="884" on="1"/>
        <pt x="432" y="857" on="1"/>
      </contour>
    </TTGlyph>
    <TTGlyph name="copyright" xMin="50" yMin="8" xMax="596" yMax="680">
      <contour>
        <pt x="50" y="279" on="1"/>
        <pt x="50" y="364" on="0"/>
        <pt x="98" y="511" on="0"/>
        <pt x="182" y="619" on="0"/>
        <pt x="297" y="680" on="0"/>
        <pt x="364" y="680" on="1"/>
        <pt x="416" y="680" on="0"/>
        <pt x="501" y="646" on="0"/>
        <pt x="562" y="579" on="0"/>
        <pt x="596" y="480" on="0"/>
        <pt x="596" y="414" on="1"/>
        <pt x="596" y="330" on="0"/>
        <pt x="556" y="182" on="0"/>
        <pt x="479" y="72" on="0"/>
        <pt x="365" y="8" on="0"/>
        <pt x="292" y="8" on="1"/>
        <pt x="239" y="8" on="0"/>
        <pt x="151" y="43" on="0"/>
        <pt x="86" y="111" on="0"/>
        <pt x="50" y="213" on="0"/>
      </contour>
      <contour>
        <pt x="137" y="292" on="1"/>
        <pt x="137" y="238" on="0"/>
        <pt x="163" y="160" on="0"/>
        <pt x="208" y="111" on="0"/>
        <pt x="268" y="87" on="0"/>
        <pt x="303" y="87" on="1"/>
        <pt x="354" y="87" on="0"/>
        <pt x="432" y="136" on="0"/>
        <pt x="484" y="220" on="0"/>
        <pt x="510" y="334" on="0"/>
        <pt x="510" y="400" on="1"/>
        <pt x="510" y="455" on="0"/>
        <pt x="486" y="532" on="0"/>
        <pt x="444" y="580" on="0"/>
        <pt x="387" y="602" on="0"/>
        <pt x="354" y="602" on="1"/>
        <pt x="308" y="602" on="0"/>
        <pt x="229" y="555" on="0"/>
        <pt x="170" y="471" on="0"/>
        <pt x="137" y="358" on="0"/>
      </contour>
      <contour>
        <pt x="354" y="515" on="1"/>
        <pt x="394" y="515" on="0"/>
        <pt x="440" y="458" on="0"/>
        <pt x="440" y="398" on="1"/>
        <pt x="440" y="387" on="1"/>
        <pt x="360" y="386" on="1"/>
        <pt x="360" y="389" on="1"/>
        <pt x="360" y="406" on="0"/>
        <pt x="347" y="420" on="0"/>
        <pt x="339" y="420" on="1"/>
        <pt x="330" y="420" on="0"/>
        <pt x="314" y="403" on="0"/>
        <pt x="303" y="376" on="0"/>
        <pt x="297" y="340" on="0"/>
        <pt x="297" y="321" on="1"/>
        <pt x="297" y="294" on="0"/>
        <pt x="320" y="264" on="0"/>
        <pt x="353" y="264" on="1"/>
        <pt x="377" y="264" on="0"/>
        <pt x="408" y="271" on="1"/>
        <pt x="391" y="184" on="1"/>
        <pt x="351" y="171" on="0"/>
        <pt x="316" y="171" on="1"/>
        <pt x="256" y="171" on="0"/>
        <pt x="201" y="246" on="0"/>
        <pt x="201" y="303" on="1"/>
        <pt x="201" y="345" on="0"/>
        <pt x="225" y="422" on="0"/>
        <pt x="266" y="480" on="0"/>
        <pt x="322" y="515" on="0"/>
      </contour>
    </TTGlyph>
    <TTGlyph name="d" xMin="41" yMin="-14" xMax="623" yMax="784">
      <contour>
        <pt x="247" y="130" on="1"/>
        <pt x="269" y="130" on="0"/>
        <pt x="329" y="165" on="0"/>
        <pt x="358" y="191" on="1"/>
        <pt x="405" y="435" on="1"/>
        <pt x="379" y="443" on="0"/>
        <pt x="336" y="451" on="0"/>
        <pt x="322" y="451" on="1"/>
        <pt x="298" y="451" on="0"/>
        <pt x="252" y="407" on="0"/>
        <pt x="216" y="338" on="0"/>
        <pt x="195" y="256" on="0"/>
        <pt x="195" y="218" on="1"/>
        <pt x="195" y="170" on="0"/>
        <pt x="225" y="130" on="0"/>
      </contour>
      <contour>
        <pt x="591" y="53" on="1"/>
        <pt x="531" y="19" on="0"/>
        <pt x="445" y="-12" on="0"/>
        <pt x="416" y="-12" on="1"/>
        <pt x="379" y="-12" on="0"/>
        <pt x="349" y="36" on="0"/>
        <pt x="349" y="79" on="1"/>
        <pt x="349" y="92" on="1"/>
        <pt x="304" y="47" on="0"/>
        <pt x="206" y="-14" on="0"/>
        <pt x="162" y="-14" on="1"/>
        <pt x="137" y="-14" on="0"/>
        <pt x="93" y="9" on="0"/>
        <pt x="60" y="55" on="0"/>
        <pt x="41" y="125" on="0"/>
        <pt x="41" y="172" on="1"/>
        <pt x="41" y="247" on="0"/>
        <pt x="89" y="392" on="0"/>
        <pt x="181" y="507" on="0"/>
        <pt x="311" y="578" on="0"/>
        <pt x="394" y="578" on="1"/>
        <pt x="403" y="578" on="0"/>
        <pt x="422" y="578" on="0"/>
        <pt x="433" y="576" on="1"/>
        <pt x="471" y="773" on="1"/>
        <pt x="623" y="784" on="1"/>
        <pt x="501" y="153" on="1"/>
        <pt x="498" y="139" on="0"/>
        <pt x="498" y="131" on="1"/>
        <pt x="498" y="123" on="0"/>
        <pt x="505" y="116" on="0"/>
        <pt x="516" y="116" on="1"/>
        <pt x="525" y="116" on="0"/>
        <pt x="556" y="122" on="0"/>
        <pt x="580" y="127" on="1"/>
      </contour>
    </TTGlyph>
    <TTGlyph name="dagger" xMin="130" yMin="119" xMax="605" yMax="778">
      <contour>
        <pt x="226" y="119" on="1"/>
        <pt x="205" y="132" on="1"/>
        <pt x="288" y="503" on="1"/>
        <pt x="130" y="518" on="1"/>
        <pt x="155" y="640" on="1"/>
        <pt x="316" y="625" on="1"/>
        <pt x="350" y="778" on="1"/>
        <pt x="498" y="765" on="1"/>
        <pt x="460" y="611" on="1"/>
        <pt x="605" y="597" on="1"/>
        <pt x="581" y="476" on="1"/>
        <pt x="429" y="490" on="1"/>
        <pt x="333" y="155" on="1"/>
      </contour>
    </TTGlyph>
    <TTGlyph name="daggerdbl" xMin="87" yMin="61" xMax="605" yMax="778">
      <contour>
        <pt x="212" y="61" on="1"/>
        <pt x="192" y="75" on="1"/>
        <pt x="238" y="282" on="1"/>
        <pt x="87" y="296" on="1"/>
        <pt x="111" y="418" on="1"/>
        <pt x="266" y="403" on="1"/>
        <pt x="288" y="503" on="1"/>
        <pt x="130" y="518" on="1"/>
        <pt x="155" y="640" on="1"/>
        <pt x="316" y="625" on="1"/>
        <pt x="350" y="778" on="1"/>
        <pt x="498" y="765" on="1"/>
        <pt x="460" y="611" on="1"/>
        <pt x="605" y="597" on="1"/>
        <pt x="581" y="476" on="1"/>
        <pt x="428" y="490" on="1"/>
        <pt x="401" y="390" on="1"/>
        <pt x="562" y="375" on="1"/>
        <pt x="538" y="254" on="1"/>
        <pt x="367" y="270" on="1"/>
        <pt x="320" y="99" on="1"/>
      </contour>
    </TTGlyph>
    <TTGlyph name="dcaron" xMin="41" yMin="-14" xMax="863" yMax="895">
      <component glyphName="caron.alt" x="380" y="0" flags="0x204"/>
      <component glyphName="d" x="0" y="0" flags="0x4"/>
    </TTGlyph>
    <TTGlyph name="dcroat" xMin="41" yMin="-14" xMax="674" yMax="784">
      <contour>
        <pt x="247" y="130" on="1"/>
        <pt x="269" y="130" on="0"/>
        <pt x="329" y="165" on="0"/>
        <pt x="358" y="191" on="1"/>
        <pt x="405" y="435" on="1"/>
        <pt x="379" y="443" on="0"/>
        <pt x="336" y="451" on="0"/>
        <pt x="322" y="451" on="1"/>
        <pt x="298" y="451" on="0"/>
        <pt x="252" y="407" on="0"/>
        <pt x="216" y="338" on="0"/>
        <pt x="195" y="256" on="0"/>
        <pt x="195" y="218" on="1"/>
        <pt x="195" y="170" on="0"/>
        <pt x="225" y="130" on="0"/>
      </contour>
      <contour>
        <pt x="591" y="53" on="1"/>
        <pt x="531" y="19" on="0"/>
        <pt x="445" y="-12" on="0"/>
        <pt x="416" y="-12" on="1"/>
        <pt x="379" y="-12" on="0"/>
        <pt x="349" y="36" on="0"/>
        <pt x="349" y="79" on="1"/>
        <pt x="349" y="92" on="1"/>
        <pt x="304" y="47" on="0"/>
        <pt x="206" y="-14" on="0"/>
        <pt x="162" y="-14" on="1"/>
        <pt x="137" y="-14" on="0"/>
        <pt x="93" y="9" on="0"/>
        <pt x="60" y="55" on="0"/>
        <pt x="41" y="125" on="0"/>
        <pt x="41" y="172" on="1"/>
        <pt x="41" y="247" on="0"/>
        <pt x="89" y="392" on="0"/>
        <pt x="181" y="507" on="0"/>
        <pt x="311" y="578" on="0"/>
        <pt x="394" y="578" on="1"/>
        <pt x="403" y="578" on="0"/>
        <pt x="422" y="578" on="0"/>
        <pt x="433" y="576" on="1"/>
        <pt x="442" y="624" on="1"/>
        <pt x="309" y="624" on="1"/>
        <pt x="328" y="719" on="1"/>
        <pt x="461" y="719" on="1"/>
        <pt x="471" y="773" on="1"/>
        <pt x="623" y="784" on="1"/>
        <pt x="610" y="719" on="1"/>
        <pt x="674" y="719" on="1"/>
        <pt x="655" y="623" on="1"/>
        <pt x="592" y="623" on="1"/>
        <pt x="501" y="153" on="1"/>
        <pt x="498" y="139" on="0"/>
        <pt x="498" y="131" on="1"/>
        <pt x="498" y="123" on="0"/>
        <pt x="505" y="116" on="0"/>
        <pt x="516" y="116" on="1"/>
        <pt x="525" y="116" on="0"/>
        <pt x="556" y="122" on="0"/>
        <pt x="580" y="127" on="1"/>
      </contour>
    </TTGlyph>
    <TTGlyph name="degree" xMin="138" yMin="319" xMax="575" yMax="764">
      <contour>
        <pt x="377" y="764" on="1"/>
        <pt x="420" y="764" on="0"/>
        <pt x="492" y="735" on="0"/>
        <pt x="545" y="683" on="0"/>
        <pt x="575" y="607" on="0"/>
        <pt x="575" y="561" on="1"/>
        <pt x="575" y="506" on="0"/>
        <pt x="535" y="417" on="0"/>
        <pt x="469" y="354" on="0"/>
        <pt x="383" y="319" on="0"/>
        <pt x="337" y="319" on="1"/>
        <pt x="294" y="319" on="0"/>
        <pt x="221" y="347" on="0"/>
        <pt x="168" y="399" on="0"/>
        <pt x="138" y="475" on="0"/>
        <pt x="138" y="522" on="1"/>
        <pt x="138" y="576" on="0"/>
        <pt x="177" y="666" on="0"/>
        <pt x="243" y="729" on="0"/>
        <pt x="330" y="764" on="0"/>
      </contour>
      <contour>
        <pt x="351" y="433" on="1"/>
        <pt x="395" y="433" on="0"/>
        <pt x="453" y="497" on="0"/>
        <pt x="453" y="548" on="1"/>
        <pt x="453" y="593" on="0"/>
        <pt x="402" y="649" on="0"/>
        <pt x="362" y="649" on="1"/>
        <pt x="317" y="649" on="0"/>
        <pt x="260" y="586" on="0"/>
        <pt x="260" y="534" on="1"/>
        <pt x="260" y="489" on="0"/>
        <pt x="311" y="433" on="0"/>
      </contour>
    </TTGlyph>
    <TTGlyph name="dieresis" xMin="105" yMin="642" xMax="571" yMax="799">
      <contour>
        <pt x="356" y="644" on="1"/>
        <pt x="393" y="796" on="1"/>
        <pt x="571" y="799" on="1"/>
        <pt x="521" y="645" on="1"/>
      </contour>
      <contour>
        <pt x="105" y="642" on="1"/>
        <pt x="144" y="795" on="1"/>
        <pt x="320" y="797" on="1"/>
        <pt x="271" y="644" on="1"/>
      </contour>
    </TTGlyph>
    <TTGlyph name="dieresis.cap" xMin="105" yMin="642" xMax="571" yMax="799">
      <contour>
        <pt x="356" y="644" on="1"/>
        <pt x="393" y="796" on="1"/>
        <pt x="571" y="799" on="1"/>
        <pt x="521" y="645" on="1"/>
      </contour>
      <contour>
        <pt x="105" y="642" on="1"/>
        <pt x="144" y="795" on="1"/>
        <pt x="320" y="797" on="1"/>
        <pt x="271" y="644" on="1"/>
      </contour>
    </TTGlyph>
    <TTGlyph name="divide" xMin="61" yMin="63" xMax="586" yMax="609">
      <contour>
        <pt x="270" y="465" on="1"/>
        <pt x="300" y="609" on="1"/>
        <pt x="458" y="609" on="1"/>
        <pt x="427" y="465" on="1"/>
      </contour>
      <contour>
        <pt x="560" y="271" on="1"/>
        <pt x="61" y="271" on="1"/>
        <pt x="87" y="402" on="1"/>
        <pt x="586" y="402" on="1"/>
      </contour>
      <contour>
        <pt x="191" y="63" on="1"/>
        <pt x="222" y="208" on="1"/>
        <pt x="379" y="208" on="1"/>
        <pt x="348" y="63" on="1"/>
      </contour>
    </TTGlyph>
    <TTGlyph name="dollar" xMin="38" yMin="-77" xMax="588" yMax="763">
      <contour>
        <pt x="132" y="-77" on="1"/>
        <pt x="167" y="42" on="1"/>
        <pt x="108" y="48" on="0"/>
        <pt x="38" y="60" on="1"/>
        <pt x="67" y="199" on="1"/>
        <pt x="236" y="160" on="0"/>
        <pt x="310" y="160" on="1"/>
        <pt x="378" y="160" on="0"/>
        <pt x="378" y="190" on="1"/>
        <pt x="378" y="206" on="0"/>
        <pt x="339" y="247" on="0"/>
        <pt x="279" y="293" on="0"/>
        <pt x="211" y="346" on="0"/>
        <pt x="151" y="404" on="0"/>
        <pt x="112" y="467" on="0"/>
        <pt x="112" y="501" on="1"/>
        <pt x="112" y="528" on="0"/>
        <pt x="138" y="580" on="0"/>
        <pt x="196" y="622" on="0"/>
        <pt x="288" y="648" on="0"/>
        <pt x="353" y="650" on="1"/>
        <pt x="384" y="763" on="1"/>
        <pt x="523" y="763" on="1"/>
        <pt x="484" y="643" on="1"/>
        <pt x="508" y="640" on="0"/>
        <pt x="560" y="631" on="0"/>
        <pt x="588" y="626" on="1"/>
        <pt x="559" y="487" on="1"/>
        <pt x="479" y="509" on="0"/>
        <pt x="368" y="529" on="0"/>
        <pt x="333" y="529" on="1"/>
        <pt x="273" y="529" on="0"/>
        <pt x="273" y="501" on="1"/>
        <pt x="273" y="485" on="0"/>
        <pt x="312" y="445" on="0"/>
        <pt x="371" y="398" on="0"/>
        <pt x="440" y="344" on="0"/>
        <pt x="499" y="284" on="0"/>
        <pt x="538" y="219" on="0"/>
        <pt x="538" y="185" on="1"/>
        <pt x="538" y="159" on="0"/>
        <pt x="513" y="108" on="0"/>
        <pt x="457" y="68" on="0"/>
        <pt x="365" y="41" on="0"/>
        <pt x="299" y="38" on="1"/>
        <pt x="270" y="-77" on="1"/>
      </contour>
    </TTGlyph>
    <TTGlyph name="dotaccent" xMin="215" yMin="643" xMax="434" yMax="797">
      <contour>
        <pt x="215" y="643" on="1"/>
        <pt x="252" y="796" on="1"/>
        <pt x="434" y="797" on="1"/>
        <pt x="384" y="644" on="1"/>
      </contour>
    </TTGlyph>
    <TTGlyph name="dotaccent.cap" xMin="215" yMin="643" xMax="434" yMax="797">
      <contour>
        <pt x="215" y="643" on="1"/>
        <pt x="252" y="796" on="1"/>
        <pt x="434" y="797" on="1"/>
        <pt x="384" y="644" on="1"/>
      </contour>
    </TTGlyph>
    <TTGlyph name="dotlessi" xMin="79" yMin="-12" xMax="554" yMax="563">
      <contour>
        <pt x="554" y="60" on="1"/>
        <pt x="468" y="22" on="0"/>
        <pt x="340" y="-12" on="0"/>
        <pt x="295" y="-12" on="1"/>
        <pt x="234" y="-12" on="0"/>
        <pt x="178" y="45" on="0"/>
        <pt x="178" y="97" on="1"/>
        <pt x="178" y="115" on="0"/>
        <pt x="185" y="156" on="0"/>
        <pt x="191" y="179" on="1"/>
        <pt x="262" y="437" on="1"/>
        <pt x="90" y="432" on="1"/>
        <pt x="79" y="509" on="1"/>
        <pt x="313" y="563" on="1"/>
        <pt x="441" y="563" on="1"/>
        <pt x="349" y="208" on="1"/>
        <pt x="344" y="191" on="0"/>
        <pt x="339" y="165" on="0"/>
        <pt x="339" y="155" on="1"/>
        <pt x="339" y="137" on="0"/>
        <pt x="362" y="121" on="0"/>
        <pt x="392" y="121" on="1"/>
        <pt x="415" y="121" on="0"/>
        <pt x="488" y="131" on="0"/>
        <pt x="542" y="139" on="1"/>
        <pt x="554" y="60" on="1"/>
      </contour>
    </TTGlyph>
    <TTGlyph name="e" xMin="54" yMin="-13" xMax="579" yMax="579">
      <contour>
        <pt x="552" y="67" on="1"/>
        <pt x="468" y="25" on="0"/>
        <pt x="330" y="-13" on="0"/>
        <pt x="274" y="-13" on="1"/>
        <pt x="219" y="-13" on="0"/>
        <pt x="136" y="20" on="0"/>
        <pt x="81" y="78" on="0"/>
        <pt x="54" y="157" on="0"/>
        <pt x="54" y="203" on="1"/>
        <pt x="54" y="271" on="0"/>
        <pt x="109" y="405" on="0"/>
        <pt x="205" y="512" on="0"/>
        <pt x="334" y="579" on="0"/>
        <pt x="408" y="579" on="1"/>
        <pt x="487" y="579" on="0"/>
        <pt x="579" y="501" on="0"/>
        <pt x="579" y="432" on="1"/>
        <pt x="579" y="334" on="0"/>
        <pt x="389" y="219" on="0"/>
        <pt x="203" y="205" on="1"/>
        <pt x="206" y="160" on="0"/>
        <pt x="256" y="118" on="0"/>
        <pt x="320" y="118" on="1"/>
        <pt x="358" y="118" on="0"/>
        <pt x="465" y="131" on="0"/>
        <pt x="538" y="145" on="1"/>
      </contour>
      <contour>
        <pt x="364" y="455" on="1"/>
        <pt x="335" y="455" on="0"/>
        <pt x="286" y="428" on="0"/>
        <pt x="245" y="381" on="0"/>
        <pt x="216" y="320" on="0"/>
        <pt x="209" y="287" on="1"/>
        <pt x="315" y="295" on="0"/>
        <pt x="433" y="348" on="0"/>
        <pt x="433" y="396" on="1"/>
        <pt x="433" y="422" on="0"/>
        <pt x="396" y="455" on="0"/>
      </contour>
    </TTGlyph>
    <TTGlyph name="eacute" xMin="54" yMin="-13" xMax="599" yMax="891">
      <component glyphName="acute" x="81" y="17" flags="0x204"/>
      <component glyphName="e" x="0" y="0" flags="0x4"/>
    </TTGlyph>
    <TTGlyph name="ebreve" xMin="54" yMin="-13" xMax="660" yMax="868">
      <component glyphName="e" x="0" y="0" flags="0x204"/>
      <component glyphName="breve" x="86" y="17" flags="0x4"/>
    </TTGlyph>
    <TTGlyph name="ecaron" xMin="54" yMin="-13" xMax="645" yMax="875">
      <component glyphName="caron" x="76" y="17" flags="0x204"/>
      <component glyphName="e" x="0" y="0" flags="0x4"/>
    </TTGlyph>
    <TTGlyph name="ecircumflex" xMin="54" yMin="-13" xMax="629" yMax="878">
      <component glyphName="circumflex" x="83" y="17" flags="0x204"/>
      <component glyphName="e" x="0" y="0" flags="0x4"/>
    </TTGlyph>
    <TTGlyph name="edieresis" xMin="54" yMin="-13" xMax="650" yMax="816">
      <component glyphName="dieresis" x="79" y="17" flags="0x204"/>
      <component glyphName="e" x="0" y="0" flags="0x4"/>
    </TTGlyph>
    <TTGlyph name="edotaccent" xMin="54" yMin="-13" xMax="579" yMax="814">
      <component glyphName="e" x="0" y="0" flags="0x204"/>
      <component glyphName="dotaccent" x="92" y="17" flags="0x4"/>
    </TTGlyph>
    <TTGlyph name="egrave" xMin="54" yMin="-13" xMax="590" yMax="894">
      <component glyphName="e" x="0" y="0" flags="0x204"/>
      <component glyphName="grave" x="100" y="17" flags="0x4"/>
    </TTGlyph>
    <TTGlyph name="eight" xMin="45" yMin="-14" xMax="603" yMax="701">
      <contour>
        <pt x="526" y="179" on="1"/>
        <pt x="526" y="139" on="0"/>
        <pt x="486" y="69" on="0"/>
        <pt x="416" y="16" on="0"/>
        <pt x="318" y="-14" on="0"/>
        <pt x="260" y="-14" on="1"/>
        <pt x="158" y="-14" on="0"/>
        <pt x="45" y="73" on="0"/>
        <pt x="45" y="142" on="1"/>
        <pt x="45" y="166" on="0"/>
        <pt x="60" y="214" on="0"/>
        <pt x="99" y="266" on="0"/>
        <pt x="165" y="324" on="0"/>
        <pt x="217" y="359" on="1"/>
        <pt x="183" y="394" on="0"/>
        <pt x="135" y="469" on="0"/>
        <pt x="135" y="512" on="1"/>
        <pt x="135" y="551" on="0"/>
        <pt x="179" y="619" on="0"/>
        <pt x="264" y="671" on="0"/>
        <pt x="388" y="701" on="0"/>
        <pt x="468" y="701" on="1"/>
        <pt x="484" y="701" on="0"/>
        <pt x="516" y="701" on="0"/>
        <pt x="533" y="699" on="1"/>
        <pt x="489" y="554" on="1"/>
        <pt x="398" y="573" on="0"/>
        <pt x="350" y="573" on="1"/>
        <pt x="308" y="573" on="0"/>
        <pt x="278" y="550" on="0"/>
        <pt x="278" y="532" on="1"/>
        <pt x="278" y="510" on="0"/>
        <pt x="314" y="462" on="0"/>
        <pt x="342" y="436" on="1"/>
        <pt x="387" y="462" on="0"/>
        <pt x="495" y="519" on="0"/>
        <pt x="559" y="552" on="1"/>
        <pt x="603" y="465" on="1"/>
        <pt x="547" y="436" on="0"/>
        <pt x="456" y="386" on="0"/>
        <pt x="418" y="364" on="1"/>
        <pt x="439" y="344" on="0"/>
        <pt x="478" y="301" on="0"/>
        <pt x="508" y="254" on="0"/>
        <pt x="526" y="205" on="0"/>
      </contour>
      <contour>
        <pt x="291" y="104" on="1"/>
        <pt x="333" y="104" on="0"/>
        <pt x="388" y="140" on="0"/>
        <pt x="388" y="169" on="1"/>
        <pt x="388" y="197" on="0"/>
        <pt x="333" y="257" on="0"/>
        <pt x="295" y="290" on="1"/>
        <pt x="261" y="267" on="0"/>
        <pt x="220" y="233" on="0"/>
        <pt x="197" y="205" on="0"/>
        <pt x="189" y="183" on="0"/>
        <pt x="189" y="173" on="1"/>
        <pt x="189" y="156" on="0"/>
        <pt x="206" y="130" on="0"/>
        <pt x="234" y="113" on="0"/>
        <pt x="271" y="104" on="0"/>
      </contour>
    </TTGlyph>
    <TTGlyph name="eight.den" xMin="58" yMin="-244" xMax="461" yMax="219">
      <component glyphName="eight.num" x="-122" y="-705" flags="0x204"/>
    </TTGlyph>
    <TTGlyph name="eight.inf" xMin="72" yMin="-178" xMax="475" yMax="285">
      <component glyphName="eight.num" x="-108" y="-639" flags="0x204"/>
    </TTGlyph>
    <TTGlyph name="eight.num" xMin="180" yMin="461" xMax="583" yMax="924">
      <contour>
        <pt x="536" y="590" on="1"/>
        <pt x="536" y="563" on="0"/>
        <pt x="508" y="516" on="0"/>
        <pt x="456" y="481" on="0"/>
        <pt x="384" y="461" on="0"/>
        <pt x="341" y="461" on="1"/>
        <pt x="264" y="461" on="0"/>
        <pt x="180" y="519" on="0"/>
        <pt x="180" y="566" on="1"/>
        <pt x="180" y="582" on="0"/>
        <pt x="190" y="614" on="0"/>
        <pt x="217" y="647" on="0"/>
        <pt x="262" y="683" on="0"/>
        <pt x="298" y="703" on="1"/>
        <pt x="274" y="723" on="0"/>
        <pt x="241" y="769" on="0"/>
        <pt x="241" y="795" on="1"/>
        <pt x="241" y="820" on="0"/>
        <pt x="270" y="867" on="0"/>
        <pt x="325" y="903" on="0"/>
        <pt x="408" y="924" on="0"/>
        <pt x="462" y="924" on="1"/>
        <pt x="498" y="924" on="0"/>
        <pt x="542" y="918" on="1"/>
        <pt x="501" y="809" on="1"/>
        <pt x="463" y="820" on="0"/>
        <pt x="410" y="829" on="0"/>
        <pt x="393" y="829" on="1"/>
        <pt x="370" y="829" on="0"/>
        <pt x="352" y="816" on="0"/>
        <pt x="352" y="805" on="1"/>
        <pt x="352" y="793" on="0"/>
        <pt x="376" y="767" on="0"/>
        <pt x="396" y="753" on="1"/>
        <pt x="428" y="767" on="0"/>
        <pt x="504" y="800" on="0"/>
        <pt x="549" y="818" on="1"/>
        <pt x="583" y="754" on="1"/>
        <pt x="547" y="740" on="0"/>
        <pt x="487" y="714" on="0"/>
        <pt x="461" y="703" on="1"/>
        <pt x="491" y="679" on="0"/>
        <pt x="536" y="623" on="0"/>
      </contour>
      <contour>
        <pt x="363" y="549" on="1"/>
        <pt x="391" y="549" on="0"/>
        <pt x="426" y="570" on="0"/>
        <pt x="426" y="586" on="1"/>
        <pt x="426" y="602" on="0"/>
        <pt x="388" y="636" on="0"/>
        <pt x="362" y="655" on="1"/>
        <pt x="340" y="643" on="0"/>
        <pt x="313" y="624" on="0"/>
        <pt x="298" y="608" on="0"/>
        <pt x="293" y="596" on="0"/>
        <pt x="293" y="590" on="1"/>
        <pt x="293" y="570" on="0"/>
        <pt x="334" y="549" on="0"/>
      </contour>
    </TTGlyph>
    <TTGlyph name="eight.sup" xMin="158" yMin="350" xMax="561" yMax="813">
      <component glyphName="eight.num" x="-22" y="-111" flags="0x204"/>
    </TTGlyph>
    <TTGlyph name="ellipsis" xMin="-22" yMin="0" xMax="574" yMax="194">
      <contour>
        <pt x="-22" y="0" on="1"/>
        <pt x="23" y="194" on="1"/>
        <pt x="168" y="194" on="1"/>
        <pt x="124" y="0" on="1"/>
      </contour>
      <contour>
        <pt x="384" y="0" on="1"/>
        <pt x="429" y="194" on="1"/>
        <pt x="574" y="194" on="1"/>
        <pt x="530" y="0" on="1"/>
      </contour>
      <contour>
        <pt x="181" y="0" on="1"/>
        <pt x="226" y="194" on="1"/>
        <pt x="371" y="194" on="1"/>
        <pt x="327" y="0" on="1"/>
      </contour>
    </TTGlyph>
    <TTGlyph name="emacron" xMin="54" yMin="-13" xMax="630" yMax="802">
      <component glyphName="e" x="0" y="0" flags="0x204"/>
      <component glyphName="macron" x="90" y="17" flags="0x4"/>
    </TTGlyph>
    <TTGlyph name="emdash" xMin="72" yMin="274" xMax="595" yMax="396">
      <contour>
        <pt x="571" y="274" on="1"/>
        <pt x="72" y="274" on="1"/>
        <pt x="97" y="396" on="1"/>
        <pt x="595" y="396" on="1"/>
      </contour>
    </TTGlyph>
    <TTGlyph name="endash" xMin="81" yMin="274" xMax="565" yMax="396">
      <contour>
        <pt x="542" y="274" on="1"/>
        <pt x="81" y="274" on="1"/>
        <pt x="105" y="396" on="1"/>
        <pt x="565" y="396" on="1"/>
      </contour>
    </TTGlyph>
    <TTGlyph name="eogonek" xMin="54" yMin="-236" xMax="579" yMax="579">
      <contour>
        <pt x="492" y="-188" on="1"/>
        <pt x="437" y="-214" on="0"/>
        <pt x="348" y="-236" on="0"/>
        <pt x="313" y="-236" on="1"/>
        <pt x="256" y="-236" on="0"/>
        <pt x="197" y="-185" on="0"/>
        <pt x="197" y="-147" on="1"/>
        <pt x="197" y="-114" on="0"/>
        <pt x="248" y="-44" on="0"/>
        <pt x="307" y="-11" on="1"/>
        <pt x="298" y="-12" on="0"/>
        <pt x="280" y="-13" on="0"/>
        <pt x="272" y="-13" on="1"/>
        <pt x="218" y="-13" on="0"/>
        <pt x="136" y="20" on="0"/>
        <pt x="81" y="79" on="0"/>
        <pt x="54" y="158" on="0"/>
        <pt x="54" y="203" on="1"/>
        <pt x="54" y="271" on="0"/>
        <pt x="109" y="405" on="0"/>
        <pt x="205" y="512" on="0"/>
        <pt x="334" y="579" on="0"/>
        <pt x="408" y="579" on="1"/>
        <pt x="487" y="579" on="0"/>
        <pt x="579" y="501" on="0"/>
        <pt x="579" y="432" on="1"/>
        <pt x="579" y="334" on="0"/>
        <pt x="389" y="219" on="0"/>
        <pt x="203" y="205" on="1"/>
        <pt x="206" y="160" on="0"/>
        <pt x="256" y="118" on="0"/>
        <pt x="320" y="118" on="1"/>
        <pt x="358" y="118" on="0"/>
        <pt x="465" y="131" on="0"/>
        <pt x="538" y="145" on="1"/>
        <pt x="552" y="67" on="1"/>
        <pt x="519" y="49" on="0"/>
        <pt x="443" y="7" on="0"/>
        <pt x="378" y="-37" on="0"/>
        <pt x="336" y="-81" on="0"/>
        <pt x="336" y="-101" on="1"/>
        <pt x="336" y="-116" on="0"/>
        <pt x="361" y="-134" on="0"/>
        <pt x="389" y="-134" on="1"/>
        <pt x="406" y="-134" on="0"/>
        <pt x="449" y="-127" on="0"/>
        <pt x="478" y="-119" on="1"/>
      </contour>
      <contour>
        <pt x="364" y="455" on="1"/>
        <pt x="335" y="455" on="0"/>
        <pt x="286" y="428" on="0"/>
        <pt x="245" y="381" on="0"/>
        <pt x="216" y="320" on="0"/>
        <pt x="209" y="287" on="1"/>
        <pt x="315" y="295" on="0"/>
        <pt x="433" y="348" on="0"/>
        <pt x="433" y="396" on="1"/>
        <pt x="433" y="422" on="0"/>
        <pt x="396" y="455" on="0"/>
      </contour>
    </TTGlyph>
    <TTGlyph name="equal" xMin="51" yMin="152" xMax="598" yMax="526">
      <contour>
        <pt x="572" y="395" on="1"/>
        <pt x="99" y="395" on="1"/>
        <pt x="126" y="526" on="1"/>
        <pt x="598" y="526" on="1"/>
      </contour>
      <contour>
        <pt x="524" y="152" on="1"/>
        <pt x="51" y="152" on="1"/>
        <pt x="78" y="284" on="1"/>
        <pt x="551" y="284" on="1"/>
      </contour>
    </TTGlyph>
    <TTGlyph name="eth" xMin="49" yMin="-17" xMax="580" yMax="795">
      <contour>
        <pt x="265" y="-17" on="1"/>
        <pt x="215" y="-17" on="0"/>
        <pt x="135" y="14" on="0"/>
        <pt x="79" y="71" on="0"/>
        <pt x="49" y="151" on="0"/>
        <pt x="49" y="199" on="1"/>
        <pt x="49" y="263" on="0"/>
        <pt x="98" y="377" on="0"/>
        <pt x="184" y="463" on="0"/>
        <pt x="298" y="514" on="0"/>
        <pt x="363" y="514" on="1"/>
        <pt x="369" y="514" on="0"/>
        <pt x="380" y="514" on="0"/>
        <pt x="386" y="513" on="1"/>
        <pt x="371" y="547" on="0"/>
        <pt x="348" y="581" on="1"/>
        <pt x="206" y="541" on="1"/>
        <pt x="181" y="625" on="1"/>
        <pt x="289" y="655" on="1"/>
        <pt x="259" y="688" on="0"/>
        <pt x="222" y="722" on="1"/>
        <pt x="344" y="795" on="1"/>
        <pt x="370" y="772" on="0"/>
        <pt x="417" y="723" on="0"/>
        <pt x="438" y="697" on="1"/>
        <pt x="559" y="731" on="1"/>
        <pt x="580" y="647" on="1"/>
        <pt x="493" y="622" on="1"/>
        <pt x="531" y="561" on="0"/>
        <pt x="574" y="428" on="0"/>
        <pt x="574" y="353" on="1"/>
        <pt x="574" y="272" on="0"/>
        <pt x="527" y="137" on="0"/>
        <pt x="444" y="38" on="0"/>
        <pt x="331" y="-17" on="0"/>
      </contour>
      <contour>
        <pt x="291" y="105" on="1"/>
        <pt x="322" y="105" on="0"/>
        <pt x="370" y="142" on="0"/>
        <pt x="404" y="205" on="0"/>
        <pt x="422" y="291" on="0"/>
        <pt x="422" y="339" on="1"/>
        <pt x="422" y="348" on="0"/>
        <pt x="422" y="366" on="0"/>
        <pt x="421" y="374" on="1"/>
        <pt x="392" y="385" on="0"/>
        <pt x="342" y="395" on="0"/>
        <pt x="327" y="395" on="1"/>
        <pt x="300" y="395" on="0"/>
        <pt x="256" y="367" on="0"/>
        <pt x="224" y="320" on="0"/>
        <pt x="206" y="259" on="0"/>
        <pt x="206" y="226" on="1"/>
        <pt x="206" y="169" on="0"/>
        <pt x="250" y="105" on="0"/>
      </contour>
    </TTGlyph>
    <TTGlyph name="exclam" xMin="159" yMin="0" xMax="502" yMax="753">
      <contour>
        <pt x="258" y="285" on="1"/>
        <pt x="302" y="753" on="1"/>
        <pt x="502" y="753" on="1"/>
        <pt x="362" y="285" on="1"/>
      </contour>
      <contour>
        <pt x="159" y="0" on="1"/>
        <pt x="192" y="171" on="1"/>
        <pt x="376" y="171" on="1"/>
        <pt x="342" y="0" on="1"/>
      </contour>
    </TTGlyph>
    <TTGlyph name="exclamdown" xMin="137" yMin="-64" xMax="480" yMax="688">
      <contour>
        <pt x="480" y="688" on="1"/>
        <pt x="447" y="517" on="1"/>
        <pt x="263" y="517" on="1"/>
        <pt x="297" y="688" on="1"/>
      </contour>
      <contour>
        <pt x="381" y="403" on="1"/>
        <pt x="337" y="-64" on="1"/>
        <pt x="137" y="-64" on="1"/>
        <pt x="277" y="403" on="1"/>
      </contour>
    </TTGlyph>
    <TTGlyph name="f" xMin="41" yMin="-198" xMax="636" yMax="784">
      <contour>
        <pt x="472" y="31" on="1"/>
        <pt x="472" y="-19" on="0"/>
        <pt x="436" y="-103" on="0"/>
        <pt x="376" y="-164" on="0"/>
        <pt x="298" y="-198" on="0"/>
        <pt x="256" y="-198" on="1"/>
        <pt x="174" y="-198" on="0"/>
        <pt x="77" y="-61" on="0"/>
        <pt x="77" y="73" on="1"/>
        <pt x="77" y="160" on="0"/>
        <pt x="97" y="251" on="1"/>
        <pt x="41" y="269" on="1"/>
        <pt x="64" y="367" on="1"/>
        <pt x="131" y="368" on="1"/>
        <pt x="161" y="454" on="0"/>
        <pt x="250" y="605" on="0"/>
        <pt x="354" y="718" on="0"/>
        <pt x="469" y="784" on="0"/>
        <pt x="526" y="784" on="1"/>
        <pt x="581" y="784" on="0"/>
        <pt x="636" y="724" on="0"/>
        <pt x="636" y="674" on="1"/>
        <pt x="636" y="629" on="0"/>
        <pt x="590" y="517" on="0"/>
        <pt x="542" y="458" on="1"/>
        <pt x="477" y="481" on="1"/>
        <pt x="491" y="507" on="0"/>
        <pt x="507" y="554" on="0"/>
        <pt x="507" y="573" on="1"/>
        <pt x="507" y="594" on="0"/>
        <pt x="486" y="620" on="0"/>
        <pt x="463" y="620" on="1"/>
        <pt x="438" y="620" on="0"/>
        <pt x="386" y="581" on="0"/>
        <pt x="337" y="514" on="0"/>
        <pt x="293" y="422" on="0"/>
        <pt x="276" y="369" on="1"/>
        <pt x="571" y="371" on="1"/>
        <pt x="548" y="246" on="1"/>
        <pt x="366" y="252" on="1"/>
        <pt x="424" y="197" on="0"/>
        <pt x="472" y="85" on="0"/>
      </contour>
      <contour>
        <pt x="312" y="-78" on="1"/>
        <pt x="344" y="-78" on="0"/>
        <pt x="374" y="-32" on="0"/>
        <pt x="374" y="4" on="1"/>
        <pt x="374" y="57" on="0"/>
        <pt x="311" y="166" on="0"/>
        <pt x="240" y="218" on="1"/>
        <pt x="235" y="184" on="0"/>
        <pt x="229" y="116" on="0"/>
        <pt x="229" y="83" on="1"/>
        <pt x="229" y="37" on="0"/>
        <pt x="242" y="-25" on="0"/>
        <pt x="264" y="-62" on="0"/>
        <pt x="294" y="-78" on="0"/>
      </contour>
    </TTGlyph>
    <TTGlyph name="f.lig" xMin="41" yMin="-167" xMax="636" yMax="784">
      <contour>
        <pt x="472" y="48" on="1"/>
        <pt x="472" y="1" on="0"/>
        <pt x="436" y="-78" on="0"/>
        <pt x="376" y="-135" on="0"/>
        <pt x="298" y="-167" on="0"/>
        <pt x="256" y="-167" on="1"/>
        <pt x="174" y="-167" on="0"/>
        <pt x="77" y="-37" on="0"/>
        <pt x="77" y="92" on="1"/>
        <pt x="77" y="131" on="0"/>
        <pt x="87" y="211" on="0"/>
        <pt x="95" y="252" on="1"/>
        <pt x="41" y="269" on="1"/>
        <pt x="64" y="367" on="1"/>
        <pt x="129" y="368" on="1"/>
        <pt x="159" y="452" on="0"/>
        <pt x="248" y="603" on="0"/>
        <pt x="353" y="717" on="0"/>
        <pt x="469" y="784" on="0"/>
        <pt x="526" y="784" on="1"/>
        <pt x="581" y="784" on="0"/>
        <pt x="636" y="724" on="0"/>
        <pt x="636" y="674" on="1"/>
        <pt x="636" y="629" on="0"/>
        <pt x="590" y="517" on="0"/>
        <pt x="542" y="458" on="1"/>
        <pt x="477" y="481" on="1"/>
        <pt x="491" y="507" on="0"/>
        <pt x="507" y="554" on="0"/>
        <pt x="507" y="573" on="1"/>
        <pt x="507" y="594" on="0"/>
        <pt x="486" y="620" on="0"/>
        <pt x="463" y="620" on="1"/>
        <pt x="437" y="620" on="0"/>
        <pt x="385" y="581" on="0"/>
        <pt x="335" y="514" on="0"/>
        <pt x="291" y="422" on="0"/>
        <pt x="274" y="369" on="1"/>
        <pt x="571" y="371" on="1"/>
        <pt x="548" y="246" on="1"/>
        <pt x="369" y="251" on="1"/>
        <pt x="426" y="200" on="0"/>
        <pt x="472" y="98" on="0"/>
      </contour>
      <contour>
        <pt x="312" y="-47" on="1"/>
        <pt x="344" y="-47" on="0"/>
        <pt x="374" y="-9" on="0"/>
        <pt x="374" y="24" on="1"/>
        <pt x="374" y="72" on="0"/>
        <pt x="310" y="173" on="0"/>
        <pt x="238" y="221" on="1"/>
        <pt x="229" y="161" on="0"/>
        <pt x="229" y="102" on="1"/>
        <pt x="229" y="59" on="0"/>
        <pt x="242" y="2" on="0"/>
        <pt x="264" y="-33" on="0"/>
        <pt x="294" y="-47" on="0"/>
      </contour>
    </TTGlyph>
    <TTGlyph name="five" xMin="55" yMin="-4" xMax="604" yMax="688">
      <contour>
        <pt x="543" y="235" on="1"/>
        <pt x="543" y="192" on="0"/>
        <pt x="499" y="107" on="0"/>
        <pt x="404" y="39" on="0"/>
        <pt x="253" y="-4" on="0"/>
        <pt x="146" y="-4" on="1"/>
        <pt x="124" y="-4" on="0"/>
        <pt x="79" y="-2" on="0"/>
        <pt x="55" y="0" on="1"/>
        <pt x="72" y="143" on="1"/>
        <pt x="110" y="139" on="0"/>
        <pt x="175" y="135" on="0"/>
        <pt x="203" y="135" on="1"/>
        <pt x="258" y="135" on="0"/>
        <pt x="333" y="148" on="0"/>
        <pt x="378" y="170" on="0"/>
        <pt x="398" y="198" on="0"/>
        <pt x="398" y="214" on="1"/>
        <pt x="398" y="233" on="0"/>
        <pt x="369" y="268" on="0"/>
        <pt x="305" y="298" on="0"/>
        <pt x="203" y="325" on="0"/>
        <pt x="129" y="337" on="1"/>
        <pt x="206" y="688" on="1"/>
        <pt x="604" y="688" on="1"/>
        <pt x="564" y="555" on="1"/>
        <pt x="316" y="556" on="1"/>
        <pt x="290" y="434" on="1"/>
        <pt x="362" y="418" on="0"/>
        <pt x="459" y="375" on="0"/>
        <pt x="518" y="323" on="0"/>
        <pt x="543" y="265" on="0"/>
      </contour>
    </TTGlyph>
    <TTGlyph name="five.den" xMin="59" yMin="-237" xMax="459" yMax="205">
      <component glyphName="five.num" x="-122" y="-705" flags="0x204"/>
    </TTGlyph>
    <TTGlyph name="five.inf" xMin="73" yMin="-171" xMax="473" yMax="271">
      <component glyphName="five.num" x="-108" y="-639" flags="0x204"/>
    </TTGlyph>
    <TTGlyph name="five.num" xMin="181" yMin="468" xMax="581" yMax="910">
      <contour>
        <pt x="542" y="621" on="1"/>
        <pt x="542" y="592" on="0"/>
        <pt x="510" y="537" on="0"/>
        <pt x="440" y="494" on="0"/>
        <pt x="329" y="468" on="0"/>
        <pt x="250" y="468" on="1"/>
        <pt x="233" y="468" on="0"/>
        <pt x="199" y="468" on="0"/>
        <pt x="181" y="470" on="1"/>
        <pt x="193" y="575" on="1"/>
        <pt x="221" y="573" on="0"/>
        <pt x="268" y="571" on="0"/>
        <pt x="288" y="571" on="1"/>
        <pt x="327" y="571" on="0"/>
        <pt x="380" y="578" on="0"/>
        <pt x="411" y="590" on="0"/>
        <pt x="424" y="605" on="0"/>
        <pt x="424" y="613" on="1"/>
        <pt x="424" y="623" on="0"/>
        <pt x="404" y="641" on="0"/>
        <pt x="358" y="658" on="0"/>
        <pt x="283" y="672" on="0"/>
        <pt x="229" y="678" on="1"/>
        <pt x="281" y="910" on="1"/>
        <pt x="581" y="910" on="1"/>
        <pt x="552" y="811" on="1"/>
        <pt x="370" y="812" on="1"/>
        <pt x="355" y="748" on="1"/>
        <pt x="408" y="739" on="0"/>
        <pt x="480" y="712" on="0"/>
        <pt x="523" y="679" on="0"/>
        <pt x="542" y="641" on="0"/>
      </contour>
    </TTGlyph>
    <TTGlyph name="five.sup" xMin="159" yMin="357" xMax="559" yMax="799">
      <component glyphName="five.num" x="-22" y="-111" flags="0x204"/>
    </TTGlyph>
    <TTGlyph name="fiveeighths" xMin="58" yMin="-244" xMax="581" yMax="910">
      <component glyphName="eight.num" x="-122" y="-705" flags="0x204"/>
      <component glyphName="fraction.afrc" x="0" y="0" flags="0x4"/>
      <component glyphName="five.num" x="0" y="0" flags="0x4"/>
    </TTGlyph>
    <TTGlyph name="fivesixths" xMin="66" yMin="-244" xMax="581" yMax="910">
      <component glyphName="six.num" x="-122" y="-705" flags="0x204"/>
      <component glyphName="fraction.afrc" x="0" y="0" flags="0x4"/>
      <component glyphName="five.num" x="0" y="0" flags="0x4"/>
    </TTGlyph>
    <TTGlyph name="four" xMin="40" yMin="0" xMax="576" yMax="697">
      <contour>
        <pt x="484" y="123" on="1"/>
        <pt x="460" y="0" on="1"/>
        <pt x="320" y="0" on="1"/>
        <pt x="344" y="123" on="1"/>
        <pt x="40" y="123" on="1"/>
        <pt x="47" y="223" on="1"/>
        <pt x="77" y="277" on="0"/>
        <pt x="127" y="382" on="0"/>
        <pt x="172" y="495" on="0"/>
        <pt x="215" y="621" on="0"/>
        <pt x="238" y="697" on="1"/>
        <pt x="400" y="688" on="1"/>
        <pt x="374" y="614" on="0"/>
        <pt x="326" y="493" on="0"/>
        <pt x="277" y="390" on="0"/>
        <pt x="226" y="299" on="0"/>
        <pt x="197" y="255" on="1"/>
        <pt x="370" y="255" on="1"/>
        <pt x="410" y="455" on="1"/>
        <pt x="551" y="466" on="1"/>
        <pt x="510" y="255" on="1"/>
        <pt x="576" y="255" on="1"/>
        <pt x="540" y="123" on="1"/>
      </contour>
    </TTGlyph>
    <TTGlyph name="four.den" xMin="54" yMin="-233" xMax="452" yMax="211">
      <component glyphName="four.num" x="-122" y="-705" flags="0x204"/>
    </TTGlyph>
    <TTGlyph name="four.inf" xMin="68" yMin="-167" xMax="466" yMax="277">
      <component glyphName="four.num" x="-108" y="-639" flags="0x204"/>
    </TTGlyph>
    <TTGlyph name="four.num" xMin="176" yMin="472" xMax="574" yMax="916">
      <contour>
        <pt x="501" y="546" on="1"/>
        <pt x="487" y="472" on="1"/>
        <pt x="377" y="472" on="1"/>
        <pt x="391" y="546" on="1"/>
        <pt x="176" y="546" on="1"/>
        <pt x="185" y="627" on="1"/>
        <pt x="204" y="661" on="0"/>
        <pt x="236" y="726" on="0"/>
        <pt x="265" y="795" on="0"/>
        <pt x="292" y="871" on="0"/>
        <pt x="305" y="916" on="1"/>
        <pt x="433" y="910" on="1"/>
        <pt x="417" y="865" on="0"/>
        <pt x="387" y="791" on="0"/>
        <pt x="355" y="727" on="0"/>
        <pt x="322" y="671" on="0"/>
        <pt x="303" y="644" on="1"/>
        <pt x="411" y="644" on="1"/>
        <pt x="434" y="763" on="1"/>
        <pt x="545" y="771" on="1"/>
        <pt x="520" y="644" on="1"/>
        <pt x="574" y="644" on="1"/>
        <pt x="546" y="546" on="1"/>
      </contour>
    </TTGlyph>
    <TTGlyph name="four.sup" xMin="154" yMin="361" xMax="552" yMax="805">
      <component glyphName="four.num" x="-22" y="-111" flags="0x204"/>
    </TTGlyph>
    <TTGlyph name="fourfifths" xMin="59" yMin="-237" xMax="574" yMax="916">
      <component glyphName="four.num" x="0" y="0" flags="0x204"/>
      <component glyphName="five.num" x="-122" y="-705" flags="0x4"/>
      <component glyphName="fraction.afrc" x="0" y="0" flags="0x4"/>
    </TTGlyph>
    <TTGlyph name="fraction" xMin="-62" yMin="-178" xMax="694" yMax="845">
      <contour>
        <pt x="-62" y="-113" on="1"/>
        <pt x="572" y="845" on="1"/>
        <pt x="694" y="779" on="1"/>
        <pt x="61" y="-178" on="1"/>
      </contour>
    </TTGlyph>
    <TTGlyph name="fraction.afrc" xMin="66" yMin="291" xMax="571" yMax="386">
      <contour>
        <pt x="85" y="386" on="1"/>
        <pt x="571" y="386" on="1"/>
        <pt x="552" y="291" on="1"/>
        <pt x="66" y="291" on="1"/>
      </contour>
    </TTGlyph>
    <TTGlyph name="g" xMin="39" yMin="-191" xMax="612" yMax="584">
      <contour>
        <pt x="262" y="173" on="1"/>
        <pt x="305" y="173" on="0"/>
        <pt x="357" y="217" on="1"/>
        <pt x="361" y="271" on="0"/>
        <pt x="386" y="378" on="0"/>
        <pt x="403" y="426" on="1"/>
        <pt x="374" y="441" on="0"/>
        <pt x="330" y="453" on="0"/>
        <pt x="317" y="453" on="1"/>
        <pt x="292" y="453" on="0"/>
        <pt x="250" y="413" on="0"/>
        <pt x="220" y="353" on="0"/>
        <pt x="203" y="282" on="0"/>
        <pt x="203" y="251" on="1"/>
        <pt x="203" y="208" on="0"/>
        <pt x="236" y="173" on="0"/>
      </contour>
      <contour>
        <pt x="489" y="-61" on="1"/>
        <pt x="460" y="-119" on="0"/>
        <pt x="273" y="-191" on="0"/>
        <pt x="100" y="-191" on="1"/>
        <pt x="86" y="-191" on="0"/>
        <pt x="55" y="-191" on="0"/>
        <pt x="39" y="-190" on="1"/>
        <pt x="54" y="-44" on="1"/>
        <pt x="133" y="-50" on="0"/>
        <pt x="195" y="-50" on="1"/>
        <pt x="264" y="-50" on="0"/>
        <pt x="348" y="-37" on="0"/>
        <pt x="360" y="-24" on="1"/>
        <pt x="368" y="-16" on="0"/>
        <pt x="368" y="12" on="1"/>
        <pt x="368" y="33" on="0"/>
        <pt x="362" y="90" on="0"/>
        <pt x="359" y="122" on="1"/>
        <pt x="317" y="84" on="0"/>
        <pt x="226" y="36" on="0"/>
        <pt x="181" y="36" on="1"/>
        <pt x="154" y="36" on="0"/>
        <pt x="106" y="56" on="0"/>
        <pt x="71" y="97" on="0"/>
        <pt x="50" y="160" on="0"/>
        <pt x="50" y="204" on="1"/>
        <pt x="50" y="272" on="0"/>
        <pt x="96" y="406" on="0"/>
        <pt x="180" y="512" on="0"/>
        <pt x="299" y="577" on="0"/>
        <pt x="371" y="577" on="1"/>
        <pt x="424" y="577" on="0"/>
        <pt x="471" y="556" on="1"/>
        <pt x="494" y="584" on="0"/>
        <pt x="513" y="584" on="1"/>
        <pt x="526" y="584" on="0"/>
        <pt x="560" y="575" on="0"/>
        <pt x="591" y="561" on="0"/>
        <pt x="612" y="543" on="0"/>
        <pt x="612" y="533" on="1"/>
        <pt x="612" y="512" on="0"/>
        <pt x="594" y="443" on="0"/>
        <pt x="561" y="362" on="0"/>
        <pt x="516" y="272" on="0"/>
        <pt x="490" y="230" on="1"/>
        <pt x="490" y="218" on="1"/>
        <pt x="490" y="158" on="0"/>
        <pt x="504" y="59" on="0"/>
        <pt x="504" y="17" on="1"/>
        <pt x="504" y="-5" on="0"/>
        <pt x="498" y="-44" on="0"/>
      </contour>
    </TTGlyph>
    <TTGlyph name="gbreve" xMin="39" yMin="-191" xMax="670" yMax="872">
      <component glyphName="g" x="0" y="0" flags="0x204"/>
      <component glyphName="breve" x="96" y="21" flags="0x4"/>
    </TTGlyph>
    <TTGlyph name="gcommaaccent" xMin="39" yMin="-191" xMax="612" yMax="905">
      <component glyphName="commaaccent.rot" x="68" y="21" flags="0x204"/>
      <component glyphName="g" x="0" y="0" flags="0x4"/>
    </TTGlyph>
    <TTGlyph name="gdotaccent" xMin="39" yMin="-191" xMax="612" yMax="818">
      <component glyphName="g" x="0" y="0" flags="0x204"/>
      <component glyphName="dotaccent" x="102" y="21" flags="0x4"/>
    </TTGlyph>
    <TTGlyph name="germandbls" xMin="29" yMin="-11" xMax="595" yMax="787">
      <contour>
        <pt x="267" y="128" on="1"/>
        <pt x="294" y="126" on="0"/>
        <pt x="339" y="123" on="0"/>
        <pt x="356" y="123" on="1"/>
        <pt x="391" y="123" on="0"/>
        <pt x="423" y="139" on="0"/>
        <pt x="423" y="159" on="1"/>
        <pt x="423" y="191" on="0"/>
        <pt x="359" y="286" on="0"/>
        <pt x="288" y="355" on="1"/>
        <pt x="327" y="401" on="0"/>
        <pt x="383" y="473" on="0"/>
        <pt x="419" y="531" on="0"/>
        <pt x="437" y="578" on="0"/>
        <pt x="437" y="601" on="1"/>
        <pt x="437" y="627" on="0"/>
        <pt x="412" y="662" on="0"/>
        <pt x="386" y="662" on="1"/>
        <pt x="351" y="662" on="0"/>
        <pt x="298" y="591" on="0"/>
        <pt x="283" y="511" on="1"/>
        <pt x="185" y="0" on="1"/>
        <pt x="29" y="0" on="1"/>
        <pt x="128" y="503" on="1"/>
        <pt x="140" y="568" on="0"/>
        <pt x="193" y="673" on="0"/>
        <pt x="270" y="747" on="0"/>
        <pt x="368" y="787" on="0"/>
        <pt x="427" y="787" on="1"/>
        <pt x="470" y="787" on="0"/>
        <pt x="534" y="762" on="0"/>
        <pt x="575" y="721" on="0"/>
        <pt x="595" y="668" on="0"/>
        <pt x="595" y="640" on="1"/>
        <pt x="595" y="574" on="0"/>
        <pt x="520" y="453" on="0"/>
        <pt x="463" y="390" on="1"/>
        <pt x="514" y="338" on="0"/>
        <pt x="580" y="231" on="0"/>
        <pt x="580" y="174" on="1"/>
        <pt x="580" y="137" on="0"/>
        <pt x="549" y="70" on="0"/>
        <pt x="477" y="19" on="0"/>
        <pt x="359" y="-11" on="0"/>
        <pt x="272" y="-11" on="1"/>
        <pt x="252" y="-11" on="1"/>
      </contour>
    </TTGlyph>
    <TTGlyph name="grave" xMin="144" yMin="619" xMax="490" yMax="877">
      <contour>
        <pt x="459" y="619" on="1"/>
        <pt x="427" y="628" on="0"/>
        <pt x="344" y="660" on="0"/>
        <pt x="259" y="697" on="0"/>
        <pt x="176" y="738" on="0"/>
        <pt x="144" y="756" on="1"/>
        <pt x="231" y="877" on="1"/>
        <pt x="259" y="852" on="0"/>
        <pt x="327" y="798" on="0"/>
        <pt x="396" y="746" on="0"/>
        <pt x="463" y="700" on="0"/>
        <pt x="490" y="683" on="1"/>
      </contour>
    </TTGlyph>
    <TTGlyph name="grave.cap" xMin="144" yMin="619" xMax="490" yMax="877">
      <contour>
        <pt x="459" y="619" on="1"/>
        <pt x="427" y="628" on="0"/>
        <pt x="344" y="660" on="0"/>
        <pt x="259" y="697" on="0"/>
        <pt x="176" y="738" on="0"/>
        <pt x="144" y="756" on="1"/>
        <pt x="231" y="877" on="1"/>
        <pt x="259" y="852" on="0"/>
        <pt x="327" y="798" on="0"/>
        <pt x="396" y="746" on="0"/>
        <pt x="463" y="700" on="0"/>
        <pt x="490" y="683" on="1"/>
      </contour>
    </TTGlyph>
    <TTGlyph name="greater" xMin="63" yMin="-28" xMax="559" yMax="693">
      <contour>
        <pt x="63" y="94" on="1"/>
        <pt x="407" y="309" on="1"/>
        <pt x="409" y="322" on="1"/>
        <pt x="139" y="589" on="1"/>
        <pt x="246" y="693" on="1"/>
        <pt x="559" y="366" on="1"/>
        <pt x="535" y="236" on="1"/>
        <pt x="126" y="-28" on="1"/>
      </contour>
    </TTGlyph>
    <TTGlyph name="greaterequal" xMin="23" yMin="-1" xMax="579" yMax="694">
      <contour>
        <pt x="151" y="579" on="1"/>
        <pt x="235" y="694" on="1"/>
        <pt x="579" y="471" on="1"/>
        <pt x="559" y="354" on="1"/>
        <pt x="122" y="170" on="1"/>
        <pt x="96" y="295" on="1"/>
        <pt x="405" y="420" on="1"/>
        <pt x="407" y="427" on="1"/>
      </contour>
      <contour>
        <pt x="494" y="-1" on="1"/>
        <pt x="23" y="-1" on="1"/>
        <pt x="48" y="131" on="1"/>
        <pt x="520" y="131" on="1"/>
      </contour>
    </TTGlyph>
    <TTGlyph name="guillemotleft" xMin="28" yMin="-17" xMax="651" yMax="584">
      <contour>
        <pt x="28" y="205" on="1"/>
        <pt x="59" y="360" on="1"/>
        <pt x="275" y="584" on="1"/>
        <pt x="370" y="488" on="1"/>
        <pt x="153" y="278" on="1"/>
        <pt x="293" y="64" on="1"/>
        <pt x="168" y="-17" on="1"/>
      </contour>
      <contour>
        <pt x="308" y="211" on="1"/>
        <pt x="341" y="365" on="1"/>
        <pt x="558" y="582" on="1"/>
        <pt x="651" y="483" on="1"/>
        <pt x="434" y="280" on="1"/>
        <pt x="570" y="61" on="1"/>
        <pt x="445" y="-17" on="1"/>
      </contour>
    </TTGlyph>
    <TTGlyph name="guillemotleft.cap" xMin="40" yMin="50" xMax="663" yMax="651">
      <component glyphName="guillemotleft" x="12" y="67" flags="0x204"/>
    </TTGlyph>
    <TTGlyph name="guillemotright" xMin="-1" yMin="-14" xMax="622" yMax="586">
      <contour>
        <pt x="280" y="81" on="1"/>
        <pt x="497" y="292" on="1"/>
        <pt x="357" y="505" on="1"/>
        <pt x="482" y="586" on="1"/>
        <pt x="622" y="364" on="1"/>
        <pt x="591" y="210" on="1"/>
        <pt x="376" y="-14" on="1"/>
      </contour>
      <contour>
        <pt x="-1" y="87" on="1"/>
        <pt x="216" y="289" on="1"/>
        <pt x="80" y="508" on="1"/>
        <pt x="205" y="586" on="1"/>
        <pt x="342" y="359" on="1"/>
        <pt x="309" y="204" on="1"/>
        <pt x="92" y="-12" on="1"/>
      </contour>
    </TTGlyph>
    <TTGlyph name="guillemotright.cap" xMin="11" yMin="53" xMax="634" yMax="653">
      <component glyphName="guillemotright" x="12" y="67" flags="0x204"/>
    </TTGlyph>
    <TTGlyph name="guilsinglleft" xMin="116" yMin="-29" xMax="530" yMax="591">
      <contour>
        <pt x="116" y="211" on="1"/>
        <pt x="154" y="365" on="1"/>
        <pt x="443" y="591" on="1"/>
        <pt x="530" y="470" on="1"/>
        <pt x="252" y="277" on="1"/>
        <pt x="433" y="77" on="1"/>
        <pt x="322" y="-29" on="1"/>
      </contour>
    </TTGlyph>
    <TTGlyph name="guilsinglleft.cap" xMin="128" yMin="38" xMax="542" yMax="658">
      <component glyphName="guilsinglleft" x="12" y="67" flags="0x204"/>
    </TTGlyph>
    <TTGlyph name="guilsinglright" xMin="89" yMin="-24" xMax="503" yMax="595">
      <contour>
        <pt x="89" y="97" on="1"/>
        <pt x="366" y="289" on="1"/>
        <pt x="186" y="490" on="1"/>
        <pt x="297" y="595" on="1"/>
        <pt x="503" y="355" on="1"/>
        <pt x="465" y="201" on="1"/>
        <pt x="176" y="-24" on="1"/>
      </contour>
    </TTGlyph>
    <TTGlyph name="guilsinglright.cap" xMin="101" yMin="43" xMax="515" yMax="662">
      <component glyphName="guilsinglright" x="12" y="67" flags="0x204"/>
    </TTGlyph>
    <TTGlyph name="h" xMin="33" yMin="-13" xMax="586" yMax="784">
      <contour>
        <pt x="586" y="51" on="1"/>
        <pt x="532" y="18" on="0"/>
        <pt x="449" y="-13" on="0"/>
        <pt x="418" y="-13" on="1"/>
        <pt x="381" y="-13" on="0"/>
        <pt x="343" y="29" on="0"/>
        <pt x="343" y="67" on="1"/>
        <pt x="343" y="98" on="0"/>
        <pt x="362" y="184" on="0"/>
        <pt x="385" y="273" on="0"/>
        <pt x="404" y="356" on="0"/>
        <pt x="404" y="384" on="1"/>
        <pt x="404" y="406" on="0"/>
        <pt x="386" y="432" on="0"/>
        <pt x="366" y="432" on="1"/>
        <pt x="323" y="432" on="0"/>
        <pt x="254" y="366" on="1"/>
        <pt x="183" y="0" on="1"/>
        <pt x="33" y="0" on="1"/>
        <pt x="182" y="773" on="1"/>
        <pt x="336" y="784" on="1"/>
        <pt x="277" y="483" on="1"/>
        <pt x="375" y="578" on="0"/>
        <pt x="467" y="578" on="1"/>
        <pt x="496" y="578" on="0"/>
        <pt x="535" y="560" on="0"/>
        <pt x="559" y="528" on="0"/>
        <pt x="569" y="487" on="0"/>
        <pt x="569" y="464" on="1"/>
        <pt x="569" y="423" on="0"/>
        <pt x="549" y="324" on="0"/>
        <pt x="525" y="230" on="0"/>
        <pt x="505" y="153" on="0"/>
        <pt x="505" y="134" on="1"/>
        <pt x="505" y="126" on="0"/>
        <pt x="510" y="117" on="0"/>
        <pt x="521" y="117" on="1"/>
        <pt x="535" y="117" on="0"/>
        <pt x="574" y="127" on="1"/>
        <pt x="586" y="51" on="1"/>
      </contour>
    </TTGlyph>
    <TTGlyph name="hbar" xMin="33" yMin="-13" xMax="586" yMax="784">
      <contour>
        <pt x="586" y="51" on="1"/>
        <pt x="532" y="18" on="0"/>
        <pt x="449" y="-13" on="0"/>
        <pt x="418" y="-13" on="1"/>
        <pt x="381" y="-13" on="0"/>
        <pt x="343" y="29" on="0"/>
        <pt x="343" y="67" on="1"/>
        <pt x="343" y="98" on="0"/>
        <pt x="362" y="183" on="0"/>
        <pt x="385" y="270" on="0"/>
        <pt x="404" y="352" on="0"/>
        <pt x="404" y="380" on="1"/>
        <pt x="404" y="401" on="0"/>
        <pt x="386" y="427" on="0"/>
        <pt x="366" y="427" on="1"/>
        <pt x="322" y="427" on="0"/>
        <pt x="253" y="361" on="1"/>
        <pt x="183" y="0" on="1"/>
        <pt x="33" y="0" on="1"/>
        <pt x="153" y="623" on="1"/>
        <pt x="92" y="623" on="1"/>
        <pt x="111" y="719" on="1"/>
        <pt x="172" y="719" on="1"/>
        <pt x="182" y="773" on="1"/>
        <pt x="336" y="784" on="1"/>
        <pt x="323" y="719" on="1"/>
        <pt x="458" y="719" on="1"/>
        <pt x="439" y="624" on="1"/>
        <pt x="305" y="624" on="1"/>
        <pt x="276" y="477" on="1"/>
        <pt x="324" y="525" on="0"/>
        <pt x="419" y="574" on="0"/>
        <pt x="467" y="574" on="1"/>
        <pt x="496" y="574" on="0"/>
        <pt x="535" y="556" on="0"/>
        <pt x="559" y="524" on="0"/>
        <pt x="569" y="483" on="0"/>
        <pt x="569" y="460" on="1"/>
        <pt x="569" y="419" on="0"/>
        <pt x="549" y="321" on="0"/>
        <pt x="525" y="229" on="0"/>
        <pt x="505" y="153" on="0"/>
        <pt x="505" y="134" on="1"/>
        <pt x="505" y="126" on="0"/>
        <pt x="510" y="117" on="0"/>
        <pt x="521" y="117" on="1"/>
        <pt x="535" y="117" on="0"/>
        <pt x="574" y="127" on="1"/>
        <pt x="586" y="51" on="1"/>
      </contour>
    </TTGlyph>
    <TTGlyph name="hcoslug" xMin="50" yMin="-100" xMax="644" yMax="700">
      <contour>
        <pt x="644" y="-100" on="1"/>
        <pt x="50" y="-100" on="1"/>
        <pt x="50" y="700" on="1"/>
        <pt x="644" y="700" on="1"/>
      </contour>
      <contour>
        <pt x="247" y="428" on="1"/>
        <pt x="247" y="441" on="0"/>
        <pt x="262" y="457" on="0"/>
        <pt x="274" y="457" on="1"/>
        <pt x="287" y="457" on="0"/>
        <pt x="303" y="436" on="0"/>
        <pt x="303" y="419" on="1"/>
        <pt x="303" y="406" on="0"/>
        <pt x="293" y="382" on="0"/>
        <pt x="285" y="369" on="1"/>
        <pt x="268" y="386" on="0"/>
        <pt x="247" y="411" on="0"/>
      </contour>
      <contour>
        <pt x="312" y="342" on="1"/>
        <pt x="342" y="362" on="0"/>
        <pt x="354" y="376" on="1"/>
        <pt x="369" y="361" on="0"/>
        <pt x="369" y="342" on="1"/>
        <pt x="369" y="325" on="0"/>
        <pt x="353" y="296" on="1"/>
        <pt x="343" y="307" on="0"/>
        <pt x="324" y="330" on="0"/>
      </contour>
      <contour>
        <pt x="261" y="219" on="1"/>
        <pt x="238" y="219" on="0"/>
        <pt x="209" y="250" on="0"/>
        <pt x="209" y="273" on="1"/>
        <pt x="209" y="297" on="0"/>
        <pt x="225" y="313" on="1"/>
        <pt x="239" y="300" on="0"/>
        <pt x="278" y="257" on="0"/>
        <pt x="299" y="231" on="1"/>
        <pt x="284" y="219" on="0"/>
      </contour>
      <contour>
        <pt x="382" y="264" on="1"/>
        <pt x="393" y="279" on="0"/>
        <pt x="417" y="299" on="0"/>
        <pt x="428" y="306" on="1"/>
        <pt x="435" y="295" on="0"/>
        <pt x="457" y="281" on="0"/>
        <pt x="471" y="281" on="1"/>
        <pt x="492" y="281" on="0"/>
        <pt x="521" y="312" on="0"/>
        <pt x="521" y="335" on="1"/>
        <pt x="521" y="358" on="0"/>
        <pt x="492" y="387" on="0"/>
        <pt x="471" y="387" on="1"/>
        <pt x="436" y="387" on="0"/>
        <pt x="411" y="349" on="1"/>
        <pt x="409" y="369" on="0"/>
        <pt x="385" y="386" on="0"/>
        <pt x="365" y="386" on="1"/>
        <pt x="362" y="386" on="1"/>
        <pt x="371" y="401" on="0"/>
        <pt x="371" y="420" on="1"/>
        <pt x="371" y="433" on="0"/>
        <pt x="359" y="460" on="0"/>
        <pt x="335" y="481" on="0"/>
        <pt x="299" y="494" on="0"/>
        <pt x="276" y="494" on="1"/>
        <pt x="251" y="494" on="0"/>
        <pt x="211" y="480" on="0"/>
        <pt x="182" y="456" on="0"/>
        <pt x="167" y="425" on="0"/>
        <pt x="167" y="409" on="1"/>
        <pt x="167" y="387" on="0"/>
        <pt x="182" y="357" on="0"/>
        <pt x="198" y="340" on="1"/>
        <pt x="116" y="312" on="0"/>
        <pt x="116" y="249" on="1"/>
        <pt x="116" y="229" on="0"/>
        <pt x="133" y="195" on="0"/>
        <pt x="163" y="170" on="0"/>
        <pt x="202" y="156" on="0"/>
        <pt x="225" y="156" on="1"/>
        <pt x="288" y="156" on="0"/>
        <pt x="329" y="201" on="1"/>
        <pt x="354" y="175" on="0"/>
        <pt x="391" y="156" on="0"/>
        <pt x="414" y="156" on="1"/>
        <pt x="446" y="156" on="0"/>
        <pt x="492" y="206" on="0"/>
        <pt x="494" y="250" on="1"/>
        <pt x="487" y="252" on="1"/>
        <pt x="479" y="239" on="0"/>
        <pt x="460" y="223" on="0"/>
        <pt x="444" y="223" on="1"/>
        <pt x="429" y="223" on="0"/>
        <pt x="401" y="242" on="0"/>
      </contour>
      <contour>
        <pt x="274" y="122" on="1"/>
        <pt x="274" y="113" on="1"/>
        <pt x="267" y="113" on="1"/>
        <pt x="267" y="106" on="1"/>
        <pt x="274" y="106" on="1"/>
        <pt x="274" y="86" on="1"/>
        <pt x="274" y="73" on="0"/>
        <pt x="286" y="73" on="1"/>
        <pt x="297" y="73" on="0"/>
        <pt x="300" y="86" on="1"/>
        <pt x="295" y="88" on="1"/>
        <pt x="294" y="81" on="0"/>
        <pt x="290" y="81" on="1"/>
        <pt x="286" y="81" on="0"/>
        <pt x="286" y="86" on="1"/>
        <pt x="286" y="106" on="1"/>
        <pt x="299" y="106" on="1"/>
        <pt x="299" y="113" on="1"/>
        <pt x="286" y="113" on="1"/>
        <pt x="286" y="124" on="1"/>
      </contour>
      <contour>
        <pt x="174" y="94" on="1"/>
        <pt x="174" y="84" on="0"/>
        <pt x="186" y="73" on="0"/>
        <pt x="195" y="73" on="1"/>
        <pt x="204" y="73" on="0"/>
        <pt x="216" y="85" on="0"/>
        <pt x="216" y="94" on="1"/>
        <pt x="216" y="103" on="0"/>
        <pt x="204" y="114" on="0"/>
        <pt x="195" y="114" on="1"/>
        <pt x="186" y="114" on="0"/>
        <pt x="174" y="103" on="0"/>
      </contour>
      <contour>
        <pt x="203" y="94" on="1"/>
        <pt x="203" y="78" on="0"/>
        <pt x="195" y="78" on="1"/>
        <pt x="187" y="78" on="0"/>
        <pt x="187" y="94" on="1"/>
        <pt x="187" y="109" on="0"/>
        <pt x="195" y="109" on="1"/>
        <pt x="203" y="109" on="0"/>
      </contour>
      <contour>
        <pt x="379" y="93" on="1"/>
        <pt x="379" y="80" on="0"/>
        <pt x="372" y="80" on="1"/>
        <pt x="364" y="80" on="0"/>
        <pt x="364" y="93" on="1"/>
        <pt x="364" y="106" on="0"/>
        <pt x="372" y="106" on="1"/>
        <pt x="379" y="106" on="0"/>
      </contour>
      <contour>
        <pt x="219" y="74" on="1"/>
        <pt x="241" y="74" on="1"/>
        <pt x="241" y="81" on="1"/>
        <pt x="237" y="81" on="1"/>
        <pt x="237" y="96" on="1"/>
        <pt x="237" y="106" on="0"/>
        <pt x="244" y="106" on="1"/>
        <pt x="250" y="106" on="0"/>
        <pt x="250" y="99" on="1"/>
        <pt x="250" y="81" on="1"/>
        <pt x="246" y="81" on="1"/>
        <pt x="246" y="74" on="1"/>
        <pt x="268" y="74" on="1"/>
        <pt x="268" y="81" on="1"/>
        <pt x="262" y="81" on="1"/>
        <pt x="262" y="100" on="1"/>
        <pt x="262" y="114" on="0"/>
        <pt x="250" y="114" on="1"/>
        <pt x="241" y="114" on="0"/>
        <pt x="236" y="103" on="1"/>
        <pt x="236" y="113" on="1"/>
        <pt x="219" y="113" on="1"/>
        <pt x="219" y="106" on="1"/>
        <pt x="225" y="106" on="1"/>
        <pt x="225" y="81" on="1"/>
        <pt x="219" y="81" on="1"/>
      </contour>
      <contour>
        <pt x="125" y="74" on="1"/>
        <pt x="155" y="74" on="1"/>
        <pt x="155" y="81" on="1"/>
        <pt x="145" y="81" on="1"/>
        <pt x="145" y="97" on="1"/>
        <pt x="149" y="97" on="1"/>
        <pt x="154" y="97" on="0"/>
        <pt x="155" y="89" on="1"/>
        <pt x="162" y="89" on="1"/>
        <pt x="162" y="112" on="1"/>
        <pt x="155" y="112" on="1"/>
        <pt x="154" y="104" on="0"/>
        <pt x="149" y="104" on="1"/>
        <pt x="145" y="104" on="1"/>
        <pt x="145" y="122" on="1"/>
        <pt x="157" y="122" on="1"/>
        <pt x="162" y="122" on="0"/>
        <pt x="166" y="117" on="0"/>
        <pt x="168" y="109" on="1"/>
        <pt x="176" y="109" on="1"/>
        <pt x="176" y="129" on="1"/>
        <pt x="125" y="129" on="1"/>
        <pt x="125" y="122" on="1"/>
        <pt x="132" y="122" on="1"/>
        <pt x="132" y="81" on="1"/>
        <pt x="125" y="81" on="1"/>
      </contour>
      <contour>
        <pt x="302" y="74" on="1"/>
        <pt x="309" y="74" on="1"/>
        <pt x="310" y="78" on="1"/>
        <pt x="312" y="76" on="0"/>
        <pt x="318" y="73" on="0"/>
        <pt x="323" y="73" on="1"/>
        <pt x="337" y="73" on="0"/>
        <pt x="337" y="86" on="1"/>
        <pt x="337" y="92" on="0"/>
        <pt x="329" y="97" on="0"/>
        <pt x="320" y="99" on="0"/>
        <pt x="313" y="101" on="0"/>
        <pt x="313" y="104" on="1"/>
        <pt x="313" y="108" on="0"/>
        <pt x="318" y="108" on="1"/>
        <pt x="323" y="108" on="0"/>
        <pt x="328" y="101" on="1"/>
        <pt x="335" y="101" on="1"/>
        <pt x="335" y="114" on="1"/>
        <pt x="329" y="114" on="1"/>
        <pt x="327" y="109" on="1"/>
        <pt x="324" y="114" on="0"/>
        <pt x="316" y="114" on="1"/>
        <pt x="309" y="114" on="0"/>
        <pt x="302" y="107" on="0"/>
        <pt x="302" y="102" on="1"/>
        <pt x="302" y="96" on="0"/>
        <pt x="309" y="91" on="0"/>
        <pt x="318" y="88" on="0"/>
        <pt x="326" y="86" on="0"/>
        <pt x="326" y="83" on="1"/>
        <pt x="326" y="79" on="0"/>
        <pt x="321" y="79" on="1"/>
        <pt x="315" y="79" on="0"/>
        <pt x="309" y="88" on="1"/>
        <pt x="302" y="88" on="1"/>
      </contour>
      <contour>
        <pt x="352" y="73" on="1"/>
        <pt x="358" y="73" on="1"/>
        <pt x="362" y="81" on="1"/>
        <pt x="367" y="73" on="0"/>
        <pt x="376" y="73" on="1"/>
        <pt x="385" y="73" on="0"/>
        <pt x="392" y="87" on="0"/>
        <pt x="392" y="94" on="1"/>
        <pt x="392" y="114" on="0"/>
        <pt x="377" y="114" on="1"/>
        <pt x="367" y="114" on="0"/>
        <pt x="364" y="105" on="1"/>
        <pt x="364" y="132" on="1"/>
        <pt x="346" y="132" on="1"/>
        <pt x="346" y="125" on="1"/>
        <pt x="352" y="125" on="1"/>
      </contour>
      <contour>
        <pt x="405" y="65" on="1"/>
        <pt x="407" y="67" on="0"/>
        <pt x="407" y="69" on="1"/>
        <pt x="407" y="75" on="0"/>
        <pt x="400" y="75" on="1"/>
        <pt x="393" y="75" on="0"/>
        <pt x="393" y="68" on="1"/>
        <pt x="393" y="59" on="0"/>
        <pt x="404" y="59" on="1"/>
        <pt x="416" y="59" on="0"/>
        <pt x="422" y="75" on="1"/>
        <pt x="435" y="106" on="1"/>
        <pt x="440" y="106" on="1"/>
        <pt x="440" y="113" on="1"/>
        <pt x="423" y="113" on="1"/>
        <pt x="423" y="106" on="1"/>
        <pt x="428" y="106" on="1"/>
        <pt x="420" y="86" on="1"/>
        <pt x="411" y="106" on="1"/>
        <pt x="417" y="106" on="1"/>
        <pt x="417" y="113" on="1"/>
        <pt x="392" y="113" on="1"/>
        <pt x="392" y="106" on="1"/>
        <pt x="397" y="106" on="1"/>
        <pt x="399" y="99" on="0"/>
        <pt x="403" y="93" on="1"/>
        <pt x="405" y="88" on="0"/>
        <pt x="411" y="77" on="0"/>
        <pt x="413" y="73" on="1"/>
        <pt x="411" y="65" on="0"/>
      </contour>
      <contour>
        <pt x="446" y="33" on="1"/>
        <pt x="446" y="26" on="1"/>
        <pt x="452" y="26" on="1"/>
        <pt x="450" y="21" on="0"/>
        <pt x="446" y="17" on="1"/>
        <pt x="443" y="20" on="0"/>
        <pt x="438" y="26" on="0"/>
        <pt x="434" y="30" on="1"/>
        <pt x="445" y="35" on="0"/>
        <pt x="445" y="42" on="1"/>
        <pt x="445" y="47" on="0"/>
        <pt x="438" y="54" on="0"/>
        <pt x="431" y="54" on="1"/>
        <pt x="423" y="54" on="0"/>
        <pt x="414" y="45" on="0"/>
        <pt x="414" y="40" on="1"/>
        <pt x="414" y="34" on="0"/>
        <pt x="420" y="28" on="1"/>
        <pt x="407" y="24" on="0"/>
        <pt x="407" y="13" on="1"/>
        <pt x="407" y="-1" on="0"/>
        <pt x="425" y="-1" on="1"/>
        <pt x="434" y="-1" on="0"/>
        <pt x="440" y="5" on="1"/>
        <pt x="445" y="-1" on="0"/>
        <pt x="452" y="-1" on="1"/>
        <pt x="462" y="-1" on="0"/>
        <pt x="465" y="11" on="1"/>
        <pt x="460" y="12" on="1"/>
        <pt x="459" y="7" on="0"/>
        <pt x="456" y="7" on="1"/>
        <pt x="453" y="7" on="0"/>
        <pt x="450" y="12" on="1"/>
        <pt x="452" y="15" on="0"/>
        <pt x="457" y="21" on="0"/>
        <pt x="459" y="26" on="1"/>
        <pt x="464" y="26" on="1"/>
        <pt x="464" y="33" on="1"/>
      </contour>
      <contour>
        <pt x="294" y="42" on="1"/>
        <pt x="294" y="50" on="0"/>
        <pt x="298" y="54" on="0"/>
        <pt x="300" y="54" on="1"/>
        <pt x="301" y="54" on="0"/>
        <pt x="301" y="53" on="0"/>
        <pt x="302" y="53" on="1"/>
        <pt x="303" y="53" on="1"/>
        <pt x="302" y="52" on="1"/>
        <pt x="302" y="50" on="1"/>
        <pt x="302" y="44" on="0"/>
        <pt x="308" y="44" on="1"/>
        <pt x="308" y="39" on="1"/>
        <pt x="294" y="39" on="1"/>
      </contour>
      <contour>
        <pt x="469" y="27" on="1"/>
        <pt x="469" y="-1" on="0"/>
        <pt x="498" y="-1" on="1"/>
        <pt x="520" y="-1" on="0"/>
        <pt x="522" y="22" on="1"/>
        <pt x="514" y="22" on="1"/>
        <pt x="512" y="6" on="0"/>
        <pt x="500" y="6" on="1"/>
        <pt x="484" y="6" on="0"/>
        <pt x="484" y="28" on="1"/>
        <pt x="484" y="50" on="0"/>
        <pt x="498" y="50" on="1"/>
        <pt x="508" y="50" on="0"/>
        <pt x="513" y="34" on="1"/>
        <pt x="521" y="34" on="1"/>
        <pt x="521" y="56" on="1"/>
        <pt x="513" y="56" on="1"/>
        <pt x="512" y="50" on="1"/>
        <pt x="505" y="57" on="0"/>
        <pt x="496" y="57" on="1"/>
        <pt x="485" y="57" on="0"/>
        <pt x="469" y="41" on="0"/>
      </contour>
      <contour>
        <pt x="431" y="33" on="1"/>
        <pt x="425" y="39" on="0"/>
        <pt x="425" y="43" on="1"/>
        <pt x="425" y="48" on="0"/>
        <pt x="430" y="48" on="1"/>
        <pt x="436" y="48" on="0"/>
        <pt x="436" y="42" on="1"/>
        <pt x="436" y="36" on="0"/>
      </contour>
      <contour>
        <pt x="273" y="18" on="1"/>
        <pt x="273" y="21" on="1"/>
        <pt x="273" y="40" on="0"/>
        <pt x="254" y="40" on="1"/>
        <pt x="246" y="40" on="0"/>
        <pt x="234" y="28" on="0"/>
        <pt x="234" y="19" on="1"/>
        <pt x="234" y="-1" on="0"/>
        <pt x="255" y="-1" on="1"/>
        <pt x="269" y="-1" on="0"/>
        <pt x="273" y="13" on="1"/>
        <pt x="266" y="13" on="1"/>
        <pt x="265" y="6" on="0"/>
        <pt x="257" y="6" on="1"/>
        <pt x="247" y="6" on="0"/>
        <pt x="247" y="18" on="1"/>
      </contour>
      <contour>
        <pt x="189" y="20" on="1"/>
        <pt x="189" y="10" on="0"/>
        <pt x="201" y="-1" on="0"/>
        <pt x="210" y="-1" on="1"/>
        <pt x="219" y="-1" on="0"/>
        <pt x="231" y="11" on="0"/>
        <pt x="231" y="20" on="1"/>
        <pt x="231" y="29" on="0"/>
        <pt x="219" y="40" on="0"/>
        <pt x="210" y="40" on="1"/>
        <pt x="201" y="40" on="0"/>
        <pt x="189" y="29" on="0"/>
      </contour>
      <contour>
        <pt x="525" y="20" on="1"/>
        <pt x="525" y="10" on="0"/>
        <pt x="537" y="-1" on="0"/>
        <pt x="546" y="-1" on="1"/>
        <pt x="555" y="-1" on="0"/>
        <pt x="567" y="11" on="0"/>
        <pt x="567" y="20" on="1"/>
        <pt x="567" y="29" on="0"/>
        <pt x="555" y="40" on="0"/>
        <pt x="546" y="40" on="1"/>
        <pt x="537" y="40" on="0"/>
        <pt x="525" y="29" on="0"/>
      </contour>
      <contour>
        <pt x="366" y="18" on="1"/>
        <pt x="366" y="21" on="1"/>
        <pt x="366" y="40" on="0"/>
        <pt x="347" y="40" on="1"/>
        <pt x="339" y="40" on="0"/>
        <pt x="327" y="28" on="0"/>
        <pt x="327" y="19" on="1"/>
        <pt x="327" y="-1" on="0"/>
        <pt x="348" y="-1" on="1"/>
        <pt x="362" y="-1" on="0"/>
        <pt x="366" y="13" on="1"/>
        <pt x="359" y="13" on="1"/>
        <pt x="358" y="6" on="0"/>
        <pt x="350" y="6" on="1"/>
        <pt x="340" y="6" on="0"/>
        <pt x="340" y="18" on="1"/>
      </contour>
      <contour>
        <pt x="247" y="23" on="1"/>
        <pt x="247" y="35" on="0"/>
        <pt x="254" y="35" on="1"/>
        <pt x="261" y="35" on="0"/>
        <pt x="261" y="23" on="1"/>
      </contour>
      <contour>
        <pt x="218" y="20" on="1"/>
        <pt x="218" y="4" on="0"/>
        <pt x="210" y="4" on="1"/>
        <pt x="202" y="4" on="0"/>
        <pt x="202" y="20" on="1"/>
        <pt x="202" y="35" on="0"/>
        <pt x="210" y="35" on="1"/>
        <pt x="218" y="35" on="0"/>
      </contour>
      <contour>
        <pt x="554" y="20" on="1"/>
        <pt x="554" y="4" on="0"/>
        <pt x="546" y="4" on="1"/>
        <pt x="538" y="4" on="0"/>
        <pt x="538" y="20" on="1"/>
        <pt x="538" y="35" on="0"/>
        <pt x="546" y="35" on="1"/>
        <pt x="554" y="35" on="0"/>
      </contour>
      <contour>
        <pt x="340" y="23" on="1"/>
        <pt x="340" y="35" on="0"/>
        <pt x="347" y="35" on="1"/>
        <pt x="354" y="35" on="0"/>
        <pt x="354" y="23" on="1"/>
      </contour>
      <contour>
        <pt x="276" y="0" on="1"/>
        <pt x="299" y="0" on="1"/>
        <pt x="299" y="7" on="1"/>
        <pt x="294" y="7" on="1"/>
        <pt x="294" y="32" on="1"/>
        <pt x="308" y="32" on="1"/>
        <pt x="308" y="7" on="1"/>
        <pt x="303" y="7" on="1"/>
        <pt x="303" y="0" on="1"/>
        <pt x="326" y="0" on="1"/>
        <pt x="326" y="7" on="1"/>
        <pt x="320" y="7" on="1"/>
        <pt x="320" y="59" on="1"/>
        <pt x="310" y="57" on="1"/>
        <pt x="306" y="59" on="0"/>
        <pt x="301" y="59" on="1"/>
        <pt x="293" y="59" on="0"/>
        <pt x="282" y="50" on="0"/>
        <pt x="282" y="40" on="1"/>
        <pt x="282" y="39" on="1"/>
        <pt x="275" y="39" on="1"/>
        <pt x="275" y="32" on="1"/>
        <pt x="282" y="32" on="1"/>
        <pt x="282" y="7" on="1"/>
        <pt x="276" y="7" on="1"/>
      </contour>
      <contour>
        <pt x="368" y="0" on="1"/>
        <pt x="394" y="0" on="1"/>
        <pt x="394" y="7" on="1"/>
        <pt x="386" y="7" on="1"/>
        <pt x="386" y="23" on="1"/>
        <pt x="390" y="32" on="0"/>
        <pt x="393" y="32" on="1"/>
        <pt x="393" y="31" on="1"/>
        <pt x="393" y="25" on="0"/>
        <pt x="399" y="25" on="1"/>
        <pt x="406" y="25" on="0"/>
        <pt x="406" y="32" on="1"/>
        <pt x="406" y="40" on="0"/>
        <pt x="398" y="40" on="1"/>
        <pt x="390" y="40" on="0"/>
        <pt x="386" y="29" on="1"/>
        <pt x="386" y="39" on="1"/>
        <pt x="368" y="39" on="1"/>
        <pt x="368" y="32" on="1"/>
        <pt x="374" y="32" on="1"/>
        <pt x="374" y="7" on="1"/>
        <pt x="368" y="7" on="1"/>
      </contour>
      <contour>
        <pt x="437" y="9" on="1"/>
        <pt x="432" y="6" on="0"/>
        <pt x="429" y="6" on="1"/>
        <pt x="419" y="6" on="0"/>
        <pt x="419" y="16" on="1"/>
        <pt x="419" y="21" on="0"/>
        <pt x="423" y="25" on="1"/>
        <pt x="427" y="21" on="0"/>
        <pt x="433" y="14" on="0"/>
      </contour>
      <contour>
        <pt x="124" y="0" on="1"/>
        <pt x="153" y="0" on="1"/>
        <pt x="153" y="7" on="1"/>
        <pt x="145" y="7" on="1"/>
        <pt x="145" y="25" on="1"/>
        <pt x="167" y="25" on="1"/>
        <pt x="167" y="7" on="1"/>
        <pt x="159" y="7" on="1"/>
        <pt x="159" y="0" on="1"/>
        <pt x="188" y="0" on="1"/>
        <pt x="188" y="7" on="1"/>
        <pt x="180" y="7" on="1"/>
        <pt x="180" y="48" on="1"/>
        <pt x="188" y="48" on="1"/>
        <pt x="188" y="55" on="1"/>
        <pt x="159" y="55" on="1"/>
        <pt x="159" y="48" on="1"/>
        <pt x="167" y="48" on="1"/>
        <pt x="167" y="32" on="1"/>
        <pt x="145" y="32" on="1"/>
        <pt x="145" y="48" on="1"/>
        <pt x="153" y="48" on="1"/>
        <pt x="153" y="55" on="1"/>
        <pt x="124" y="55" on="1"/>
        <pt x="124" y="48" on="1"/>
        <pt x="132" y="48" on="1"/>
        <pt x="132" y="7" on="1"/>
        <pt x="124" y="7" on="1"/>
      </contour>
      <contour>
        <pt x="583" y="6" on="1"/>
        <pt x="583" y="13" on="0"/>
        <pt x="576" y="13" on="1"/>
        <pt x="569" y="13" on="0"/>
        <pt x="569" y="6" on="1"/>
        <pt x="569" y="-1" on="0"/>
        <pt x="576" y="-1" on="1"/>
        <pt x="583" y="-1" on="0"/>
      </contour>
    </TTGlyph>
    <TTGlyph name="hungarumlaut" xMin="152" yMin="626" xMax="674" yMax="900">
      <contour>
        <pt x="152" y="678" on="1"/>
        <pt x="170" y="701" on="0"/>
        <pt x="210" y="758" on="0"/>
        <pt x="249" y="818" on="0"/>
        <pt x="284" y="876" on="0"/>
        <pt x="297" y="900" on="1"/>
        <pt x="437" y="826" on="1"/>
        <pt x="417" y="803" on="0"/>
        <pt x="365" y="751" on="0"/>
        <pt x="307" y="697" on="0"/>
        <pt x="247" y="647" on="0"/>
        <pt x="219" y="627" on="1"/>
      </contour>
      <contour>
        <pt x="392" y="677" on="1"/>
        <pt x="410" y="700" on="0"/>
        <pt x="448" y="754" on="0"/>
        <pt x="485" y="810" on="0"/>
        <pt x="518" y="865" on="0"/>
        <pt x="530" y="889" on="1"/>
        <pt x="674" y="824" on="1"/>
        <pt x="654" y="801" on="0"/>
        <pt x="604" y="748" on="0"/>
        <pt x="547" y="696" on="0"/>
        <pt x="488" y="646" on="0"/>
        <pt x="460" y="626" on="1"/>
      </contour>
    </TTGlyph>
    <TTGlyph name="hungarumlaut.cap" xMin="152" yMin="626" xMax="674" yMax="900">
      <contour>
        <pt x="152" y="678" on="1"/>
        <pt x="170" y="701" on="0"/>
        <pt x="210" y="758" on="0"/>
        <pt x="249" y="818" on="0"/>
        <pt x="284" y="876" on="0"/>
        <pt x="297" y="900" on="1"/>
        <pt x="437" y="826" on="1"/>
        <pt x="417" y="803" on="0"/>
        <pt x="365" y="751" on="0"/>
        <pt x="307" y="697" on="0"/>
        <pt x="247" y="647" on="0"/>
        <pt x="219" y="627" on="1"/>
      </contour>
      <contour>
        <pt x="392" y="677" on="1"/>
        <pt x="410" y="700" on="0"/>
        <pt x="448" y="754" on="0"/>
        <pt x="485" y="810" on="0"/>
        <pt x="518" y="865" on="0"/>
        <pt x="530" y="889" on="1"/>
        <pt x="674" y="824" on="1"/>
        <pt x="654" y="801" on="0"/>
        <pt x="604" y="748" on="0"/>
        <pt x="547" y="696" on="0"/>
        <pt x="488" y="646" on="0"/>
        <pt x="460" y="626" on="1"/>
      </contour>
    </TTGlyph>
    <TTGlyph name="hyphen" xMin="141" yMin="269" xMax="507" yMax="403">
      <contour>
        <pt x="481" y="269" on="1"/>
        <pt x="141" y="269" on="1"/>
        <pt x="168" y="403" on="1"/>
        <pt x="507" y="403" on="1"/>
      </contour>
    </TTGlyph>
    <TTGlyph name="i" xMin="79" yMin="-12" xMax="554" yMax="806">
      <contour>
        <pt x="301" y="642" on="1"/>
        <pt x="338" y="797" on="1"/>
        <pt x="515" y="806" on="1"/>
        <pt x="468" y="649" on="1"/>
      </contour>
      <contour>
        <pt x="554" y="60" on="1"/>
        <pt x="468" y="22" on="0"/>
        <pt x="340" y="-12" on="0"/>
        <pt x="295" y="-12" on="1"/>
        <pt x="234" y="-12" on="0"/>
        <pt x="178" y="45" on="0"/>
        <pt x="178" y="97" on="1"/>
        <pt x="178" y="115" on="0"/>
        <pt x="185" y="156" on="0"/>
        <pt x="191" y="179" on="1"/>
        <pt x="262" y="437" on="1"/>
        <pt x="90" y="432" on="1"/>
        <pt x="79" y="509" on="1"/>
        <pt x="313" y="563" on="1"/>
        <pt x="441" y="563" on="1"/>
        <pt x="349" y="208" on="1"/>
        <pt x="344" y="191" on="0"/>
        <pt x="339" y="165" on="0"/>
        <pt x="339" y="155" on="1"/>
        <pt x="339" y="137" on="0"/>
        <pt x="362" y="121" on="0"/>
        <pt x="392" y="121" on="1"/>
        <pt x="415" y="121" on="0"/>
        <pt x="488" y="131" on="0"/>
        <pt x="542" y="139" on="1"/>
      </contour>
    </TTGlyph>
    <TTGlyph name="iacute" xMin="79" yMin="-12" xMax="586" yMax="874">
      <component glyphName="acute" x="68" y="0" flags="0x204"/>
      <component glyphName="dotlessi" x="0" y="0" flags="0x4"/>
    </TTGlyph>
    <TTGlyph name="ibreve" xMin="79" yMin="-12" xMax="647" yMax="851">
      <component glyphName="dotlessi" x="0" y="0" flags="0x204"/>
      <component glyphName="breve" x="73" y="0" flags="0x4"/>
    </TTGlyph>
    <TTGlyph name="icircumflex" xMin="79" yMin="-12" xMax="616" yMax="861">
      <component glyphName="circumflex" x="70" y="0" flags="0x204"/>
      <component glyphName="dotlessi" x="0" y="0" flags="0x4"/>
    </TTGlyph>
    <TTGlyph name="idieresis" xMin="79" yMin="-12" xMax="637" yMax="799">
      <component glyphName="dieresis" x="66" y="0" flags="0x204"/>
      <component glyphName="dotlessi" x="0" y="0" flags="0x4"/>
    </TTGlyph>
</ttFont>
